<svg width="238" height="347" viewBox="0 0 238 347" fill="none" xmlns="http://www.w3.org/2000/svg">
<mask id="mask0_308_1750" style="mask-type:alpha" maskUnits="userSpaceOnUse" x="0" y="0" width="238" height="347">
<rect width="238" height="347" fill="#C4C4C4"/>
</mask>
<g mask="url(#mask0_308_1750)">
<path d="M-54.7913 124.123C-61.6732 120.829 -69.7697 121.653 -75.8421 126.387C-81.9144 131.121 -84.9506 138.736 -83.7361 146.352C-72.8059 211.806 -50.9455 341.684 -40.4201 403.433C-39.2056 410.637 -34.3477 416.606 -27.6681 419.281C-20.9886 421.957 -13.4993 420.722 -7.8318 416.4C38.318 379.968 131.63 306.075 177.172 269.85C182.84 265.527 185.674 258.323 184.864 251.119C184.054 243.915 179.804 237.74 173.326 234.653C118.878 208.307 3.50324 152.527 -54.7913 124.123Z" stroke="#ECECEC" stroke-width="3" stroke-miterlimit="10" stroke-linecap="round" stroke-linejoin="round"/>
<path d="M192.277 160.148C192.261 158.772 191.506 157.516 190.293 156.894C189.081 156.271 187.65 156.365 186.548 157.152C177.118 163.997 158.418 177.608 149.538 184.1C148.501 184.855 147.94 186.109 148.036 187.404C148.132 188.699 148.905 189.823 150.022 190.412C159.31 195.111 178.126 204.595 187.335 209.211C188.452 209.8 189.802 209.704 190.871 209.015C191.939 208.325 192.58 207.155 192.564 205.861C192.489 194.953 192.325 171.842 192.277 160.148Z" stroke="#ECECEC" stroke-width="3" stroke-miterlimit="10" stroke-linecap="round" stroke-linejoin="round"/>
<path d="M93.8667 177.804C95.6025 174.877 95.6194 171.217 93.8572 168.283C92.0951 165.349 88.9512 163.641 85.6122 163.834C56.8918 165.716 -0.105244 169.528 -27.2098 171.4C-30.3713 171.612 -33.1678 173.511 -34.6281 176.376C-36.0884 179.241 -35.8998 182.649 -34.2966 185.383C-20.7092 207.702 6.86283 252.84 20.3894 274.878C21.9926 277.612 24.9683 279.211 28.1113 279.18C31.2543 279.148 34.1116 277.531 35.7401 274.775C49.5986 251.628 78.9442 202.577 93.8667 177.804Z" stroke="url(#paint0_linear_308_1750)" stroke-width="3" stroke-miterlimit="10" stroke-linecap="round" stroke-linejoin="round"/>
<path d="M82.8773 302.982C80.6205 302.812 78.4562 303.919 77.263 305.894C76.0698 307.869 76.0216 310.316 77.1548 312.302C87.0308 329.321 106.675 363.071 116.052 379.103C117.142 380.975 119.116 382.109 121.252 382.129C123.388 382.149 125.341 380.993 126.464 379.177C135.485 364.042 153.7 333.376 162.574 318.364C163.697 316.548 163.732 314.237 162.755 312.321C161.777 310.405 159.95 309.149 157.828 308.993C139.942 307.568 102.047 304.562 82.8773 302.982Z" stroke="#ECECEC" stroke-width="3" stroke-miterlimit="10" stroke-linecap="round" stroke-linejoin="round"/>
<path d="M52.5386 40.1629C49.2386 37.4117 44.7386 37.106 41.0386 39.2458C37.4386 41.3857 35.4386 45.6653 36.1386 49.8431C39.8386 72.3622 45.0386 103.237 47.5386 118.623C48.4386 123.922 53.1386 127.692 58.4386 127.182C72.9386 125.756 101.439 123.005 122.139 121.069C126.239 120.661 129.639 117.808 130.839 113.834C132.039 109.86 130.739 105.479 127.539 102.931C106.939 85.5068 73.9386 57.9948 52.5386 40.1629Z" stroke="#D9D9D9" stroke-width="3" stroke-miterlimit="10" stroke-linecap="round" stroke-linejoin="round"/>
</g>
<defs>
<linearGradient id="paint0_linear_308_1750" x1="-38.8244" y1="211.28" x2="89.941" y2="224.497" gradientUnits="userSpaceOnUse">
<stop stop-color="#FFDC03"/>
<stop offset="1" stop-color="#FF9A00"/>
</linearGradient>
</defs>
</svg>
