<svg width="238" height="425" viewBox="0 0 238 425" fill="none" xmlns="http://www.w3.org/2000/svg">
<mask id="mask0_308_1760" style="mask-type:alpha" maskUnits="userSpaceOnUse" x="0" y="0" width="238" height="425">
<rect width="238" height="425" fill="#C4C4C4"/>
</mask>
<g mask="url(#mask0_308_1760)">
<path d="M59.1512 202.094C52.7293 204.118 47.9781 209.575 46.8719 216.363C45.7657 223.151 48.3455 229.982 53.6777 234.23C99.824 270.448 191.502 342.21 235.175 376.248C240.261 380.227 246.97 381.185 252.892 378.879C258.814 376.574 262.927 371.217 264.016 364.944C272.153 313.058 288.468 207.998 296.334 156.615C297.424 150.343 294.959 143.904 290.135 139.679C285.31 135.454 278.872 133.993 272.835 135.905C221.853 151.727 113.852 185.284 59.1512 202.094Z" stroke="#ECECEC" stroke-width="3" stroke-miterlimit="10" stroke-linecap="round" stroke-linejoin="round"/>
<path d="M187.452 146.948C186.828 143.977 184.655 141.57 181.762 140.72C178.87 139.869 175.815 140.66 173.768 142.815C156.295 161.492 121.664 198.608 105.23 216.297C103.31 218.357 102.633 221.298 103.397 224.061C104.162 226.824 106.318 228.941 108.988 229.757C131.108 236.118 175.904 248.926 197.817 255.139C200.487 255.956 203.368 255.195 205.384 253.265C207.401 251.336 208.285 248.541 207.695 245.748C202.852 222.174 192.576 172.233 187.452 146.948Z" stroke="url(#paint0_linear_308_1760)" stroke-width="3" stroke-miterlimit="10" stroke-linecap="round" stroke-linejoin="round"/>
<path d="M209.258 121.845C208.623 123.772 209.086 125.913 210.495 127.408C211.904 128.903 213.962 129.509 215.888 128.98C232.424 124.303 265.233 114.976 280.827 110.506C282.647 109.988 284.035 108.53 284.518 106.674C285 104.818 284.45 102.85 283.159 101.453C272.335 90.1034 250.388 67.1622 239.636 55.9696C238.345 54.5718 236.4 54.0083 234.568 54.418C232.736 54.8277 231.275 56.129 230.68 57.9421C225.576 73.194 214.774 105.511 209.258 121.845Z" stroke="#ECECEC" stroke-width="3" stroke-miterlimit="10" stroke-linecap="round" stroke-linejoin="round"/>
<path d="M78.5341 81.9272C74.7552 82.1302 71.6589 84.6634 70.5403 88.3119C69.4865 91.8996 70.746 95.9166 73.6929 98.2269C89.5302 110.724 111.326 127.781 122.129 136.337C125.874 139.26 131.168 138.874 134.296 135.321C142.833 125.58 159.645 106.467 171.893 92.6261C174.305 89.8689 174.803 85.9356 173.208 82.6047C171.613 79.2738 168.156 77.1945 164.563 77.4703C140.824 78.574 103.035 80.6044 78.5341 81.9272Z" stroke="#D9D9D9" stroke-width="3" stroke-miterlimit="10" stroke-linecap="round" stroke-linejoin="round"/>
</g>
<defs>
<linearGradient id="paint0_linear_308_1760" x1="121.514" y1="249.464" x2="213.761" y2="181.232" gradientUnits="userSpaceOnUse">
<stop stop-color="#00A1FF"/>
<stop offset="1" stop-color="#0063F5"/>
</linearGradient>
</defs>
</svg>
