<svg width="130" height="40" viewBox="0 0 130 40" fill="none" xmlns="http://www.w3.org/2000/svg">
<rect width="130" height="40" rx="5" fill="url(#paint0_linear_103_10)"/>
<path d="M8.41487 9.03459C8.15208 9.30529 8 9.72674 8 10.2725V29.7408C8 30.2866 8.15208 30.708 8.41487 30.9787L8.47973 31.0382L19.566 20.1332V19.8757L8.47973 8.97077L8.41487 9.03459Z" fill="white"/>
<path d="M24.599 23.7647L20.9077 20.1279V19.8704L24.6035 16.2336L24.6863 16.2809L29.0631 18.7315C30.3121 19.427 30.3121 20.5714 29.0631 21.2712L24.6863 23.7174L24.599 23.7647V23.7647Z" fill="white"/>
<path d="M24.0157 24.3942L20.2371 20.6759L9.08603 31.6502C9.5009 32.0794 10.1774 32.1311 10.9468 31.7019L24.0157 24.3942" fill="white"/>
<path d="M24.0156 15.6012L10.9467 8.29342C10.1773 7.86867 9.50081 7.92039 9.08594 8.34954L20.2371 19.3194L24.0156 15.6012Z" fill="white"/>
<path d="M46.1944 18.0696C45.9424 17.5842 45.5924 17.2202 45.1444 16.9776C44.6964 16.7256 44.1784 16.5996 43.5904 16.5996C42.9464 16.5996 42.3724 16.7442 41.8684 17.0336C41.3644 17.3229 40.9678 17.7336 40.6784 18.2656C40.3984 18.7976 40.2584 19.4136 40.2584 20.1136C40.2584 20.8136 40.3984 21.4342 40.6784 21.9756C40.9678 22.5076 41.3644 22.9182 41.8684 23.2076C42.3724 23.4969 42.9464 23.6416 43.5904 23.6416C44.4584 23.6416 45.1631 23.3989 45.7044 22.9136C46.2458 22.4282 46.5771 21.7702 46.6984 20.9396H43.0444V19.6656H48.4064V20.9116C48.3038 21.6676 48.0331 22.3629 47.5944 22.9976C47.1651 23.6322 46.6004 24.1409 45.9004 24.5236C45.2098 24.8969 44.4398 25.0836 43.5904 25.0836C42.6758 25.0836 41.8404 24.8736 41.0844 24.4536C40.3284 24.0242 39.7264 23.4316 39.2784 22.6756C38.8398 21.9196 38.6204 21.0656 38.6204 20.1136C38.6204 19.1616 38.8398 18.3076 39.2784 17.5516C39.7264 16.7956 40.3284 16.2076 41.0844 15.7876C41.8498 15.3582 42.6851 15.1436 43.5904 15.1436C44.6264 15.1436 45.5458 15.4002 46.3484 15.9136C47.1604 16.4176 47.7484 17.1362 48.1124 18.0696H46.1944ZM53.3265 25.1256C52.5985 25.1256 51.9405 24.9622 51.3525 24.6356C50.7645 24.2996 50.3025 23.8329 49.9665 23.2356C49.6305 22.6289 49.4625 21.9289 49.4625 21.1356C49.4625 20.3516 49.6352 19.6562 49.9805 19.0496C50.3259 18.4429 50.7972 17.9762 51.3945 17.6496C51.9919 17.3229 52.6592 17.1596 53.3965 17.1596C54.1339 17.1596 54.8012 17.3229 55.3985 17.6496C55.9959 17.9762 56.4672 18.4429 56.8125 19.0496C57.1579 19.6562 57.3305 20.3516 57.3305 21.1356C57.3305 21.9196 57.1532 22.6149 56.7985 23.2216C56.4439 23.8282 55.9585 24.2996 55.3425 24.6356C54.7359 24.9622 54.0639 25.1256 53.3265 25.1256ZM53.3265 23.7396C53.7372 23.7396 54.1199 23.6416 54.4745 23.4456C54.8385 23.2496 55.1325 22.9556 55.3565 22.5636C55.5805 22.1716 55.6925 21.6956 55.6925 21.1356C55.6925 20.5756 55.5852 20.1042 55.3705 19.7216C55.1559 19.3296 54.8712 19.0356 54.5165 18.8396C54.1619 18.6436 53.7792 18.5456 53.3685 18.5456C52.9579 18.5456 52.5752 18.6436 52.2205 18.8396C51.8752 19.0356 51.5999 19.3296 51.3945 19.7216C51.1892 20.1042 51.0865 20.5756 51.0865 21.1356C51.0865 21.9662 51.2965 22.6102 51.7165 23.0676C52.1459 23.5156 52.6825 23.7396 53.3265 23.7396ZM62.2543 25.1256C61.5263 25.1256 60.8683 24.9622 60.2803 24.6356C59.6923 24.2996 59.2303 23.8329 58.8943 23.2356C58.5583 22.6289 58.3903 21.9289 58.3903 21.1356C58.3903 20.3516 58.5629 19.6562 58.9083 19.0496C59.2536 18.4429 59.7249 17.9762 60.3223 17.6496C60.9196 17.3229 61.5869 17.1596 62.3243 17.1596C63.0616 17.1596 63.7289 17.3229 64.3263 17.6496C64.9236 17.9762 65.3949 18.4429 65.7403 19.0496C66.0856 19.6562 66.2583 20.3516 66.2583 21.1356C66.2583 21.9196 66.0809 22.6149 65.7263 23.2216C65.3716 23.8282 64.8863 24.2996 64.2703 24.6356C63.6636 24.9622 62.9916 25.1256 62.2543 25.1256ZM62.2543 23.7396C62.6649 23.7396 63.0476 23.6416 63.4023 23.4456C63.7663 23.2496 64.0603 22.9556 64.2843 22.5636C64.5083 22.1716 64.6203 21.6956 64.6203 21.1356C64.6203 20.5756 64.5129 20.1042 64.2983 19.7216C64.0836 19.3296 63.7989 19.0356 63.4443 18.8396C63.0896 18.6436 62.7069 18.5456 62.2963 18.5456C61.8856 18.5456 61.5029 18.6436 61.1483 18.8396C60.8029 19.0356 60.5276 19.3296 60.3223 19.7216C60.1169 20.1042 60.0143 20.5756 60.0143 21.1356C60.0143 21.9662 60.2243 22.6102 60.6443 23.0676C61.0736 23.5156 61.6103 23.7396 62.2543 23.7396ZM70.944 17.1596C71.5413 17.1596 72.0687 17.2809 72.526 17.5236C72.9927 17.7569 73.3567 18.0509 73.618 18.4056V17.2856H75.228V25.1256C75.228 25.8349 75.0787 26.4649 74.78 27.0156C74.4813 27.5756 74.0473 28.0142 73.478 28.3316C72.918 28.6489 72.246 28.8076 71.462 28.8076C70.4167 28.8076 69.5487 28.5602 68.858 28.0656C68.1673 27.5802 67.7753 26.9176 67.682 26.0776H69.264C69.3853 26.4789 69.642 26.8009 70.034 27.0436C70.4353 27.2956 70.9113 27.4216 71.462 27.4216C72.106 27.4216 72.624 27.2256 73.016 26.8336C73.4173 26.4416 73.618 25.8722 73.618 25.1256V23.8376C73.3473 24.2016 72.9787 24.5096 72.512 24.7616C72.0547 25.0042 71.532 25.1256 70.944 25.1256C70.272 25.1256 69.656 24.9576 69.096 24.6216C68.5453 24.2762 68.1067 23.8002 67.78 23.1936C67.4627 22.5776 67.304 21.8822 67.304 21.1076C67.304 20.3329 67.4627 19.6469 67.78 19.0496C68.1067 18.4522 68.5453 17.9902 69.096 17.6636C69.656 17.3276 70.272 17.1596 70.944 17.1596ZM73.618 21.1356C73.618 20.6036 73.506 20.1416 73.282 19.7496C73.0673 19.3576 72.7827 19.0589 72.428 18.8536C72.0733 18.6482 71.6907 18.5456 71.28 18.5456C70.8693 18.5456 70.4867 18.6482 70.132 18.8536C69.7773 19.0496 69.488 19.3436 69.264 19.7356C69.0493 20.1182 68.942 20.5756 68.942 21.1076C68.942 21.6396 69.0493 22.1062 69.264 22.5076C69.488 22.9089 69.7773 23.2169 70.132 23.4316C70.496 23.6369 70.8787 23.7396 71.28 23.7396C71.6907 23.7396 72.0733 23.6369 72.428 23.4316C72.7827 23.2262 73.0673 22.9276 73.282 22.5356C73.506 22.1342 73.618 21.6676 73.618 21.1356ZM78.9203 14.6396V24.9996H77.3243V14.6396H78.9203ZM88.0857 20.9536C88.0857 21.2429 88.067 21.5042 88.0297 21.7376H82.1357C82.1824 22.3536 82.411 22.8482 82.8217 23.2216C83.2324 23.5949 83.7364 23.7816 84.3337 23.7816C85.1924 23.7816 85.799 23.4222 86.1537 22.7036H87.8757C87.6424 23.4129 87.2177 23.9962 86.6017 24.4536C85.995 24.9016 85.239 25.1256 84.3337 25.1256C83.5964 25.1256 82.9337 24.9622 82.3457 24.6356C81.767 24.2996 81.3097 23.8329 80.9737 23.2356C80.647 22.6289 80.4837 21.9289 80.4837 21.1356C80.4837 20.3422 80.6424 19.6469 80.9597 19.0496C81.2864 18.4429 81.739 17.9762 82.3177 17.6496C82.9057 17.3229 83.5777 17.1596 84.3337 17.1596C85.0617 17.1596 85.7104 17.3182 86.2797 17.6356C86.849 17.9529 87.2924 18.4009 87.6097 18.9796C87.927 19.5489 88.0857 20.2069 88.0857 20.9536ZM86.4197 20.4496C86.4104 19.8616 86.2004 19.3902 85.7897 19.0356C85.379 18.6809 84.8704 18.5036 84.2637 18.5036C83.713 18.5036 83.2417 18.6809 82.8497 19.0356C82.4577 19.3809 82.2244 19.8522 82.1497 20.4496H86.4197ZM100.097 18.1676C100.097 18.6622 99.9804 19.1289 99.747 19.5676C99.5137 20.0062 99.1404 20.3656 98.627 20.6456C98.1137 20.9162 97.4557 21.0516 96.653 21.0516H94.889V24.9996H93.293V15.2696H96.653C97.3997 15.2696 98.0297 15.4002 98.543 15.6616C99.0657 15.9136 99.453 16.2589 99.705 16.6976C99.9664 17.1362 100.097 17.6262 100.097 18.1676ZM96.653 19.7496C97.2597 19.7496 97.7124 19.6142 98.011 19.3436C98.3097 19.0636 98.459 18.6716 98.459 18.1676C98.459 17.1036 97.857 16.5716 96.653 16.5716H94.889V19.7496H96.653ZM103.215 14.6396V24.9996H101.619V14.6396H103.215ZM104.779 21.1076C104.779 20.3329 104.937 19.6469 105.255 19.0496C105.581 18.4522 106.02 17.9902 106.571 17.6636C107.131 17.3276 107.747 17.1596 108.419 17.1596C109.025 17.1596 109.553 17.2809 110.001 17.5236C110.458 17.7569 110.822 18.0509 111.093 18.4056V17.2856H112.703V24.9996H111.093V23.8516C110.822 24.2156 110.453 24.5189 109.987 24.7616C109.52 25.0042 108.988 25.1256 108.391 25.1256C107.728 25.1256 107.121 24.9576 106.571 24.6216C106.02 24.2762 105.581 23.8002 105.255 23.1936C104.937 22.5776 104.779 21.8822 104.779 21.1076ZM111.093 21.1356C111.093 20.6036 110.981 20.1416 110.757 19.7496C110.542 19.3576 110.257 19.0589 109.903 18.8536C109.548 18.6482 109.165 18.5456 108.755 18.5456C108.344 18.5456 107.961 18.6482 107.607 18.8536C107.252 19.0496 106.963 19.3436 106.739 19.7356C106.524 20.1182 106.417 20.5756 106.417 21.1076C106.417 21.6396 106.524 22.1062 106.739 22.5076C106.963 22.9089 107.252 23.2169 107.607 23.4316C107.971 23.6369 108.353 23.7396 108.755 23.7396C109.165 23.7396 109.548 23.6369 109.903 23.4316C110.257 23.2262 110.542 22.9276 110.757 22.5356C110.981 22.1342 111.093 21.6676 111.093 21.1356ZM121.743 17.2856L117.011 28.6256H115.359L116.927 24.8736L113.889 17.2856H115.667L117.837 23.1656L120.091 17.2856H121.743Z" fill="white"/>
<defs>
<linearGradient id="paint0_linear_103_10" x1="65" y1="0" x2="65" y2="40" gradientUnits="userSpaceOnUse">
<stop offset="0.9999" stop-color="#C4C4C4"/>
<stop offset="1" stop-color="#0063F5"/>
</linearGradient>
</defs>
</svg>
