<svg width="130" height="40" viewBox="0 0 130 40" fill="none" xmlns="http://www.w3.org/2000/svg">
<rect width="130" height="40" rx="5" fill="url(#paint0_linear_109_1442)"/>
<path d="M8.41487 9.03452C8.15208 9.30521 8 9.72667 8 10.2725V29.7407C8 30.2865 8.15208 30.708 8.41487 30.9787L8.47973 31.0381L19.566 20.1331V19.8756L8.47973 8.9707L8.41487 9.03452Z" fill="white"/>
<path d="M24.599 23.7686L20.9077 20.1317V19.8742L24.6035 16.2374L24.6863 16.2847L29.0631 18.7353C30.3121 19.4308 30.3121 20.5752 29.0631 21.2751L24.6863 23.7212L24.599 23.7686Z" fill="white"/>
<path d="M24.0157 24.3961L20.2372 20.6778L9.08606 31.6521C9.50093 32.0812 10.1775 32.133 10.9468 31.7038L24.0157 24.3961Z" fill="white"/>
<path d="M24.0156 15.6011L10.9467 8.29335C10.1773 7.86859 9.50081 7.92031 9.08594 8.34947L20.2371 19.3193L24.0156 15.6011Z" fill="white"/>
<path d="M46.1944 18.07C45.9424 17.5847 45.5924 17.2207 45.1444 16.978C44.6964 16.726 44.1784 16.6 43.5904 16.6C42.9464 16.6 42.3724 16.7447 41.8684 17.034C41.3644 17.3233 40.9678 17.734 40.6784 18.266C40.3984 18.798 40.2584 19.414 40.2584 20.114C40.2584 20.814 40.3984 21.4347 40.6784 21.976C40.9678 22.508 41.3644 22.9187 41.8684 23.208C42.3724 23.4973 42.9464 23.642 43.5904 23.642C44.4584 23.642 45.1631 23.3993 45.7044 22.914C46.2458 22.4287 46.5771 21.7707 46.6984 20.94H43.0444V19.666H48.4064V20.912C48.3038 21.668 48.0331 22.3633 47.5944 22.998C47.1651 23.6327 46.6004 24.1413 45.9004 24.524C45.2098 24.8973 44.4398 25.084 43.5904 25.084C42.6758 25.084 41.8404 24.874 41.0844 24.454C40.3284 24.0247 39.7264 23.432 39.2784 22.676C38.8398 21.92 38.6204 21.066 38.6204 20.114C38.6204 19.162 38.8398 18.308 39.2784 17.552C39.7264 16.796 40.3284 16.208 41.0844 15.788C41.8498 15.3587 42.6851 15.144 43.5904 15.144C44.6264 15.144 45.5458 15.4007 46.3484 15.914C47.1604 16.418 47.7484 17.1367 48.1124 18.07H46.1944ZM53.3265 25.126C52.5985 25.126 51.9405 24.9627 51.3525 24.636C50.7645 24.3 50.3025 23.8333 49.9665 23.236C49.6305 22.6293 49.4625 21.9293 49.4625 21.136C49.4625 20.352 49.6352 19.6567 49.9805 19.05C50.3259 18.4433 50.7972 17.9767 51.3945 17.65C51.9919 17.3233 52.6592 17.16 53.3965 17.16C54.1339 17.16 54.8012 17.3233 55.3985 17.65C55.9959 17.9767 56.4672 18.4433 56.8125 19.05C57.1579 19.6567 57.3305 20.352 57.3305 21.136C57.3305 21.92 57.1532 22.6153 56.7985 23.222C56.4439 23.8287 55.9585 24.3 55.3425 24.636C54.7359 24.9627 54.0639 25.126 53.3265 25.126ZM53.3265 23.74C53.7372 23.74 54.1199 23.642 54.4745 23.446C54.8385 23.25 55.1325 22.956 55.3565 22.564C55.5805 22.172 55.6925 21.696 55.6925 21.136C55.6925 20.576 55.5852 20.1047 55.3705 19.722C55.1559 19.33 54.8712 19.036 54.5165 18.84C54.1619 18.644 53.7792 18.546 53.3685 18.546C52.9579 18.546 52.5752 18.644 52.2205 18.84C51.8752 19.036 51.5999 19.33 51.3945 19.722C51.1892 20.1047 51.0865 20.576 51.0865 21.136C51.0865 21.9667 51.2965 22.6107 51.7165 23.068C52.1459 23.516 52.6825 23.74 53.3265 23.74ZM62.2543 25.126C61.5263 25.126 60.8683 24.9627 60.2803 24.636C59.6923 24.3 59.2303 23.8333 58.8943 23.236C58.5583 22.6293 58.3903 21.9293 58.3903 21.136C58.3903 20.352 58.5629 19.6567 58.9083 19.05C59.2536 18.4433 59.7249 17.9767 60.3223 17.65C60.9196 17.3233 61.5869 17.16 62.3243 17.16C63.0616 17.16 63.7289 17.3233 64.3263 17.65C64.9236 17.9767 65.3949 18.4433 65.7403 19.05C66.0856 19.6567 66.2583 20.352 66.2583 21.136C66.2583 21.92 66.0809 22.6153 65.7263 23.222C65.3716 23.8287 64.8863 24.3 64.2703 24.636C63.6636 24.9627 62.9916 25.126 62.2543 25.126ZM62.2543 23.74C62.6649 23.74 63.0476 23.642 63.4023 23.446C63.7663 23.25 64.0603 22.956 64.2843 22.564C64.5083 22.172 64.6203 21.696 64.6203 21.136C64.6203 20.576 64.5129 20.1047 64.2983 19.722C64.0836 19.33 63.7989 19.036 63.4443 18.84C63.0896 18.644 62.7069 18.546 62.2963 18.546C61.8856 18.546 61.5029 18.644 61.1483 18.84C60.8029 19.036 60.5276 19.33 60.3223 19.722C60.1169 20.1047 60.0143 20.576 60.0143 21.136C60.0143 21.9667 60.2243 22.6107 60.6443 23.068C61.0736 23.516 61.6103 23.74 62.2543 23.74ZM70.944 17.16C71.5413 17.16 72.0687 17.2813 72.526 17.524C72.9927 17.7573 73.3567 18.0513 73.618 18.406V17.286H75.228V25.126C75.228 25.8353 75.0787 26.4653 74.78 27.016C74.4813 27.576 74.0473 28.0147 73.478 28.332C72.918 28.6493 72.246 28.808 71.462 28.808C70.4167 28.808 69.5487 28.5607 68.858 28.066C68.1673 27.5807 67.7753 26.918 67.682 26.078H69.264C69.3853 26.4793 69.642 26.8013 70.034 27.044C70.4353 27.296 70.9113 27.422 71.462 27.422C72.106 27.422 72.624 27.226 73.016 26.834C73.4173 26.442 73.618 25.8727 73.618 25.126V23.838C73.3473 24.202 72.9787 24.51 72.512 24.762C72.0547 25.0047 71.532 25.126 70.944 25.126C70.272 25.126 69.656 24.958 69.096 24.622C68.5453 24.2767 68.1067 23.8007 67.78 23.194C67.4627 22.578 67.304 21.8827 67.304 21.108C67.304 20.3333 67.4627 19.6473 67.78 19.05C68.1067 18.4527 68.5453 17.9907 69.096 17.664C69.656 17.328 70.272 17.16 70.944 17.16ZM73.618 21.136C73.618 20.604 73.506 20.142 73.282 19.75C73.0673 19.358 72.7827 19.0593 72.428 18.854C72.0733 18.6487 71.6907 18.546 71.28 18.546C70.8693 18.546 70.4867 18.6487 70.132 18.854C69.7773 19.05 69.488 19.344 69.264 19.736C69.0493 20.1187 68.942 20.576 68.942 21.108C68.942 21.64 69.0493 22.1067 69.264 22.508C69.488 22.9093 69.7773 23.2173 70.132 23.432C70.496 23.6373 70.8787 23.74 71.28 23.74C71.6907 23.74 72.0733 23.6373 72.428 23.432C72.7827 23.2267 73.0673 22.928 73.282 22.536C73.506 22.1347 73.618 21.668 73.618 21.136ZM78.9203 14.64V25H77.3243V14.64H78.9203ZM88.0857 20.954C88.0857 21.2433 88.067 21.5047 88.0297 21.738H82.1357C82.1824 22.354 82.411 22.8487 82.8217 23.222C83.2324 23.5953 83.7364 23.782 84.3337 23.782C85.1924 23.782 85.799 23.4227 86.1537 22.704H87.8757C87.6424 23.4133 87.2177 23.9967 86.6017 24.454C85.995 24.902 85.239 25.126 84.3337 25.126C83.5964 25.126 82.9337 24.9627 82.3457 24.636C81.767 24.3 81.3097 23.8333 80.9737 23.236C80.647 22.6293 80.4837 21.9293 80.4837 21.136C80.4837 20.3427 80.6424 19.6473 80.9597 19.05C81.2864 18.4433 81.739 17.9767 82.3177 17.65C82.9057 17.3233 83.5777 17.16 84.3337 17.16C85.0617 17.16 85.7104 17.3187 86.2797 17.636C86.849 17.9533 87.2924 18.4013 87.6097 18.98C87.927 19.5493 88.0857 20.2073 88.0857 20.954ZM86.4197 20.45C86.4104 19.862 86.2004 19.3907 85.7897 19.036C85.379 18.6813 84.8704 18.504 84.2637 18.504C83.713 18.504 83.2417 18.6813 82.8497 19.036C82.4577 19.3813 82.2244 19.8527 82.1497 20.45H86.4197ZM100.097 18.168C100.097 18.6627 99.9804 19.1293 99.747 19.568C99.5137 20.0067 99.1404 20.366 98.627 20.646C98.1137 20.9167 97.4557 21.052 96.653 21.052H94.889V25H93.293V15.27H96.653C97.3997 15.27 98.0297 15.4007 98.543 15.662C99.0657 15.914 99.453 16.2593 99.705 16.698C99.9664 17.1367 100.097 17.6267 100.097 18.168ZM96.653 19.75C97.2597 19.75 97.7124 19.6147 98.011 19.344C98.3097 19.064 98.459 18.672 98.459 18.168C98.459 17.104 97.857 16.572 96.653 16.572H94.889V19.75H96.653ZM103.215 14.64V25H101.619V14.64H103.215ZM104.779 21.108C104.779 20.3333 104.937 19.6473 105.255 19.05C105.581 18.4527 106.02 17.9907 106.571 17.664C107.131 17.328 107.747 17.16 108.419 17.16C109.025 17.16 109.553 17.2813 110.001 17.524C110.458 17.7573 110.822 18.0513 111.093 18.406V17.286H112.703V25H111.093V23.852C110.822 24.216 110.453 24.5193 109.987 24.762C109.52 25.0047 108.988 25.126 108.391 25.126C107.728 25.126 107.121 24.958 106.571 24.622C106.02 24.2767 105.581 23.8007 105.255 23.194C104.937 22.578 104.779 21.8827 104.779 21.108ZM111.093 21.136C111.093 20.604 110.981 20.142 110.757 19.75C110.542 19.358 110.257 19.0593 109.903 18.854C109.548 18.6487 109.165 18.546 108.755 18.546C108.344 18.546 107.961 18.6487 107.607 18.854C107.252 19.05 106.963 19.344 106.739 19.736C106.524 20.1187 106.417 20.576 106.417 21.108C106.417 21.64 106.524 22.1067 106.739 22.508C106.963 22.9093 107.252 23.2173 107.607 23.432C107.971 23.6373 108.353 23.74 108.755 23.74C109.165 23.74 109.548 23.6373 109.903 23.432C110.257 23.2267 110.542 22.928 110.757 22.536C110.981 22.1347 111.093 21.668 111.093 21.136ZM121.743 17.286L117.011 28.626H115.359L116.927 24.874L113.889 17.286H115.667L117.837 23.166L120.091 17.286H121.743Z" fill="white"/>
<defs>
<linearGradient id="paint0_linear_109_1442" x1="65" y1="0" x2="65" y2="40" gradientUnits="userSpaceOnUse">
<stop stop-color="#00A1FF"/>
<stop offset="1" stop-color="#0063F5"/>
</linearGradient>
</defs>
</svg>
