<svg width="130" height="40" viewBox="0 0 130 40" fill="none" xmlns="http://www.w3.org/2000/svg">
<rect width="130" height="40" rx="5" fill="url(#paint0_linear_109_1438)"/>
<path d="M32.7045 20.7631C32.729 18.9104 33.7481 17.1574 35.3648 16.187C34.3449 14.7649 32.6366 13.8632 30.8592 13.8089C28.9636 13.6147 27.1258 14.9164 26.1598 14.9164C25.1751 14.9164 23.6878 13.8282 22.0862 13.8604C19.9986 13.9262 18.0524 15.085 17.0368 16.8669C14.8535 20.5573 16.482 25.9809 18.5734 28.964C19.6198 30.4247 20.8427 32.0564 22.4428 31.9985C24.0086 31.9351 24.5935 31.0237 26.4836 31.0237C28.3561 31.0237 28.9048 31.9985 30.5374 31.9617C32.2176 31.9351 33.2762 30.4945 34.2859 29.02C35.0377 27.9791 35.6162 26.8288 36 25.6116C34.0254 24.7962 32.7068 22.8562 32.7045 20.7631Z" fill="white"/>
<path d="M29.6208 11.8471C30.5369 10.7734 30.9882 9.39335 30.8789 8C29.4793 8.14352 28.1864 8.7966 27.2579 9.82911C26.35 10.8379 25.8775 12.1937 25.9668 13.5338C27.3669 13.5479 28.7434 12.9125 29.6208 11.8471Z" fill="white"/>
<path d="M50.9287 23.012H46.8547L46.1547 25H44.4887L47.9747 15.256H49.8227L53.3087 25H51.6287L50.9287 23.012ZM50.4807 21.71L48.8987 17.188L47.3027 21.71H50.4807ZM56.4204 18.42C56.6911 18.0653 57.0597 17.7667 57.5264 17.524C57.9931 17.2813 58.5204 17.16 59.1084 17.16C59.7804 17.16 60.3917 17.328 60.9424 17.664C61.5024 17.9907 61.9411 18.4527 62.2584 19.05C62.5757 19.6473 62.7344 20.3333 62.7344 21.108C62.7344 21.8827 62.5757 22.578 62.2584 23.194C61.9411 23.8007 61.5024 24.2767 60.9424 24.622C60.3917 24.958 59.7804 25.126 59.1084 25.126C58.5204 25.126 57.9977 25.0093 57.5404 24.776C57.0831 24.5333 56.7097 24.2347 56.4204 23.88V28.668H54.8244V17.286H56.4204V18.42ZM61.1104 21.108C61.1104 20.576 60.9984 20.1187 60.7744 19.736C60.5597 19.344 60.2704 19.05 59.9064 18.854C59.5517 18.6487 59.1691 18.546 58.7584 18.546C58.3571 18.546 57.9744 18.6487 57.6104 18.854C57.2557 19.0593 56.9664 19.358 56.7424 19.75C56.5277 20.142 56.4204 20.604 56.4204 21.136C56.4204 21.668 56.5277 22.1347 56.7424 22.536C56.9664 22.928 57.2557 23.2267 57.6104 23.432C57.9744 23.6373 58.3571 23.74 58.7584 23.74C59.1691 23.74 59.5517 23.6373 59.9064 23.432C60.2704 23.2173 60.5597 22.9093 60.7744 22.508C60.9984 22.1067 61.1104 21.64 61.1104 21.108ZM65.9087 18.42C66.1794 18.0653 66.548 17.7667 67.0147 17.524C67.4814 17.2813 68.0087 17.16 68.5967 17.16C69.2687 17.16 69.88 17.328 70.4307 17.664C70.9907 17.9907 71.4294 18.4527 71.7467 19.05C72.064 19.6473 72.2227 20.3333 72.2227 21.108C72.2227 21.8827 72.064 22.578 71.7467 23.194C71.4294 23.8007 70.9907 24.2767 70.4307 24.622C69.88 24.958 69.2687 25.126 68.5967 25.126C68.0087 25.126 67.486 25.0093 67.0287 24.776C66.5714 24.5333 66.198 24.2347 65.9087 23.88V28.668H64.3127V17.286H65.9087V18.42ZM70.5987 21.108C70.5987 20.576 70.4867 20.1187 70.2627 19.736C70.048 19.344 69.7587 19.05 69.3947 18.854C69.04 18.6487 68.6574 18.546 68.2467 18.546C67.8454 18.546 67.4627 18.6487 67.0987 18.854C66.744 19.0593 66.4547 19.358 66.2307 19.75C66.016 20.142 65.9087 20.604 65.9087 21.136C65.9087 21.668 66.016 22.1347 66.2307 22.536C66.4547 22.928 66.744 23.2267 67.0987 23.432C67.4627 23.6373 67.8454 23.74 68.2467 23.74C68.6574 23.74 69.04 23.6373 69.3947 23.432C69.7587 23.2173 70.048 22.9093 70.2627 22.508C70.4867 22.1067 70.5987 21.64 70.5987 21.108ZM80.6437 25.098C79.9904 25.098 79.4024 24.986 78.8797 24.762C78.357 24.5287 77.9464 24.202 77.6477 23.782C77.349 23.362 77.1997 22.872 77.1997 22.312H78.9077C78.945 22.732 79.1084 23.0773 79.3977 23.348C79.6964 23.6187 80.1117 23.754 80.6437 23.754C81.1944 23.754 81.6237 23.6233 81.9317 23.362C82.2397 23.0913 82.3937 22.746 82.3937 22.326C82.3937 21.9993 82.2957 21.7333 82.0997 21.528C81.913 21.3227 81.675 21.164 81.3857 21.052C81.1057 20.94 80.7137 20.8187 80.2097 20.688C79.575 20.52 79.057 20.352 78.6557 20.184C78.2637 20.0067 77.9277 19.736 77.6477 19.372C77.3677 19.008 77.2277 18.5227 77.2277 17.916C77.2277 17.356 77.3677 16.866 77.6477 16.446C77.9277 16.026 78.3197 15.704 78.8237 15.48C79.3277 15.256 79.911 15.144 80.5737 15.144C81.5164 15.144 82.2864 15.382 82.8837 15.858C83.4904 16.3247 83.8264 16.9687 83.8917 17.79H82.1277C82.0997 17.4353 81.9317 17.132 81.6237 16.88C81.3157 16.628 80.9097 16.502 80.4057 16.502C79.9484 16.502 79.575 16.6187 79.2857 16.852C78.9964 17.0853 78.8517 17.4213 78.8517 17.86C78.8517 18.1587 78.9404 18.406 79.1177 18.602C79.3044 18.7887 79.5377 18.938 79.8177 19.05C80.0977 19.162 80.4804 19.2833 80.9657 19.414C81.6097 19.5913 82.1324 19.7687 82.5337 19.946C82.9444 20.1233 83.2897 20.3987 83.5697 20.772C83.859 21.136 84.0037 21.626 84.0037 22.242C84.0037 22.7367 83.8684 23.2033 83.5977 23.642C83.3364 24.0807 82.949 24.4353 82.4357 24.706C81.9317 24.9673 81.3344 25.098 80.6437 25.098ZM87.7489 18.588V22.858C87.7489 23.1473 87.8142 23.3573 87.9449 23.488C88.0849 23.6093 88.3182 23.67 88.6449 23.67H89.6249V25H88.3649C87.6462 25 87.0956 24.832 86.7129 24.496C86.3302 24.16 86.1389 23.614 86.1389 22.858V18.588H85.2289V17.286H86.1389V15.368H87.7489V17.286H89.6249V18.588H87.7489ZM94.4419 25.126C93.7139 25.126 93.0559 24.9627 92.4679 24.636C91.8799 24.3 91.4179 23.8333 91.0819 23.236C90.7459 22.6293 90.5779 21.9293 90.5779 21.136C90.5779 20.352 90.7506 19.6567 91.0959 19.05C91.4412 18.4433 91.9126 17.9767 92.5099 17.65C93.1072 17.3233 93.7746 17.16 94.5119 17.16C95.2492 17.16 95.9166 17.3233 96.5139 17.65C97.1112 17.9767 97.5826 18.4433 97.9279 19.05C98.2732 19.6567 98.4459 20.352 98.4459 21.136C98.4459 21.92 98.2686 22.6153 97.9139 23.222C97.5592 23.8287 97.0739 24.3 96.4579 24.636C95.8512 24.9627 95.1792 25.126 94.4419 25.126ZM94.4419 23.74C94.8526 23.74 95.2352 23.642 95.5899 23.446C95.9539 23.25 96.2479 22.956 96.4719 22.564C96.6959 22.172 96.8079 21.696 96.8079 21.136C96.8079 20.576 96.7006 20.1047 96.4859 19.722C96.2712 19.33 95.9866 19.036 95.6319 18.84C95.2772 18.644 94.8946 18.546 94.4839 18.546C94.0732 18.546 93.6906 18.644 93.3359 18.84C92.9906 19.036 92.7152 19.33 92.5099 19.722C92.3046 20.1047 92.2019 20.576 92.2019 21.136C92.2019 21.9667 92.4119 22.6107 92.8319 23.068C93.2612 23.516 93.7979 23.74 94.4419 23.74ZM101.62 18.406C101.853 18.014 102.161 17.7107 102.544 17.496C102.936 17.272 103.398 17.16 103.93 17.16V18.812H103.524C102.898 18.812 102.422 18.9707 102.096 19.288C101.778 19.6053 101.62 20.156 101.62 20.94V25H100.024V17.286H101.62V18.406ZM112.467 20.954C112.467 21.2433 112.448 21.5047 112.411 21.738H106.517C106.563 22.354 106.792 22.8487 107.203 23.222C107.613 23.5953 108.117 23.782 108.715 23.782C109.573 23.782 110.18 23.4227 110.535 22.704H112.257C112.023 23.4133 111.599 23.9967 110.983 24.454C110.376 24.902 109.62 25.126 108.715 25.126C107.977 25.126 107.315 24.9627 106.727 24.636C106.148 24.3 105.691 23.8333 105.355 23.236C105.028 22.6293 104.865 21.9293 104.865 21.136C104.865 20.3427 105.023 19.6473 105.341 19.05C105.667 18.4433 106.12 17.9767 106.699 17.65C107.287 17.3233 107.959 17.16 108.715 17.16C109.443 17.16 110.091 17.3187 110.661 17.636C111.23 17.9533 111.673 18.4013 111.991 18.98C112.308 19.5493 112.467 20.2073 112.467 20.954ZM110.801 20.45C110.791 19.862 110.581 19.3907 110.171 19.036C109.76 18.6813 109.251 18.504 108.645 18.504C108.094 18.504 107.623 18.6813 107.231 19.036C106.839 19.3813 106.605 19.8527 106.531 20.45H110.801Z" fill="white"/>
<defs>
<linearGradient id="paint0_linear_109_1438" x1="65" y1="0" x2="65" y2="40" gradientUnits="userSpaceOnUse">
<stop stop-color="#00A1FF"/>
<stop offset="1" stop-color="#0063F5"/>
</linearGradient>
</defs>
</svg>
