<svg width="24" height="27" viewBox="0 0 24 27" fill="none" xmlns="http://www.w3.org/2000/svg">
<path d="M5.3001 16.5996L1.6001 23.0996H5.0001L6.7001 25.9996L10.5001 19.3996" stroke="#FF9A00" stroke-width="1.5" stroke-miterlimit="10" stroke-linecap="round" stroke-linejoin="round"/>
<path d="M13.5 19.3996L17.4 25.9996L19 23.0996H22.4L18.7 16.5996" stroke="#FF9A00" stroke-width="1.5" stroke-miterlimit="10" stroke-linecap="round" stroke-linejoin="round"/>
<path d="M12.0003 19.4C17.0813 19.4 21.2003 15.281 21.2003 10.2C21.2003 5.11898 17.0813 1 12.0003 1C6.91927 1 2.80029 5.11898 2.80029 10.2C2.80029 15.281 6.91927 19.4 12.0003 19.4Z" stroke="#FF9A00" stroke-width="1.5" stroke-miterlimit="10" stroke-linecap="round" stroke-linejoin="round"/>
<path d="M11.9999 13.7L8.1999 15.7L8.8999 11.4L5.8999 8.5L10.0999 7.8L11.9999 4L13.8999 7.8L18.0999 8.5L15.0999 11.4L15.7999 15.7L11.9999 13.7Z" stroke="#FF9A00" stroke-width="1.5" stroke-miterlimit="10" stroke-linecap="round" stroke-linejoin="round"/>
</svg>
