<svg width="46" height="37" viewBox="0 0 46 37" fill="none" xmlns="http://www.w3.org/2000/svg">
<path d="M44.136 8.34384L38.2883 2.49619C38.0744 2.28225 37.8605 2.21094 37.5752 2.21094C37.29 2.21094 37.076 2.28225 36.8621 2.49619L17.3937 22.0359L8.6222 13.1931C8.26564 12.8365 7.62382 12.8365 7.26726 13.1931L1.9188 18.5416C1.84748 18.6129 1.77617 18.7555 1.70486 18.8981C1.63355 19.0408 1.63354 19.1121 1.63354 19.2547C1.63354 19.3973 1.63355 19.5399 1.70486 19.6113C1.77617 19.7539 1.84748 19.8252 1.9188 19.9678L17.1797 35.2288L17.2511 35.3001C17.465 35.514 17.6789 35.5853 17.9642 35.5853C18.2494 35.5853 18.4634 35.514 18.6773 35.3001L44.2073 9.77009C44.5639 9.34222 44.5639 8.77171 44.136 8.34384Z" stroke="#FF9A00" stroke-width="2.5" stroke-miterlimit="10" stroke-linecap="round" stroke-linejoin="round"/>
</svg>
