<svg width="42" height="49" viewBox="0 0 42 49" fill="none" xmlns="http://www.w3.org/2000/svg">
<path d="M21.085 1.83398L1.83419 9.91932V22.3682C1.83419 22.3682 -0.283403 37.5121 21.085 46.7525" stroke="#FF9A00" stroke-width="2.5" stroke-miterlimit="10" stroke-linecap="round" stroke-linejoin="round"/>
<path d="M21.085 1.83398L40.3358 9.91932V22.3682C40.3358 22.3682 42.4534 37.5121 21.085 46.7525" stroke="#FF9A00" stroke-width="2.5" stroke-miterlimit="10" stroke-linecap="round" stroke-linejoin="round"/>
<path d="M28.0795 18.7109H14.1548C13.7697 18.7109 13.5131 19.0318 13.5131 19.3526V28.0797C13.5131 31.224 16.0798 33.7266 19.16 33.7266H23.0101C26.1544 33.7266 28.657 31.1598 28.657 28.0797V19.3526C28.7212 18.9676 28.4003 18.7109 28.0795 18.7109Z" stroke="#FF9A00" stroke-width="2.5" stroke-miterlimit="10" stroke-linecap="round" stroke-linejoin="round"/>
<path d="M24.9352 18.6466V14.7964C24.9352 12.6789 23.2026 10.9463 21.085 10.9463C18.9674 10.9463 17.2349 12.6789 17.2349 14.7964V18.6466" stroke="#FF9A00" stroke-width="2.5" stroke-miterlimit="10" stroke-linecap="round" stroke-linejoin="round"/>
<path d="M21.0851 27.0523V23.6514" stroke="#FF9A00" stroke-width="2.5" stroke-miterlimit="10" stroke-linecap="round" stroke-linejoin="round"/>
</svg>
