<svg width="24" height="27" viewBox="0 0 24 27" fill="none" xmlns="http://www.w3.org/2000/svg">
<path d="M12 14C15.5899 14 18.5 11.0899 18.5 7.5C18.5 3.91015 15.5899 1 12 1C8.41015 1 5.5 3.91015 5.5 7.5C5.5 11.0899 8.41015 14 12 14Z" stroke="#00A1FF" stroke-width="1.5" stroke-miterlimit="10" stroke-linecap="round" stroke-linejoin="round"/>
<path d="M22.9001 26C22.4001 19.2 17.7001 14 12.0001 14C6.3001 14 1.6001 19.2 1.1001 26H22.9001Z" stroke="#00A1FF" stroke-width="1.5" stroke-miterlimit="10" stroke-linecap="round" stroke-linejoin="round"/>
<path d="M13.3001 13.9004H10.6001V17.0004H13.3001V13.9004Z" stroke="#00A1FF" stroke-width="1.5" stroke-miterlimit="10" stroke-linecap="round" stroke-linejoin="round"/>
<path d="M13.4001 17H10.6001L9.6001 23.5L12.0001 26L14.4001 23.5L13.4001 17Z" stroke="#00A1FF" stroke-width="1.5" stroke-miterlimit="10" stroke-linecap="round" stroke-linejoin="round"/>
</svg>
