<svg width="41" height="42" viewBox="0 0 41 42" fill="none" xmlns="http://www.w3.org/2000/svg">
<path d="M9.47374 18.5085C12.6051 18.5085 15.1435 15.9701 15.1435 12.8387C15.1435 9.70739 12.6051 7.16895 9.47374 7.16895C6.3424 7.16895 3.80396 9.70739 3.80396 12.8387C3.80396 15.9701 6.3424 18.5085 9.47374 18.5085Z" stroke="#0063F5" stroke-width="2" stroke-miterlimit="10" stroke-linecap="round" stroke-linejoin="round"/>
<path d="M27.3553 18.5705C32.0007 18.5705 35.7665 14.8046 35.7665 10.1593C35.7665 5.51388 32.0007 1.74805 27.3553 1.74805C22.7099 1.74805 18.9441 5.51388 18.9441 10.1593C18.9441 14.8046 22.7099 18.5705 27.3553 18.5705Z" stroke="#0063F5" stroke-width="2" stroke-miterlimit="10" stroke-linecap="round" stroke-linejoin="round"/>
<path d="M27.3552 18.5703C20.4393 18.5703 14.8318 24.1778 14.8318 31.0937V40.2526H39.8785V31.0937C39.8785 24.1778 34.271 18.5703 27.3552 18.5703Z" stroke="#0063F5" stroke-width="2" stroke-miterlimit="10" stroke-linecap="round" stroke-linejoin="round"/>
<path d="M14.8318 31.0935C14.8318 28.352 15.7041 25.7975 17.2617 23.7415C16.0156 20.6885 12.9626 18.5078 9.47352 18.5078C4.80062 18.5078 1 22.3084 1 26.919V33.0873H14.8318V31.0935Z" stroke="#0063F5" stroke-width="2" stroke-miterlimit="10" stroke-linecap="round" stroke-linejoin="round"/>
</svg>
