<svg width="46" height="52" viewBox="0 0 46 52" fill="none" xmlns="http://www.w3.org/2000/svg">
<path d="M23.0349 41.4062V10.0078" stroke="#0063F5" stroke-width="2" stroke-miterlimit="10" stroke-linecap="round" stroke-linejoin="round"/>
<path d="M23.0354 50.4174C25.5237 50.4174 27.541 48.4002 27.541 45.9118C27.541 43.4235 25.5237 41.4062 23.0354 41.4062C20.547 41.4062 18.5298 43.4235 18.5298 45.9118C18.5298 48.4002 20.547 50.4174 23.0354 50.4174Z" stroke="#0063F5" stroke-width="2" stroke-miterlimit="10" stroke-linecap="round" stroke-linejoin="round"/>
<path d="M23.0354 10.0112C25.5237 10.0112 27.541 7.99396 27.541 5.50559C27.541 3.01722 25.5237 1 23.0354 1C20.547 1 18.5298 3.01722 18.5298 5.50559C18.5298 7.99396 20.547 10.0112 23.0354 10.0112Z" stroke="#0063F5" stroke-width="2" stroke-miterlimit="10" stroke-linecap="round" stroke-linejoin="round"/>
<path d="M36.6224 17.8281L9.37769 33.5977" stroke="#0063F5" stroke-width="2" stroke-miterlimit="10" stroke-linecap="round" stroke-linejoin="round"/>
<path d="M40.4944 20.0815C42.9827 20.0815 45 18.0643 45 15.5759C45 13.0875 42.9827 11.0703 40.4944 11.0703C38.006 11.0703 35.9888 13.0875 35.9888 15.5759C35.9888 18.0643 38.006 20.0815 40.4944 20.0815Z" stroke="#0063F5" stroke-width="2" stroke-miterlimit="10" stroke-linecap="round" stroke-linejoin="round"/>
<path d="M5.50559 40.3549C7.99396 40.3549 10.0112 38.3377 10.0112 35.8493C10.0112 33.361 7.99396 31.3438 5.50559 31.3438C3.01722 31.3438 1 33.361 1 35.8493C1 38.3377 3.01722 40.3549 5.50559 40.3549Z" stroke="#0063F5" stroke-width="2" stroke-miterlimit="10" stroke-linecap="round" stroke-linejoin="round"/>
<path d="M9.37769 17.8281L36.6224 33.5977" stroke="#0063F5" stroke-width="2" stroke-miterlimit="10" stroke-linecap="round" stroke-linejoin="round"/>
<path d="M5.50559 20.0815C7.99396 20.0815 10.0112 18.0643 10.0112 15.5759C10.0112 13.0875 7.99396 11.0703 5.50559 11.0703C3.01722 11.0703 1 13.0875 1 15.5759C1 18.0643 3.01722 20.0815 5.50559 20.0815Z" stroke="#0063F5" stroke-width="2" stroke-miterlimit="10" stroke-linecap="round" stroke-linejoin="round"/>
<path d="M40.4944 40.3549C42.9827 40.3549 45 38.3377 45 35.8493C45 33.361 42.9827 31.3438 40.4944 31.3438C38.006 31.3438 35.9888 33.361 35.9888 35.8493C35.9888 38.3377 38.006 40.3549 40.4944 40.3549Z" stroke="#0063F5" stroke-width="2" stroke-miterlimit="10" stroke-linecap="round" stroke-linejoin="round"/>
<path d="M33.2288 25.6814L23.0239 15.4766L12.8191 25.6814L23.0239 35.8863L33.2288 25.6814Z" fill="white" stroke="#0063F5" stroke-width="2" stroke-miterlimit="10" stroke-linecap="round" stroke-linejoin="round"/>
</svg>
