<svg width="47" height="47" viewBox="0 0 47 47" fill="none" xmlns="http://www.w3.org/2000/svg">
<path d="M32.5866 27.7041L27.7651 32.5255L39.5715 44.3319C40.7459 45.5063 42.6003 45.5063 43.7129 44.3319L44.3929 43.6519C45.5673 42.4775 45.5673 40.6231 44.3929 39.5104L32.5866 27.7041Z" stroke="#FF9A00" stroke-width="2.5" stroke-miterlimit="10" stroke-linecap="round" stroke-linejoin="round"/>
<path d="M18.3695 12.4355C13.6717 12.4355 9.53027 14.7844 7.05774 18.4314C9.53027 22.0166 13.6717 24.4273 18.3695 24.4273C23.0674 24.4273 27.2088 22.0784 29.6814 18.4314C27.2088 14.7844 23.0674 12.4355 18.3695 12.4355Z" stroke="#FF9A00" stroke-width="2.5" stroke-miterlimit="10" stroke-linecap="round" stroke-linejoin="round"/>
<path d="M18.3695 21.5217C20.1106 21.5217 21.522 20.1103 21.522 18.3693C21.522 16.6282 20.1106 15.2168 18.3695 15.2168C16.6285 15.2168 15.217 16.6282 15.217 18.3693C15.217 20.1103 16.6285 21.5217 18.3695 21.5217Z" stroke="#FF9A00" stroke-width="2.5" stroke-miterlimit="10" stroke-linecap="round" stroke-linejoin="round"/>
<path d="M18.3694 34.9977C27.5527 34.9977 34.9972 27.5532 34.9972 18.3699C34.9972 9.18668 27.5527 1.74219 18.3694 1.74219C9.1862 1.74219 1.7417 9.18668 1.7417 18.3699C1.7417 27.5532 9.1862 34.9977 18.3694 34.9977Z" stroke="#FF9A00" stroke-width="2.5" stroke-miterlimit="10" stroke-linecap="round" stroke-linejoin="round"/>
</svg>
