<svg width="28" height="27" viewBox="0 0 28 27" fill="none" xmlns="http://www.w3.org/2000/svg">
<path d="M10.4 7.4C15.3153 7.4 19.3 5.96731 19.3 4.2C19.3 2.43269 15.3153 1 10.4 1C5.48467 1 1.5 2.43269 1.5 4.2C1.5 5.96731 5.48467 7.4 10.4 7.4Z" stroke="#0063F5" stroke-width="1.5" stroke-miterlimit="10" stroke-linecap="round" stroke-linejoin="round"/>
<path d="M18.2998 10.2992C18.9998 9.89922 19.3998 9.29922 19.3998 8.79922V4.19922" stroke="#0063F5" stroke-width="1.5" stroke-miterlimit="10" stroke-linecap="round" stroke-linejoin="round"/>
<path d="M1.5 4.19922V8.79922C1.5 10.4992 5.1 11.7992 9.7 11.8992" stroke="#0063F5" stroke-width="1.5" stroke-miterlimit="10" stroke-linecap="round" stroke-linejoin="round"/>
<path d="M19.3999 10.3004V8.90039" stroke="#0063F5" stroke-width="1.5" stroke-miterlimit="10" stroke-linecap="round" stroke-linejoin="round"/>
<path d="M1.5 8.90039V13.5004C1.5 15.0004 4.6 16.3004 8.6 16.6004" stroke="#0063F5" stroke-width="1.5" stroke-miterlimit="10" stroke-linecap="round" stroke-linejoin="round"/>
<path d="M1.5 13.5996V18.1996C1.5 19.6996 4.6 20.9996 8.6 21.2996" stroke="#0063F5" stroke-width="1.5" stroke-miterlimit="10" stroke-linecap="round" stroke-linejoin="round"/>
<path d="M17.6002 16.5992C22.5155 16.5992 26.5002 15.1665 26.5002 13.3992C26.5002 11.6319 22.5155 10.1992 17.6002 10.1992C12.6849 10.1992 8.7002 11.6319 8.7002 13.3992C8.7002 15.1665 12.6849 16.5992 17.6002 16.5992Z" stroke="#0063F5" stroke-width="1.5" stroke-miterlimit="10" stroke-linecap="round" stroke-linejoin="round"/>
<path d="M8.6001 13.3984V17.9984C8.6001 19.6984 12.6001 21.1984 17.5001 21.1984C22.4001 21.1984 26.4001 19.7984 26.4001 17.9984V13.3984" stroke="#0063F5" stroke-width="1.5" stroke-miterlimit="10" stroke-linecap="round" stroke-linejoin="round"/>
<path d="M8.6001 18.1992V22.7992C8.6001 24.4992 12.6001 25.9992 17.5001 25.9992C22.4001 25.9992 26.4001 24.5992 26.4001 22.7992V18.1992" stroke="#0063F5" stroke-width="1.5" stroke-miterlimit="10" stroke-linecap="round" stroke-linejoin="round"/>
</svg>
