<svg width="282" height="68" viewBox="0 0 282 68" fill="none" xmlns="http://www.w3.org/2000/svg">
<path d="M21.563 27H15.291L6.939 14.392V27H0.667V4.44H6.939L15.291 17.208V4.44H21.563V27ZM42.2878 17.816C42.2878 18.3067 42.2558 18.7973 42.1918 19.288H30.3198C30.3838 20.2693 30.6504 21.0053 31.1198 21.496C31.6104 21.9653 32.2291 22.2 32.9758 22.2C34.0211 22.2 34.7678 21.7307 35.2158 20.792H41.9038C41.6264 22.0293 41.0824 23.1387 40.2718 24.12C39.4824 25.08 38.4798 25.8373 37.2638 26.392C36.0478 26.9467 34.7038 27.224 33.2318 27.224C31.4611 27.224 29.8824 26.8507 28.4958 26.104C27.1304 25.3573 26.0531 24.2907 25.2638 22.904C24.4958 21.5173 24.1118 19.8853 24.1118 18.008C24.1118 16.1307 24.4958 14.5093 25.2638 13.144C26.0318 11.7573 27.0984 10.6907 28.4638 9.944C29.8504 9.19733 31.4398 8.824 33.2318 8.824C35.0024 8.824 36.5704 9.18667 37.9358 9.912C39.3011 10.6373 40.3678 11.6827 41.1358 13.048C41.9038 14.392 42.2878 15.9813 42.2878 17.816ZM35.8878 16.248C35.8878 15.48 35.6318 14.8827 35.1198 14.456C34.6078 14.008 33.9678 13.784 33.1998 13.784C32.4318 13.784 31.8024 13.9973 31.3118 14.424C30.8211 14.8293 30.5011 15.4373 30.3518 16.248H35.8878ZM71.3825 9.048L66.8065 27H59.7665L57.2705 16.12L54.6785 27H47.6705L43.1265 9.048H49.3665L51.3825 20.952L54.0385 9.048H60.7585L63.5105 20.984L65.4945 9.048H71.3825Z" fill="#434343"/>
<path d="M159.88 8.888C161.949 8.888 163.592 9.58133 164.808 10.968C166.024 12.3333 166.632 14.1893 166.632 16.536V27H160.36V17.368C160.36 16.344 160.093 15.544 159.56 14.968C159.026 14.3707 158.312 14.072 157.416 14.072C156.477 14.072 155.741 14.3707 155.208 14.968C154.674 15.544 154.408 16.344 154.408 17.368V27H148.136V9.048H154.408V11.608C154.962 10.7973 155.709 10.1467 156.648 9.656C157.586 9.144 158.664 8.888 159.88 8.888ZM173.241 7.384C172.132 7.384 171.236 7.08533 170.553 6.488C169.892 5.86933 169.561 5.10133 169.561 4.184C169.561 3.24533 169.892 2.46667 170.553 1.848C171.236 1.22933 172.132 0.919998 173.241 0.919998C174.329 0.919998 175.204 1.22933 175.865 1.848C176.548 2.46667 176.889 3.24533 176.889 4.184C176.889 5.10133 176.548 5.86933 175.865 6.488C175.204 7.08533 174.329 7.384 173.241 7.384ZM176.345 9.048V27H170.073V9.048H176.345ZM190.509 21.656V27H187.789C183.202 27 180.909 24.728 180.909 20.184V14.264H178.701V9.048H180.909V4.696H187.213V9.048H190.477V14.264H187.213V20.28C187.213 20.7707 187.32 21.1227 187.533 21.336C187.768 21.5493 188.152 21.656 188.685 21.656H190.509ZM196.554 7.384C195.444 7.384 194.548 7.08533 193.866 6.488C193.204 5.86933 192.874 5.10133 192.874 4.184C192.874 3.24533 193.204 2.46667 193.866 1.848C194.548 1.22933 195.444 0.919998 196.554 0.919998C197.642 0.919998 198.516 1.22933 199.178 1.848C199.86 2.46667 200.202 3.24533 200.202 4.184C200.202 5.10133 199.86 5.86933 199.178 6.488C198.516 7.08533 197.642 7.384 196.554 7.384ZM199.658 9.048V27H193.386V9.048H199.658ZM211.582 27.224C209.79 27.224 208.179 26.8507 206.75 26.104C205.342 25.3573 204.232 24.2907 203.422 22.904C202.611 21.5173 202.206 19.8853 202.206 18.008C202.206 16.152 202.611 14.5307 203.422 13.144C204.254 11.7573 205.374 10.6907 206.782 9.944C208.211 9.19733 209.822 8.824 211.614 8.824C213.406 8.824 215.006 9.19733 216.414 9.944C217.843 10.6907 218.963 11.7573 219.774 13.144C220.606 14.5307 221.022 16.152 221.022 18.008C221.022 19.864 220.606 21.496 219.774 22.904C218.963 24.2907 217.843 25.3573 216.414 26.104C214.984 26.8507 213.374 27.224 211.582 27.224ZM211.582 21.784C212.456 21.784 213.182 21.464 213.758 20.824C214.355 20.1627 214.654 19.224 214.654 18.008C214.654 16.792 214.355 15.864 213.758 15.224C213.182 14.584 212.467 14.264 211.614 14.264C210.76 14.264 210.046 14.584 209.47 15.224C208.894 15.864 208.606 16.792 208.606 18.008C208.606 19.2453 208.883 20.184 209.438 20.824C209.992 21.464 210.707 21.784 211.582 21.784ZM235.317 8.888C237.387 8.888 239.029 9.58133 240.245 10.968C241.461 12.3333 242.069 14.1893 242.069 16.536V27H235.797V17.368C235.797 16.344 235.531 15.544 234.997 14.968C234.464 14.3707 233.749 14.072 232.853 14.072C231.915 14.072 231.179 14.3707 230.645 14.968C230.112 15.544 229.845 16.344 229.845 17.368V27H223.573V9.048H229.845V11.608C230.4 10.7973 231.147 10.1467 232.085 9.656C233.024 9.144 234.101 8.888 235.317 8.888ZM259.988 27.224C258.196 27.224 256.585 26.8507 255.156 26.104C253.748 25.3573 252.638 24.2907 251.828 22.904C251.017 21.5173 250.612 19.8853 250.612 18.008C250.612 16.152 251.017 14.5307 251.828 13.144C252.66 11.7573 253.78 10.6907 255.188 9.944C256.617 9.19733 258.228 8.824 260.02 8.824C261.812 8.824 263.412 9.19733 264.82 9.944C266.249 10.6907 267.369 11.7573 268.18 13.144C269.012 14.5307 269.428 16.152 269.428 18.008C269.428 19.864 269.012 21.496 268.18 22.904C267.369 24.2907 266.249 25.3573 264.82 26.104C263.39 26.8507 261.78 27.224 259.988 27.224ZM259.988 21.784C260.862 21.784 261.588 21.464 262.164 20.824C262.761 20.1627 263.06 19.224 263.06 18.008C263.06 16.792 262.761 15.864 262.164 15.224C261.588 14.584 260.873 14.264 260.02 14.264C259.166 14.264 258.452 14.584 257.876 15.224C257.3 15.864 257.012 16.792 257.012 18.008C257.012 19.2453 257.289 20.184 257.844 20.824C258.398 21.464 259.113 21.784 259.988 21.784ZM281.676 14.264H278.86V27H272.556V14.264H270.604V9.048H272.556V8.888C272.556 6.584 273.228 4.824 274.572 3.608C275.937 2.37067 277.889 1.752 280.428 1.752C280.94 1.752 281.334 1.76267 281.612 1.784V7.128C281.441 7.10667 281.206 7.096 280.908 7.096C280.225 7.096 279.724 7.256 279.404 7.576C279.084 7.87466 278.902 8.36533 278.86 9.048H281.676V14.264Z" fill="#494642"/>
<path d="M88.22 4.44C90.588 4.44 92.6573 4.92 94.428 5.88C96.22 6.81867 97.596 8.14133 98.556 9.848C99.516 11.5547 99.996 13.5067 99.996 15.704C99.996 17.88 99.5053 19.8213 98.524 21.528C97.564 23.2347 96.188 24.5787 94.396 25.56C92.6253 26.52 90.5667 27 88.22 27H79.292V4.44H88.22ZM87.74 21.464C89.5747 21.464 91.0147 20.9627 92.06 19.96C93.1053 18.9573 93.628 17.5387 93.628 15.704C93.628 13.848 93.1053 12.4187 92.06 11.416C91.0147 10.392 89.5747 9.88 87.74 9.88H85.564V21.464H87.74ZM109.095 9.464V13.144H116.295V17.912H109.095V21.976H117.255V27H102.823V4.44H117.255V9.464H109.095ZM135.651 4.44V9.432H126.627V13.4H133.283V18.168H126.627V27H120.355V4.44H135.651ZM144.564 4.44V27H138.292V4.44H144.564Z" fill="url(#paint0_linear_115_602)"/>
<path d="M48.8506 47.384C47.7413 47.384 46.8453 47.0853 46.1626 46.488C45.5013 45.8693 45.1706 45.1013 45.1706 44.184C45.1706 43.2453 45.5013 42.4667 46.1626 41.848C46.8453 41.2293 47.7413 40.92 48.8506 40.92C49.9386 40.92 50.8133 41.2293 51.4746 41.848C52.1573 42.4667 52.4986 43.2453 52.4986 44.184C52.4986 45.1013 52.1573 45.8693 51.4746 46.488C50.8133 47.0853 49.9386 47.384 48.8506 47.384ZM51.9546 49.048V67H45.6826V49.048H51.9546ZM67.2704 48.888C69.3397 48.888 70.9824 49.5813 72.1984 50.968C73.4144 52.3333 74.0224 54.1893 74.0224 56.536V67H67.7504V57.368C67.7504 56.344 67.4837 55.544 66.9504 54.968C66.417 54.3707 65.7024 54.072 64.8064 54.072C63.8677 54.072 63.1317 54.3707 62.5984 54.968C62.065 55.544 61.7984 56.344 61.7984 57.368V67H55.5264V49.048H61.7984V51.608C62.353 50.7973 63.0997 50.1467 64.0384 49.656C64.977 49.144 66.0544 48.888 67.2704 48.888ZM86.0719 61.08L89.4319 49.048H96.1199L89.9439 67H82.1359L75.9599 49.048H82.6479L86.0719 61.08ZM115.397 57.816C115.397 58.3067 115.365 58.7973 115.301 59.288H103.429C103.493 60.2693 103.76 61.0053 104.229 61.496C104.72 61.9653 105.338 62.2 106.085 62.2C107.13 62.2 107.877 61.7307 108.325 60.792H115.013C114.736 62.0293 114.192 63.1387 113.381 64.12C112.592 65.08 111.589 65.8373 110.373 66.392C109.157 66.9467 107.813 67.224 106.341 67.224C104.57 67.224 102.992 66.8507 101.605 66.104C100.24 65.3573 99.1625 64.2907 98.3731 62.904C97.6051 61.5173 97.2211 59.8853 97.2211 58.008C97.2211 56.1307 97.6051 54.5093 98.3731 53.144C99.1411 51.7573 100.208 50.6907 101.573 49.944C102.96 49.1973 104.549 48.824 106.341 48.824C108.112 48.824 109.68 49.1867 111.045 49.912C112.41 50.6373 113.477 51.6827 114.245 53.048C115.013 54.392 115.397 55.9813 115.397 57.816ZM108.997 56.248C108.997 55.48 108.741 54.8827 108.229 54.456C107.717 54.008 107.077 53.784 106.309 53.784C105.541 53.784 104.912 53.9973 104.421 54.424C103.93 54.8293 103.61 55.4373 103.461 56.248H108.997ZM125.612 67.224C123.991 67.224 122.54 66.9573 121.26 66.424C120.001 65.8693 118.999 65.1227 118.252 64.184C117.527 63.224 117.121 62.1467 117.036 60.952H123.116C123.201 61.528 123.468 61.976 123.916 62.296C124.364 62.616 124.919 62.776 125.58 62.776C126.092 62.776 126.497 62.6693 126.796 62.456C127.095 62.2427 127.244 61.9653 127.244 61.624C127.244 61.176 126.999 60.8453 126.508 60.632C126.017 60.4187 125.207 60.184 124.076 59.928C122.796 59.672 121.729 59.384 120.876 59.064C120.023 58.744 119.276 58.2213 118.636 57.496C118.017 56.7707 117.708 55.7893 117.708 54.552C117.708 53.4853 117.996 52.5253 118.572 51.672C119.148 50.7973 119.991 50.104 121.1 49.592C122.231 49.08 123.585 48.824 125.164 48.824C127.511 48.824 129.356 49.4 130.7 50.552C132.044 51.704 132.823 53.2187 133.036 55.096H127.372C127.265 54.52 127.009 54.0827 126.604 53.784C126.22 53.464 125.697 53.304 125.036 53.304C124.524 53.304 124.129 53.4 123.852 53.592C123.596 53.784 123.468 54.0507 123.468 54.392C123.468 54.8187 123.713 55.1493 124.204 55.384C124.695 55.5973 125.484 55.8213 126.572 56.056C127.873 56.3333 128.951 56.6427 129.804 56.984C130.679 57.3253 131.436 57.88 132.076 58.648C132.737 59.3947 133.068 60.4187 133.068 61.72C133.068 62.7653 132.759 63.704 132.14 64.536C131.543 65.368 130.679 66.0293 129.548 66.52C128.439 66.9893 127.127 67.224 125.612 67.224ZM146.743 61.656V67H144.023C139.437 67 137.143 64.728 137.143 60.184V54.264H134.935V49.048H137.143V44.696H143.447V49.048H146.711V54.264H143.447V60.28C143.447 60.7707 143.554 61.1227 143.767 61.336C144.002 61.5493 144.386 61.656 144.919 61.656H146.743ZM173.076 48.888C175.337 48.888 177.108 49.5707 178.388 50.936C179.689 52.3013 180.34 54.168 180.34 56.536V67H174.068V57.368C174.068 56.408 173.801 55.6613 173.268 55.128C172.735 54.5947 172.009 54.328 171.092 54.328C170.175 54.328 169.449 54.5947 168.916 55.128C168.383 55.6613 168.116 56.408 168.116 57.368V67H161.844V57.368C161.844 56.408 161.577 55.6613 161.044 55.128C160.532 54.5947 159.817 54.328 158.9 54.328C157.961 54.328 157.225 54.5947 156.692 55.128C156.159 55.6613 155.892 56.408 155.892 57.368V67H149.62V49.048H155.892V51.416C156.447 50.648 157.161 50.04 158.036 49.592C158.932 49.1227 159.956 48.888 161.108 48.888C162.431 48.888 163.604 49.176 164.628 49.752C165.673 50.328 166.495 51.1387 167.092 52.184C167.732 51.2027 168.575 50.4133 169.62 49.816C170.665 49.1973 171.817 48.888 173.076 48.888ZM200.928 57.816C200.928 58.3067 200.896 58.7973 200.832 59.288H188.96C189.024 60.2693 189.291 61.0053 189.76 61.496C190.251 61.9653 190.87 62.2 191.616 62.2C192.662 62.2 193.408 61.7307 193.856 60.792H200.544C200.267 62.0293 199.723 63.1387 198.912 64.12C198.123 65.08 197.12 65.8373 195.904 66.392C194.688 66.9467 193.344 67.224 191.872 67.224C190.102 67.224 188.523 66.8507 187.136 66.104C185.771 65.3573 184.694 64.2907 183.904 62.904C183.136 61.5173 182.752 59.8853 182.752 58.008C182.752 56.1307 183.136 54.5093 183.904 53.144C184.672 51.7573 185.739 50.6907 187.104 49.944C188.491 49.1973 190.08 48.824 191.872 48.824C193.643 48.824 195.211 49.1867 196.576 49.912C197.942 50.6373 199.008 51.6827 199.776 53.048C200.544 54.392 200.928 55.9813 200.928 57.816ZM194.528 56.248C194.528 55.48 194.272 54.8827 193.76 54.456C193.248 54.008 192.608 53.784 191.84 53.784C191.072 53.784 190.443 53.9973 189.952 54.424C189.462 54.8293 189.142 55.4373 188.992 56.248H194.528ZM215.239 48.888C217.308 48.888 218.951 49.5813 220.167 50.968C221.383 52.3333 221.991 54.1893 221.991 56.536V67H215.719V57.368C215.719 56.344 215.452 55.544 214.919 54.968C214.386 54.3707 213.671 54.072 212.775 54.072C211.836 54.072 211.1 54.3707 210.567 54.968C210.034 55.544 209.767 56.344 209.767 57.368V67H203.495V49.048H209.767V51.608C210.322 50.7973 211.068 50.1467 212.007 49.656C212.946 49.144 214.023 48.888 215.239 48.888ZM236.025 61.656V67H233.305C228.718 67 226.425 64.728 226.425 60.184V54.264H224.217V49.048H226.425V44.696H232.729V49.048H235.993V54.264H232.729V60.28C232.729 60.7707 232.835 61.1227 233.049 61.336C233.283 61.5493 233.667 61.656 234.201 61.656H236.025Z" fill="url(#paint1_linear_115_602)"/>
<defs>
<linearGradient id="paint0_linear_115_602" x1="140.5" y1="-4" x2="140.5" y2="68" gradientUnits="userSpaceOnUse">
<stop stop-color="#00A1FF"/>
<stop offset="1" stop-color="#0063F5"/>
</linearGradient>
<linearGradient id="paint1_linear_115_602" x1="-23" y1="32" x2="304" y2="32" gradientUnits="userSpaceOnUse">
<stop stop-color="#FF9A00"/>
<stop offset="1" stop-color="#FFDC03"/>
</linearGradient>
</defs>
</svg>
