<svg width="933" height="52" viewBox="0 0 933 52" fill="none" xmlns="http://www.w3.org/2000/svg">
<path d="M38.5928 51H29.6328L9.34475 20.344V51H0.38475V6.264H9.34475L29.6328 36.984V6.264H38.5928V51ZM80.4073 32.504C80.4073 33.784 80.3219 34.936 80.1513 35.96H54.2313C54.4446 38.52 55.3406 40.5253 56.9193 41.976C58.4979 43.4267 60.4393 44.152 62.7433 44.152C66.0713 44.152 68.4393 42.7227 69.8473 39.864H79.5113C78.4873 43.2773 76.5246 46.0933 73.6233 48.312C70.7219 50.488 67.1593 51.576 62.9353 51.576C59.5219 51.576 56.4499 50.8293 53.7193 49.336C51.0313 47.8 48.9193 45.6453 47.3833 42.872C45.8899 40.0987 45.1432 36.8987 45.1432 33.272C45.1432 29.6027 45.8899 26.3813 47.3833 23.608C48.8766 20.8347 50.9673 18.7013 53.6553 17.208C56.3433 15.7147 59.4366 14.968 62.9353 14.968C66.3059 14.968 69.3139 15.6933 71.9593 17.144C74.6473 18.5947 76.7166 20.664 78.1673 23.352C79.6606 25.9973 80.4073 29.048 80.4073 32.504ZM71.1273 29.944C71.0846 27.64 70.2526 25.8053 68.6313 24.44C67.0099 23.032 65.0259 22.328 62.6793 22.328C60.4606 22.328 58.5833 23.0107 57.0473 24.376C55.5539 25.6987 54.6366 27.5547 54.2953 29.944H71.1273ZM136.099 15.544L125.731 51H116.067L109.603 26.232L103.139 51H93.4113L82.9793 15.544H92.0673L98.3393 42.552L105.123 15.544H114.595L121.251 42.488L127.523 15.544H136.099Z" fill="#434343"/>
<path d="M307.533 15.032C311.757 15.032 315.17 16.376 317.773 19.064C320.375 21.7093 321.677 25.4213 321.677 30.2V51H312.717V31.416C312.717 28.6 312.013 26.4453 310.605 24.952C309.197 23.416 307.277 22.648 304.845 22.648C302.37 22.648 300.407 23.416 298.957 24.952C297.549 26.4453 296.845 28.6 296.845 31.416V51H287.885V15.544H296.845V19.96C298.039 18.424 299.554 17.2293 301.389 16.376C303.266 15.48 305.314 15.032 307.533 15.032ZM334.741 11.32C333.163 11.32 331.84 10.8293 330.773 9.848C329.749 8.824 329.237 7.56533 329.237 6.072C329.237 4.57866 329.749 3.34133 330.773 2.36C331.84 1.336 333.163 0.823997 334.741 0.823997C336.32 0.823997 337.621 1.336 338.645 2.36C339.712 3.34133 340.245 4.57866 340.245 6.072C340.245 7.56533 339.712 8.824 338.645 9.848C337.621 10.8293 336.32 11.32 334.741 11.32ZM339.157 15.544V51H330.197V15.544H339.157ZM358.442 22.904V40.056C358.442 41.2507 358.719 42.1253 359.274 42.68C359.871 43.192 360.852 43.448 362.218 43.448H366.378V51H360.746C353.194 51 349.418 47.3307 349.418 39.992V22.904H345.194V15.544H349.418V6.776H358.442V15.544H366.378V22.904H358.442ZM377.366 11.32C375.788 11.32 374.465 10.8293 373.398 9.848C372.374 8.824 371.862 7.56533 371.862 6.072C371.862 4.57866 372.374 3.34133 373.398 2.36C374.465 1.336 375.788 0.823997 377.366 0.823997C378.945 0.823997 380.246 1.336 381.27 2.36C382.337 3.34133 382.87 4.57866 382.87 6.072C382.87 7.56533 382.337 8.824 381.27 9.848C380.246 10.8293 378.945 11.32 377.366 11.32ZM381.782 15.544V51H372.822V15.544H381.782ZM406.379 51.576C402.965 51.576 399.893 50.8293 397.163 49.336C394.432 47.8 392.277 45.6453 390.699 42.872C389.163 40.0987 388.395 36.8987 388.395 33.272C388.395 29.6453 389.184 26.4453 390.763 23.672C392.384 20.8987 394.581 18.7653 397.355 17.272C400.128 15.736 403.221 14.968 406.635 14.968C410.048 14.968 413.141 15.736 415.915 17.272C418.688 18.7653 420.864 20.8987 422.443 23.672C424.064 26.4453 424.875 29.6453 424.875 33.272C424.875 36.8987 424.043 40.0987 422.379 42.872C420.757 45.6453 418.539 47.8 415.723 49.336C412.949 50.8293 409.835 51.576 406.379 51.576ZM406.379 43.768C408 43.768 409.515 43.384 410.923 42.616C412.373 41.8053 413.525 40.6107 414.379 39.032C415.232 37.4533 415.659 35.5333 415.659 33.272C415.659 29.9013 414.763 27.32 412.971 25.528C411.221 23.6933 409.067 22.776 406.507 22.776C403.947 22.776 401.792 23.6933 400.043 25.528C398.336 27.32 397.483 29.9013 397.483 33.272C397.483 36.6427 398.315 39.2453 399.979 41.08C401.685 42.872 403.819 43.768 406.379 43.768ZM451.095 15.032C455.319 15.032 458.733 16.376 461.335 19.064C463.938 21.7093 465.239 25.4213 465.239 30.2V51H456.279V31.416C456.279 28.6 455.575 26.4453 454.167 24.952C452.759 23.416 450.839 22.648 448.407 22.648C445.933 22.648 443.97 23.416 442.519 24.952C441.111 26.4453 440.407 28.6 440.407 31.416V51H431.447V15.544H440.407V19.96C441.602 18.424 443.117 17.2293 444.951 16.376C446.829 15.48 448.877 15.032 451.095 15.032ZM504.754 51.576C501.34 51.576 498.268 50.8293 495.538 49.336C492.807 47.8 490.652 45.6453 489.074 42.872C487.538 40.0987 486.77 36.8987 486.77 33.272C486.77 29.6453 487.559 26.4453 489.138 23.672C490.759 20.8987 492.956 18.7653 495.73 17.272C498.503 15.736 501.596 14.968 505.01 14.968C508.423 14.968 511.516 15.736 514.29 17.272C517.063 18.7653 519.239 20.8987 520.818 23.672C522.439 26.4453 523.25 29.6453 523.25 33.272C523.25 36.8987 522.418 40.0987 520.754 42.872C519.132 45.6453 516.914 47.8 514.098 49.336C511.324 50.8293 508.21 51.576 504.754 51.576ZM504.754 43.768C506.375 43.768 507.89 43.384 509.298 42.616C510.748 41.8053 511.9 40.6107 512.754 39.032C513.607 37.4533 514.034 35.5333 514.034 33.272C514.034 29.9013 513.138 27.32 511.346 25.528C509.596 23.6933 507.442 22.776 504.882 22.776C502.322 22.776 500.167 23.6933 498.418 25.528C496.711 27.32 495.858 29.9013 495.858 33.272C495.858 36.6427 496.69 39.2453 498.354 41.08C500.06 42.872 502.194 43.768 504.754 43.768ZM546.078 22.904H539.87V51H530.782V22.904H526.75V15.544H530.782V13.752C530.782 9.4 532.02 6.2 534.494 4.152C536.969 2.104 540.702 1.144 545.694 1.272V8.824C543.518 8.78133 542.004 9.144 541.15 9.912C540.297 10.68 539.87 12.0667 539.87 14.072V15.544H546.078V22.904Z" fill="#494642"/>
<path d="M171.813 6.328C176.507 6.328 180.624 7.24533 184.165 9.08C187.749 10.9147 190.501 13.5387 192.421 16.952C194.384 20.3227 195.365 24.248 195.365 28.728C195.365 33.208 194.384 37.1333 192.421 40.504C190.501 43.832 187.749 46.4133 184.165 48.248C180.624 50.0827 176.507 51 171.813 51H156.197V6.328H171.813ZM171.493 43.384C176.187 43.384 179.813 42.104 182.373 39.544C184.933 36.984 186.213 33.3787 186.213 28.728C186.213 24.0773 184.933 20.4507 182.373 17.848C179.813 15.2027 176.187 13.88 171.493 13.88H165.157V43.384H171.493ZM211.032 13.56V24.76H226.072V31.864H211.032V43.704H227.992V51H202.072V6.264H227.992V13.56H211.032ZM263.719 6.328V13.56H245.095V25.016H259.367V32.12H245.095V51H236.135V6.328H263.719ZM279.032 6.328V51H270.072V6.328H279.032Z" fill="url(#paint0_linear_109_1345)"/>
<path d="M571.679 11.32C570.1 11.32 568.777 10.8293 567.711 9.848C566.687 8.824 566.175 7.56533 566.175 6.072C566.175 4.57866 566.687 3.34133 567.711 2.36C568.777 1.336 570.1 0.823997 571.679 0.823997C573.257 0.823997 574.559 1.336 575.583 2.36C576.649 3.34133 577.183 4.57866 577.183 6.072C577.183 7.56533 576.649 8.824 575.583 9.848C574.559 10.8293 573.257 11.32 571.679 11.32ZM576.095 15.544V51H567.135V15.544H576.095ZM604.595 15.032C608.819 15.032 612.233 16.376 614.835 19.064C617.438 21.7093 618.739 25.4213 618.739 30.2V51H609.779V31.416C609.779 28.6 609.075 26.4453 607.667 24.952C606.259 23.416 604.339 22.648 601.907 22.648C599.433 22.648 597.47 23.416 596.019 24.952C594.611 26.4453 593.907 28.6 593.907 31.416V51H584.947V15.544H593.907V19.96C595.102 18.424 596.617 17.2293 598.451 16.376C600.329 15.48 602.377 15.032 604.595 15.032ZM642.044 42.744L651.004 15.544H660.54L647.42 51H636.54L623.484 15.544H633.084L642.044 42.744ZM698.532 32.504C698.532 33.784 698.447 34.936 698.276 35.96H672.356C672.57 38.52 673.466 40.5253 675.044 41.976C676.623 43.4267 678.564 44.152 680.868 44.152C684.196 44.152 686.564 42.7227 687.972 39.864H697.636C696.612 43.2773 694.65 46.0933 691.748 48.312C688.847 50.488 685.284 51.576 681.06 51.576C677.647 51.576 674.575 50.8293 671.844 49.336C669.156 47.8 667.044 45.6453 665.508 42.872C664.015 40.0987 663.268 36.8987 663.268 33.272C663.268 29.6027 664.015 26.3813 665.508 23.608C667.002 20.8347 669.092 18.7013 671.78 17.208C674.468 15.7147 677.562 14.968 681.06 14.968C684.431 14.968 687.439 15.6933 690.084 17.144C692.772 18.5947 694.842 20.664 696.292 23.352C697.786 25.9973 698.532 29.048 698.532 32.504ZM689.252 29.944C689.21 27.64 688.378 25.8053 686.756 24.44C685.135 23.032 683.151 22.328 680.804 22.328C678.586 22.328 676.708 23.0107 675.172 24.376C673.679 25.6987 672.762 27.5547 672.42 29.944H689.252ZM718.64 51.576C715.739 51.576 713.136 51.064 710.832 50.04C708.528 48.9733 706.694 47.544 705.328 45.752C704.006 43.96 703.28 41.976 703.152 39.8H712.176C712.347 41.1653 713.008 42.296 714.16 43.192C715.355 44.088 716.827 44.536 718.576 44.536C720.283 44.536 721.606 44.1947 722.544 43.512C723.526 42.8293 724.016 41.9547 724.016 40.888C724.016 39.736 723.419 38.8827 722.224 38.328C721.072 37.7307 719.216 37.0907 716.656 36.408C714.011 35.768 711.835 35.1067 710.128 34.424C708.464 33.7413 707.014 32.696 705.776 31.288C704.582 29.88 703.984 27.9813 703.984 25.592C703.984 23.6293 704.539 21.8373 705.648 20.216C706.8 18.5947 708.422 17.3147 710.512 16.376C712.646 15.4373 715.142 14.968 718 14.968C722.224 14.968 725.595 16.0347 728.112 18.168C730.63 20.2587 732.016 23.096 732.272 26.68H723.696C723.568 25.272 722.971 24.1627 721.904 23.352C720.88 22.4987 719.494 22.072 717.744 22.072C716.123 22.072 714.864 22.3707 713.968 22.968C713.115 23.5653 712.688 24.3973 712.688 25.464C712.688 26.6587 713.286 27.576 714.48 28.216C715.675 28.8133 717.531 29.432 720.048 30.072C722.608 30.712 724.72 31.3733 726.384 32.056C728.048 32.7387 729.478 33.8053 730.672 35.256C731.91 36.664 732.55 38.5413 732.592 40.888C732.592 42.936 732.016 44.7707 730.864 46.392C729.755 48.0133 728.134 49.2933 726 50.232C723.91 51.128 721.456 51.576 718.64 51.576ZM750.379 22.904V40.056C750.379 41.2507 750.657 42.1253 751.211 42.68C751.809 43.192 752.79 43.448 754.155 43.448H758.315V51H752.683C745.131 51 741.355 47.3307 741.355 39.992V22.904H737.131V15.544H741.355V6.776H750.379V15.544H758.315V22.904H750.379ZM808.792 15.032C813.144 15.032 816.642 16.376 819.288 19.064C821.976 21.7093 823.32 25.4213 823.32 30.2V51H814.36V31.416C814.36 28.6427 813.656 26.5307 812.248 25.08C810.84 23.5867 808.92 22.84 806.488 22.84C804.056 22.84 802.114 23.5867 800.664 25.08C799.256 26.5307 798.552 28.6427 798.552 31.416V51H789.592V31.416C789.592 28.6427 788.888 26.5307 787.48 25.08C786.072 23.5867 784.152 22.84 781.72 22.84C779.245 22.84 777.282 23.5867 775.832 25.08C774.424 26.5307 773.72 28.6427 773.72 31.416V51H764.76V15.544H773.72V19.832C774.872 18.3387 776.344 17.1653 778.136 16.312C779.97 15.4587 781.976 15.032 784.152 15.032C786.925 15.032 789.4 15.6293 791.576 16.824C793.752 17.976 795.437 19.64 796.632 21.816C797.784 19.768 799.448 18.1253 801.624 16.888C803.842 15.6507 806.232 15.032 808.792 15.032ZM864.782 32.504C864.782 33.784 864.697 34.936 864.526 35.96H838.606C838.82 38.52 839.716 40.5253 841.294 41.976C842.873 43.4267 844.814 44.152 847.118 44.152C850.446 44.152 852.814 42.7227 854.222 39.864H863.886C862.862 43.2773 860.9 46.0933 857.998 48.312C855.097 50.488 851.534 51.576 847.31 51.576C843.897 51.576 840.825 50.8293 838.094 49.336C835.406 47.8 833.294 45.6453 831.758 42.872C830.265 40.0987 829.518 36.8987 829.518 33.272C829.518 29.6027 830.265 26.3813 831.758 23.608C833.252 20.8347 835.342 18.7013 838.03 17.208C840.718 15.7147 843.812 14.968 847.31 14.968C850.681 14.968 853.689 15.6933 856.334 17.144C859.022 18.5947 861.092 20.664 862.542 23.352C864.036 25.9973 864.782 29.048 864.782 32.504ZM855.502 29.944C855.46 27.64 854.628 25.8053 853.006 24.44C851.385 23.032 849.401 22.328 847.054 22.328C844.836 22.328 842.958 23.0107 841.422 24.376C839.929 25.6987 839.012 27.5547 838.67 29.944H855.502ZM890.97 15.032C895.194 15.032 898.608 16.376 901.21 19.064C903.813 21.7093 905.114 25.4213 905.114 30.2V51H896.154V31.416C896.154 28.6 895.45 26.4453 894.042 24.952C892.634 23.416 890.714 22.648 888.282 22.648C885.808 22.648 883.845 23.416 882.394 24.952C880.986 26.4453 880.282 28.6 880.282 31.416V51H871.322V15.544H880.282V19.96C881.477 18.424 882.992 17.2293 884.826 16.376C886.704 15.48 888.752 15.032 890.97 15.032ZM924.067 22.904V40.056C924.067 41.2507 924.344 42.1253 924.899 42.68C925.496 43.192 926.477 43.448 927.843 43.448H932.003V51H926.371C918.819 51 915.043 47.3307 915.043 39.992V22.904H910.819V15.544H915.043V6.776H924.067V15.544H932.003V22.904H924.067Z" fill="url(#paint1_linear_109_1345)"/>
<defs>
<linearGradient id="paint0_linear_109_1345" x1="465" y1="-3" x2="465" y2="61" gradientUnits="userSpaceOnUse">
<stop stop-color="#00A1FF"/>
<stop offset="1" stop-color="#0063F5"/>
</linearGradient>
<linearGradient id="paint1_linear_109_1345" x1="-6.5" y1="29" x2="936.5" y2="29.0001" gradientUnits="userSpaceOnUse">
<stop stop-color="#FF9A00"/>
<stop offset="1" stop-color="#FFDC03"/>
</linearGradient>
</defs>
</svg>
