<svg width="323" height="593" viewBox="0 0 323 593" fill="none" xmlns="http://www.w3.org/2000/svg">
<mask id="mask0_308_1735" style="mask-type:alpha" maskUnits="userSpaceOnUse" x="0" y="0" width="323" height="593">
<rect width="323" height="593" fill="#C4C4C4"/>
</mask>
<g mask="url(#mask0_308_1735)">
<path d="M92.5637 406.583C84.999 405.79 78.4679 400.745 75.6453 393.358C72.8226 385.971 74.0577 377.684 78.9396 371.667C121.319 320.216 205.56 218.215 245.724 169.79C250.399 164.133 257.576 161.503 264.656 162.729C271.736 163.954 277.538 169.035 280.221 175.845C301.445 232.381 344.242 346.893 365.049 402.924C367.731 409.734 366.53 417.553 362.203 423.426C357.876 429.299 351.116 432.433 344.003 431.676C284.006 425.655 156.898 412.856 92.5637 406.583Z" stroke="#ECECEC" stroke-width="3" stroke-miterlimit="10" stroke-linecap="round" stroke-linejoin="round"/>
<path d="M193.711 179.662C193.004 180.859 191.723 181.554 190.369 181.451C189.014 181.349 187.835 180.502 187.287 179.225C182.647 168.197 173.467 146.297 169.122 135.872C168.613 134.657 168.763 133.26 169.499 132.178C170.235 131.096 171.465 130.524 172.72 130.606C183.058 131.453 203.982 133.202 214.21 134.08C215.465 134.162 216.575 134.966 217.144 136.14C217.713 137.314 217.673 138.681 217.007 139.805C211.443 149.313 199.649 169.453 193.711 179.662Z" stroke="url(#paint0_linear_308_1735)" stroke-width="3" stroke-miterlimit="10" stroke-linecap="round" stroke-linejoin="round"/>
<path d="M247.168 438.993C247.182 442.482 245.351 445.694 242.36 447.321C239.368 448.948 235.81 448.764 233.043 446.811C209.352 429.825 162.375 396.047 140.065 379.932C137.459 378.058 136.018 374.902 136.209 371.615C136.401 368.327 138.281 365.445 141.035 363.909C163.945 351.631 210.359 326.849 233.076 314.784C235.83 313.248 239.189 313.438 241.87 315.144C244.55 316.85 246.186 319.792 246.194 323.073C246.412 350.735 246.857 409.34 247.168 438.993Z" stroke="url(#paint1_linear_308_1735)" stroke-width="3" stroke-miterlimit="10" stroke-linecap="round" stroke-linejoin="round"/>
<path d="M277.157 462.21C276.001 460.188 276.007 457.671 277.209 455.662C278.411 453.653 280.539 452.494 282.789 452.644C302.143 454.085 340.551 456.997 358.815 458.423C360.945 458.585 362.821 459.905 363.792 461.883C364.763 463.861 364.619 466.204 363.525 468.076C354.258 483.358 335.452 514.263 326.226 529.352C325.132 531.224 323.118 532.309 321 532.271C318.881 532.234 316.962 531.107 315.878 529.203C306.646 513.212 287.098 479.325 277.157 462.21Z" stroke="#ECECEC" stroke-width="3" stroke-miterlimit="10" stroke-linecap="round" stroke-linejoin="round"/>
<path d="M142.311 537.393C138.093 538.039 134.078 535.903 131.982 532.054C129.973 528.258 130.415 523.444 133.122 520.162C147.651 502.428 167.679 478.182 177.582 466.05C181.026 461.893 186.959 461.103 191.249 464.38C202.97 473.373 226.033 491.003 242.816 503.753C246.128 506.299 247.607 510.612 246.632 514.732C245.658 518.851 242.334 521.991 238.304 522.512C211.845 526.76 169.662 533.216 142.311 537.393Z" stroke="#D9D9D9" stroke-width="3" stroke-miterlimit="10" stroke-linecap="round" stroke-linejoin="round"/>
<path d="M542.681 57.241C553.814 56.4992 563.842 62.9648 568.511 73.4693C572.968 83.8154 570.821 96.2698 563.084 104.226C521.536 147.227 464.302 205.981 435.974 235.406C426.135 245.477 410.5 246.212 399.99 236.71C371.284 210.644 314.783 159.525 273.653 122.532C265.543 115.152 262.578 103.575 265.969 93.0515C269.36 82.5277 278.678 75.08 289.294 74.622C359.166 69.4489 470.498 62.0312 542.681 57.241Z" stroke="#D9D9D9" stroke-width="3" stroke-miterlimit="10" stroke-linecap="round" stroke-linejoin="round"/>
</g>
<defs>
<linearGradient id="paint0_linear_308_1735" x1="180.97" y1="124.047" x2="211.107" y2="168.227" gradientUnits="userSpaceOnUse">
<stop stop-color="#00A1FF"/>
<stop offset="1" stop-color="#0063F5"/>
</linearGradient>
<linearGradient id="paint1_linear_308_1735" x1="150.208" y1="338.823" x2="269.131" y2="392.033" gradientUnits="userSpaceOnUse">
<stop stop-color="#00A1FF"/>
<stop offset="1" stop-color="#0063F5"/>
</linearGradient>
</defs>
</svg>
