<svg width="291" height="434" viewBox="0 0 291 434" fill="none" xmlns="http://www.w3.org/2000/svg">
<path d="M-54.7913 343.97C-61.6732 347.33 -69.7697 346.49 -75.8421 341.66C-81.9144 336.831 -84.9506 329.061 -83.7361 321.292C-72.8059 254.516 -50.9455 122.014 -40.4201 59.0175C-39.2056 51.668 -34.3477 45.5784 -27.6681 42.8485C-20.9886 40.1187 -13.4993 41.3786 -7.8318 45.7884C38.318 82.9561 131.63 158.341 177.172 195.299C182.84 199.709 185.674 207.059 184.864 214.408C184.054 221.758 179.804 228.057 173.326 231.207C118.878 258.085 3.50324 314.992 -54.7913 343.97Z" stroke="#ECECEC" stroke-width="3" stroke-miterlimit="10" stroke-linecap="round" stroke-linejoin="round"/>
<path d="M192.277 307.216C192.261 308.62 191.506 309.9 190.293 310.536C189.081 311.171 187.65 311.075 186.548 310.272C177.118 303.288 158.418 289.403 149.538 282.78C148.501 282.009 147.94 280.731 148.036 279.409C148.132 278.088 148.905 276.941 150.022 276.34C159.31 271.546 178.126 261.871 187.335 257.162C188.452 256.561 189.802 256.659 190.871 257.362C191.939 258.065 192.58 259.259 192.564 260.579C192.489 271.708 192.325 295.286 192.277 307.216Z" stroke="#ECECEC" stroke-width="3" stroke-miterlimit="10" stroke-linecap="round" stroke-linejoin="round"/>
<path d="M93.8667 289.204C95.6025 292.19 95.6194 295.924 93.8572 298.917C92.0951 301.91 88.9512 303.653 85.6122 303.456C56.8918 301.535 -0.105244 297.646 -27.2098 295.737C-30.3713 295.521 -33.1678 293.583 -34.6281 290.66C-36.0884 287.737 -35.8998 284.261 -34.2966 281.472C-20.7092 258.702 6.86283 212.652 20.3894 190.168C21.9926 187.379 24.9683 185.748 28.1113 185.78C31.2543 185.812 34.1116 187.462 35.7401 190.274C49.5986 213.889 78.9442 263.93 93.8667 289.204Z" stroke="url(#paint0_linear_308_1727)" stroke-width="3" stroke-miterlimit="10" stroke-linecap="round" stroke-linejoin="round"/>
<path d="M82.8773 161.498C80.6205 161.671 78.4562 160.542 77.263 158.527C76.0698 156.513 76.0216 154.016 77.1548 151.99C87.0308 134.627 106.675 100.195 116.052 83.8391C117.142 81.9294 119.116 80.7731 121.252 80.7526C123.388 80.7322 125.341 81.9108 126.464 83.764C135.485 99.2047 153.7 130.49 162.574 145.805C163.697 147.658 163.732 150.016 162.755 151.97C161.777 153.925 159.95 155.207 157.828 155.366C139.942 156.82 102.047 159.886 82.8773 161.498Z" stroke="#ECECEC" stroke-width="3" stroke-miterlimit="10" stroke-linecap="round" stroke-linejoin="round"/>
<path d="M52.5386 429.627C49.2386 432.434 44.7386 432.746 41.0386 430.563C37.4386 428.38 35.4386 424.014 36.1386 419.751C39.8386 396.777 45.0386 365.279 47.5386 349.582C48.4386 344.176 53.1386 340.33 58.4386 340.85C72.9386 342.305 101.439 345.112 122.139 347.087C126.239 347.503 129.639 350.414 130.839 354.468C132.039 358.522 130.739 362.992 127.539 365.591C106.939 383.367 73.9386 411.435 52.5386 429.627Z" stroke="#D9D9D9" stroke-width="3" stroke-miterlimit="10" stroke-linecap="round" stroke-linejoin="round"/>
<path d="M215.449 49.5937C212.366 52.2173 208.163 52.5089 204.707 50.4682C201.344 48.4276 199.476 44.3464 200.129 40.3623C203.586 18.8872 208.443 -10.5561 210.778 -25.2291C211.619 -30.2821 216.009 -33.8775 220.96 -33.3916C234.504 -32.0312 261.126 -29.4075 280.462 -27.5612C284.292 -27.1726 287.467 -24.4517 288.588 -20.662C289.709 -16.8723 288.495 -12.6939 285.506 -10.2646C266.263 6.35194 235.438 32.5885 215.449 49.5937Z" stroke="#ECECEC" stroke-width="3" stroke-miterlimit="10" stroke-linecap="round" stroke-linejoin="round"/>
<path d="M156.671 -182.25C165.856 -188.832 177.655 -188.641 186.852 -182.123C195.789 -175.627 200.102 -163.795 197.397 -152.837C183.004 -93.7555 162.939 -12.7802 153.178 27.5943C149.715 41.4893 136.664 50.4702 122.951 47.9319C85.4412 40.9006 11.7035 27.2208 -41.8665 17.4504C-52.4719 15.451 -60.7367 7.10206 -63.0286 -3.73771C-65.3204 -14.5775 -61.0073 -25.9436 -52.1261 -32.0063C5.26231 -73.7625 97.1109 -139.588 156.671 -182.25Z" stroke="url(#paint1_linear_308_1727)" stroke-width="3" stroke-miterlimit="10" stroke-linecap="round" stroke-linejoin="round"/>
<defs>
<linearGradient id="paint0_linear_308_1727" x1="-38.8244" y1="255.051" x2="89.9936" y2="242.09" gradientUnits="userSpaceOnUse">
<stop stop-color="#FFDC03"/>
<stop offset="1" stop-color="#FF9A00"/>
</linearGradient>
<linearGradient id="paint1_linear_308_1727" x1="57.2266" y1="42.43" x2="77.5685" y2="-195.238" gradientUnits="userSpaceOnUse">
<stop stop-color="#FFDC03"/>
<stop offset="1" stop-color="#FF9A00"/>
</linearGradient>
</defs>
</svg>
