<svg width="897" height="937" viewBox="0 0 897 937" fill="none" xmlns="http://www.w3.org/2000/svg">
<path d="M307.242 812.753C297.445 821.004 284.265 823.02 272.354 818.439C260.538 813.537 252.559 802.799 251.408 790.251C241.304 675.31 220.761 438.353 211.376 329.205C210.355 317.394 215.59 305.696 225.327 298.822C235.063 291.947 248.052 290.572 258.809 295.508C352.379 337.929 547.354 425.794 637.905 466.622C648.342 471.463 655.965 481.049 657.403 492.635C658.935 503.901 654.759 515.564 645.89 523.045C567.865 590.206 393.434 739.298 307.242 812.753Z" fill="url(#paint0_linear_109_1452)"/>
<path d="M129.248 448.347C127.982 446.951 127.617 445.023 128.23 443.246C128.892 441.482 130.432 440.249 132.275 440.012C149.155 437.899 183.956 433.587 199.986 431.612C201.721 431.397 203.471 432.103 204.534 433.498C205.597 434.893 205.867 436.796 205.195 438.405C199.429 452.4 187.491 481.559 181.944 495.101C181.285 496.662 179.912 497.836 178.213 498.11C176.561 498.397 174.821 497.847 173.673 496.583C163.377 485.471 140.514 460.626 129.248 448.347Z" fill="url(#paint1_linear_109_1452)"/>
<path d="M548.492 906.491C551.255 906.304 545.378 894.186 544.708 892.515C544.767 892.609 544.772 892.658 544.782 892.756C544.292 890.421 544.635 888.943 544.608 886.759C544.534 884.132 543.678 882.58 542.139 880.204C540.606 877.877 535.831 871.114 537.6 868.047C538.186 868.434 538.729 868.874 539.316 869.261C541.129 871.41 544.879 873.556 547.694 873.861C547.76 874.501 548.424 874.68 549.633 874.356C558.829 875.342 574.241 868.226 578.593 859.871C579.301 858.554 581.039 845.598 580.99 845.603C581.389 843.225 581.592 840.867 582.351 838.601C588.421 826.687 597.044 816.397 596.968 802.236C597.675 795.153 595.13 787.86 592.946 781.177C591.798 777.766 590.535 772.776 588.537 769.802C588.068 765.276 584.483 759.931 583.458 755.314C582.413 750.501 582.472 745.324 582.017 740.45C581.823 738.581 582.474 730.957 581.397 729.676C580.963 729.324 581.715 719.8 581.666 718.364C581.313 717.356 582.423 710.331 582.339 707.605C582.232 703.689 582.232 699.861 582.513 695.855C582.582 694.605 581.996 685.12 582.476 684.474C583.464 682.979 592.624 682.179 594.466 681.74C597.086 681.12 600.23 680.297 602.885 680.022C607.556 679.538 611.739 681.54 616.112 679.148C619.45 677.311 625.859 669.637 625.545 665.642C625.986 665.1 625.95 664.755 625.829 664.072C625.513 661.022 630.048 661.149 629.855 659.28C629.691 657.706 632.412 655.187 632.193 653.072C633.092 651.686 630.871 642.719 629.621 641.208C628.821 640.197 623.122 637.954 623.347 640.118C622.985 636.626 626.854 630.806 627.627 627.246C628.823 622.001 629.385 616.872 628.834 611.56C628.452 607.871 628.212 604.118 627.245 600.539C626.362 597.3 624.266 594.335 623.821 591.001C622.685 582.916 629.085 576.585 625.823 568.124C625.695 566.894 624.435 565.285 623.94 564.342C618.813 558.51 610.554 559.366 604.489 563.176C601.177 565.26 599.55 568.262 595.471 567.74C590.541 567.157 587.115 563.834 581.894 565.717C581.442 565.665 574.139 563.289 574.216 564.027C574.542 567.175 569.549 561.677 570.94 562.627C569.234 561.511 568.132 559.985 566.289 558.983C562.553 556.983 558.651 556.244 554.667 557.602C548.144 559.869 544.236 567.234 544.94 574.022C544.98 574.415 536.698 571.694 536.23 571.494C534.689 571.008 533.244 570.014 531.601 569.985C531.601 569.985 517.194 569.54 515.665 569.648C515.461 567.681 514.523 563.901 514.024 561.964C513.7 560.754 513.277 559.555 512.614 558.431C512.535 552.871 508.992 546.974 507.3 541.681C506.131 538.074 504.411 534.424 503.675 530.672C503.164 528.14 503.254 523.259 501.628 520.991C500.095 520.106 498.797 510.944 498.528 509.779C497.886 507.907 495.389 500.112 495.76 499.377C496.037 497.261 495.004 494.484 494.726 492.276C493.921 485.946 492.919 479.637 492.212 473.297C491.602 467.892 491.755 462.656 490.909 457.374C490.482 454.684 488.67 451.591 488.42 449.181C488.318 448.197 489.033 445.985 488.658 444.284C488.378 443.021 487.871 441.482 487.454 440.333C487.106 439.374 486.11 437.439 486.013 436.505C485.886 435.275 481.872 422.915 481.144 423.089L480.546 422.107C480.393 420.632 477.29 414.192 475.697 414.159C476.148 413.714 475.123 411.981 474.95 411.75C474.542 407.815 468.992 401.729 466.958 398.41C462.956 391.915 458.782 385.686 454.839 379.283C451.727 374.187 448.231 367.788 445.651 363.035C443.19 358.467 440.858 348.915 435.499 346.587C433.52 344.754 431.207 341.613 428.469 340.605C427.946 340.361 426.492 339.268 426.015 339.467C426.771 339.09 426.288 338.743 424.609 338.37L422.5 337.196C422.159 333.901 407.787 333.8 407.675 332.718C406.612 332.53 393.825 328.535 394.121 331.388C390.776 332.679 387.075 333.411 383.69 334.309C382.044 334.728 380.52 334.886 379.077 335.831C378.194 336.42 376.884 338.643 375.926 338.991C372.341 340.357 367.263 338.348 363.264 339.558C358.351 341.061 353.263 344.224 349.439 347.603C346.62 350.132 337.688 357.919 338.075 361.657C338.131 362.198 334.89 364.97 334.514 365.655C333.38 367.662 332.654 370.72 331.59 372.918C329.672 376.945 328.004 380.995 325.781 384.954C322.146 391.595 319.899 401.075 317.622 409.315C314.612 420.067 312.169 431.009 311.192 442.196C310.683 448.314 310.888 454.607 310.782 460.782C310.726 464.069 310.772 467.395 310.514 470.653C310.306 472.962 309.123 476.415 310.582 478.501C309.899 481.505 309.885 485.683 310.128 488.988C310.547 494.463 310.939 499.692 310.97 505.257C310.998 515.595 312.663 525.912 313.232 536.193C313.423 539.952 313.317 543.244 313.475 546.21C313.683 550.613 316.661 559.204 313.732 562.59C310.979 565.758 301.884 566.701 298.007 567.65C295.054 568.403 289.207 568.562 286.764 570.406C285.347 571.597 268.788 574.357 268.88 575.242C268.905 575.488 257.189 577.995 257.337 579.422C257.434 580.356 255.978 576.381 256.043 576.523C255.717 573.375 256.952 569.469 257.014 566.231C257.069 563.889 257.111 561.896 256.866 559.535C256.785 558.748 253.09 542.278 255.431 542.334C255.592 536.699 258.074 534.752 260.211 529.956C261.586 530.759 262.808 531.527 264.305 532.067C264.992 532.941 265.889 533.444 266.957 533.682C271.494 535.747 275.865 536.686 280.541 534.809C285.029 533.051 288.65 530.588 290.541 525.818C291.486 523.434 290.945 522.048 290.7 519.687C290.313 515.949 290.978 512.301 289.25 509.049C287.467 505.754 285.278 502.849 281.731 501.228C278.755 499.846 275.281 499.411 272.047 499.846C270.774 500.027 261.753 502.653 261.942 504.472C261.611 501.275 251.852 507.805 251.228 508.019C248.202 509.029 244.815 509.429 241.699 510.051C237.026 510.982 232.224 510.685 227.664 511.754C226.598 512.014 219.865 514.65 219.446 514.445C216.718 513.535 212.775 518.169 211.454 519.798C208.53 523.233 205.301 526.6 201.993 529.677C197.909 533.431 193.172 535.662 191.579 541.395C190.939 543.848 190.953 546.382 190.391 548.627C189.761 551.179 189.098 552.937 189.821 555.597C189.86 555.493 189.943 555.336 189.982 555.232C189.498 557.271 191.765 559.969 192.863 561.446C194.246 563.291 194.735 565.13 195.961 566.892C205.193 583.086 218.783 596.741 223.292 615.314C223.953 621.212 224.22 627.15 224.635 633.072C225.426 640.696 223.481 648.305 224.522 655.953C224.561 655.849 224.605 655.795 224.694 655.686C223.599 657.589 224.514 661.621 224.345 663.826C224.179 667.025 224.097 670.066 223.981 673.26C223.944 675.302 223.259 676.367 223.662 678.811C224.018 680.812 224.035 681.457 224.322 683.266C225.108 688.455 223.996 694.983 223.548 700.25C221.87 720.011 217.272 740.373 219.342 760.343C220.242 768.552 222.068 777.062 225.102 784.752C226.447 788.142 227.906 791.67 229.393 794.996C230.752 798.037 232.646 800.972 233.814 804.083C234.723 806.623 234.822 809.496 236.016 811.908C236.158 811.844 236.174 811.991 236.155 812.291C238.642 823.816 243.249 835.668 254.936 840.074C261.038 840.933 265.621 843.441 272.065 842.325C272.126 842.916 284.775 837.429 285.463 837.357C285.054 841.079 284.212 843.502 282.896 846.622C281.618 849.637 281.612 853.416 280.216 856.246C279.762 857.138 278.506 857.964 278.297 858.831C277.821 860.471 279.676 859.185 279.2 860.825C278.903 861.801 274.913 865.495 277.675 866.253C278.103 866.06 278.362 865.685 278.36 865.188C280.979 866.01 279.689 864.105 280.684 863.157C281.272 862.599 282.104 862.96 282.957 862.076C284.971 859.929 287.791 857.897 289.779 855.503C291.922 856.524 287.191 866.012 286.693 868.401C285.808 872.32 285.434 876.386 284.898 880.319C284.456 883.249 282.87 886.644 283.471 889.565C283.51 889.461 283.554 889.407 283.593 889.304C281.904 896.986 279.192 904.376 277.754 912.081C277.175 915.124 277.452 918.277 276.716 921.237C275.901 924.404 274.223 926.914 273.665 930.154C273.228 931.691 272.601 933.794 273.786 935.162" stroke="#00A1FF" stroke-width="3" stroke-miterlimit="10" stroke-linecap="round" stroke-linejoin="round"/>
<defs>
<linearGradient id="paint0_linear_109_1452" x1="474.999" y1="666" x2="222.564" y2="310.308" gradientUnits="userSpaceOnUse">
<stop stop-color="#00A1FF"/>
<stop offset="1" stop-color="#0063F5"/>
</linearGradient>
<linearGradient id="paint1_linear_109_1452" x1="197.788" y1="467.154" x2="126.788" y2="448.742" gradientUnits="userSpaceOnUse">
<stop stop-color="#00A1FF"/>
<stop offset="1" stop-color="#0063F5"/>
</linearGradient>
</defs>
</svg>
