<?xml version="1.0" encoding="UTF-8"?>
<svg xmlns="http://www.w3.org/2000/svg" xmlns:xlink="http://www.w3.org/1999/xlink" width="35px" height="35px" viewBox="0 0 35 35" version="1.1">
<g id="surface1">
<path style=" stroke:none;fill-rule:nonzero;fill:rgb(50.980392%,27.843137%,89.803922%);fill-opacity:1;" d="M 26.5 10.699219 C 25.863281 10.28125 25.039062 10.28125 24.308594 10.699219 L 19.191406 14.125 L 15.71875 16.304688 L 10.691406 19.734375 C 10.050781 20.152344 9.230469 20.152344 8.5 19.734375 L 4.570312 17.035156 C 3.890625 16.582031 3.472656 15.75 3.472656 14.855469 L 3.472656 9.660156 C 3.472656 8.828125 3.839844 7.996094 4.570312 7.476562 L 8.5 4.882812 C 9.136719 4.464844 9.960938 4.464844 10.691406 4.882812 L 14.621094 7.582031 C 15.300781 8.035156 15.71875 8.867188 15.71875 9.761719 L 15.71875 13.191406 L 19.1875 10.90625 L 19.1875 7.375 C 19.1875 6.542969 18.824219 5.710938 18.09375 5.195312 L 10.78125 0.3125 C 10.144531 -0.101562 9.320312 -0.101562 8.589844 0.3125 L 1.097656 5.296875 C 0.363281 5.710938 0 6.542969 0 7.375 L 0 17.136719 C 0 17.96875 0.363281 18.796875 1.097656 19.316406 L 8.5 24.199219 C 9.136719 24.613281 9.960938 24.613281 10.691406 24.199219 L 15.71875 20.875 L 19.191406 18.589844 L 24.21875 15.269531 C 24.855469 14.851562 25.679688 14.851562 26.410156 15.269531 L 30.339844 17.863281 C 31.019531 18.320312 31.4375 19.152344 31.4375 20.046875 L 31.4375 25.242188 C 31.4375 26.070312 31.070312 26.902344 30.339844 27.421875 L 26.5 30.019531 C 25.863281 30.433594 25.039062 30.433594 24.308594 30.019531 L 20.378906 27.421875 C 19.699219 26.96875 19.285156 26.136719 19.285156 25.242188 L 19.285156 21.914062 L 15.808594 24.199219 L 15.808594 27.625 C 15.808594 28.457031 16.175781 29.289062 16.90625 29.808594 L 24.308594 34.6875 C 24.949219 35.105469 25.769531 35.105469 26.5 34.6875 L 33.902344 29.804688 C 34.582031 29.351562 35 28.523438 35 27.625 L 35 17.757812 C 35 16.925781 34.636719 16.097656 33.902344 15.578125 Z M 26.5 10.699219 "/>
</g>
</svg>
