<svg width="35" height="35" viewBox="0 0 35 35" fill="none" xmlns="http://www.w3.org/2000/svg">
<rect width="35" height="35" fill="white"/>
<g clip-path="url(#clip0_407_7513)">
<path fill-rule="evenodd" clip-rule="evenodd" d="M9.59936 6.29974H25.728C26.1137 6.29974 26.4689 6.50018 26.6592 6.8224L31.358 14.7434C31.6015 15.1544 31.528 15.672 31.1829 16.0069L18.2485 28.4009C17.8299 28.8017 17.155 28.8017 16.7364 28.4009L3.81973 16.0221C3.46453 15.6821 3.39856 15.1468 3.65989 14.7332L8.68091 6.79703C8.87627 6.48749 9.22386 6.29974 9.59682 6.29974H9.59936ZM23.645 9.83653V12.0591H19.0502V13.5991C22.2775 13.764 24.6979 14.4389 24.7157 15.2508V16.9406C24.6979 17.7499 22.2775 18.4273 19.0502 18.5922V22.3726H16.0006V18.5922C12.7733 18.4273 10.3529 17.7524 10.3351 16.9406V15.2508C10.3529 14.4389 12.7733 13.764 16.0006 13.5991V12.0591H11.4058V9.83653H23.645ZM17.5254 17.4328C20.9683 17.4328 23.848 16.8619 24.5508 16.0982C23.9546 15.4512 21.7929 14.9413 19.0502 14.8017V16.4154C18.558 16.4407 18.0481 16.4534 17.5254 16.4534C17.0028 16.4534 16.4928 16.4407 16.0006 16.4154V14.8017C13.2579 14.9413 11.0963 15.4512 10.5 16.0982C11.2054 16.8619 14.0825 17.4328 17.5254 17.4328Z" fill="#009393"/>
</g>
<defs>
<clipPath id="clip0_407_7513">
<rect width="28" height="22.4005" fill="white" transform="translate(3.5 6.29974)"/>
</clipPath>
</defs>
</svg>
