<svg width="40" height="40" viewBox="0 0 40 40" fill="none" xmlns="http://www.w3.org/2000/svg">
<path d="M6.875 0.625C6.37772 0.625 5.90081 0.822544 5.54917 1.17417C5.19754 1.52581 5 2.00272 5 2.5V38.75C5 38.9158 5.06585 39.0747 5.18306 39.1919C5.30027 39.3092 5.45924 39.375 5.625 39.375H8.125C8.29076 39.375 8.44973 39.3092 8.56694 39.1919C8.68415 39.0747 8.75 38.9158 8.75 38.75V2.5C8.75 2.00272 8.55246 1.52581 8.20083 1.17417C7.84919 0.822544 7.37228 0.625 6.875 0.625V0.625Z" fill="#494642"/>
<path d="M34.375 3.125H10V24.375H34.375C34.8723 24.375 35.3492 24.1775 35.7008 23.8258C36.0525 23.4742 36.25 22.9973 36.25 22.5V5C36.25 4.50272 36.0525 4.02581 35.7008 3.67417C35.3492 3.32254 34.8723 3.125 34.375 3.125ZM35 18.125H31.25V14.375H35V18.125ZM25 18.125H21.25V14.375H25V18.125ZM16.25 9.375H20V13.125H16.25V9.375ZM26.25 9.375H30V13.125H26.25V9.375ZM35 5V8.125H31.25V4.375H34.375C34.5408 4.375 34.6997 4.44085 34.8169 4.55806C34.9342 4.67527 35 4.83424 35 5ZM25 8.125H21.25V4.375H25V8.125ZM11.25 4.375H15V8.125H11.25V4.375ZM11.25 14.375H15V18.125H11.25V14.375ZM16.25 19.375H20V23.125H16.25V19.375ZM26.25 19.375H30V23.125H26.25V19.375Z" fill="#494642"/>
</svg>
