<svg width="16" height="16" viewBox="0 0 16 16" fill="none" xmlns="http://www.w3.org/2000/svg">
<g clip-path="url(#clip0_954_30210)">
<path d="M8 0C6.41775 0 4.87104 0.469192 3.55544 1.34824C2.23985 2.22729 1.21447 3.47672 0.608967 4.93853C0.00346626 6.40034 -0.15496 8.00887 0.153721 9.56072C0.462403 11.1126 1.22433 12.538 2.34315 13.6569C3.46197 14.7757 4.88743 15.5376 6.43928 15.8463C7.99113 16.155 9.59966 15.9965 11.0615 15.391C12.5233 14.7855 13.7727 13.7602 14.6518 12.4446C15.5308 11.129 16 9.58225 16 8C16 5.87827 15.1571 3.84344 13.6569 2.34315C12.1566 0.842855 10.1217 0 8 0V0ZM7.84 11.9856C7.75755 11.9723 7.67662 11.9509 7.5984 11.9216C7.45268 11.8718 7.3259 11.7782 7.23539 11.6537C7.14489 11.5291 7.09509 11.3796 7.0928 11.2256C7.0928 11.1744 7.0928 11.1216 7.0928 11.0656C7.0928 9.7952 7.0928 8.52427 7.0928 7.2528C7.08419 7.06507 7.1368 6.87962 7.2427 6.72437C7.3486 6.56912 7.50207 6.45248 7.68 6.392C7.86913 6.31916 8.07684 6.3099 8.2717 6.36561C8.46656 6.42133 8.63797 6.53899 8.76 6.7008C8.86695 6.84132 8.92333 7.01384 8.92 7.1904C8.92 7.84747 8.92 8.50507 8.92 9.1632C8.92 9.8032 8.9072 10.4432 8.92 11.0832C8.92176 11.218 8.89346 11.3514 8.83717 11.4739C8.78088 11.5964 8.698 11.7048 8.59457 11.7912C8.49114 11.8776 8.36975 11.9399 8.23922 11.9735C8.1087 12.0072 7.97232 12.0113 7.84 11.9856ZM7.9808 5.9632C7.78672 5.9613 7.59755 5.90195 7.43716 5.79265C7.27677 5.68334 7.15236 5.52897 7.07962 5.34902C7.00687 5.16908 6.98907 4.97161 7.02844 4.78156C7.06782 4.5915 7.16261 4.41736 7.30085 4.28113C7.4391 4.14489 7.6146 4.05265 7.80521 4.01606C7.99582 3.97947 8.193 4.00016 8.37187 4.07553C8.55073 4.15089 8.70327 4.27755 8.81022 4.43952C8.91717 4.60149 8.97374 4.79151 8.9728 4.9856C8.97153 5.24559 8.86725 5.49448 8.68281 5.67773C8.49836 5.86097 8.2488 5.96363 7.9888 5.9632H7.9808Z" fill="#C0BEBE"/>
</g>
<defs>
<clipPath id="clip0_954_30210">
<rect width="16" height="16" fill="white"/>
</clipPath>
</defs>
</svg>
