<svg width="30" height="31" viewBox="0 0 30 31" fill="none" xmlns="http://www.w3.org/2000/svg">
<path d="M28.98 15.448H28.5L24.468 3.928H25.108C25.908 3.928 25.908 2.712 25.108 2.712H15.412V0.6C15.412 -0.2 14.196 -0.2 14.196 0.6V2.712H4.532C3.732 2.712 3.732 3.928 4.532 3.928H5.14L1.14 15.448H0.628003C0.468003 15.448 0.308003 15.512 0.180003 15.64C-0.555997 16.408 0.884003 22.04 6.004 22.04C11.412 22.04 13.044 15.448 11.38 15.448H10.9L6.868 3.928H14.196V25.72H6.228C5.876 25.72 5.62 26.008 5.62 26.328V30.04C5.62 30.392 5.908 30.648 6.228 30.648H23.38C23.732 30.648 23.988 30.36 23.988 30.04V26.36C23.988 26.008 23.7 25.752 23.38 25.752H15.412V3.928H22.74L18.74 15.448C18.324 15.448 18.068 15.384 17.812 15.64C17.044 16.408 18.484 22.04 23.604 22.04C26.932 22.04 29.588 19.352 29.588 16.056C29.588 15.736 29.332 15.448 28.98 15.448ZM1.3 16.664H1.588C5.076 16.664 7.252 16.664 10.74 16.664C10.004 22.2 2.004 22.104 1.3 16.664ZM2.42 15.448L6.004 5.176L9.588 15.448H2.42ZM22.772 29.4H6.836V26.936H22.772V29.4ZM23.604 5.176L27.188 15.448H20.02L23.604 5.176ZM18.9 16.664C22.26 16.664 25.076 16.664 28.34 16.664C27.636 22.2 19.604 22.104 18.9 16.664Z" fill="#0063F5"/>
</svg>
