<svg width="32" height="32" viewBox="0 0 32 32" fill="none" xmlns="http://www.w3.org/2000/svg">
<path d="M30 27.85H2C0.9 27.85 0 26.95 0 25.85V2C0 0.9 0.9 0 2 0H30C31.1 0 32 0.9 32 2V25.85C32 26.95 31.1 27.85 30 27.85ZM2 1C1.45 1 1 1.45 1 2V25.85C1 26.4 1.45 26.85 2 26.85H30C30.55 26.85 31 26.4 31 25.85V2C31 1.45 30.55 1 30 1H2Z" fill="#0063F5"/>
<path d="M31.5 21.35H0.5V22.35H31.5V21.35Z" fill="#0063F5"/>
<path d="M23 14.95C19.45 14.95 16.5 12.05 16.5 8.45C16.5 4.85 19.45 2 23 2C26.55 2 29.5 4.9 29.5 8.5C29.5 12.1 26.6 14.95 23 14.95ZM23 3C20 3 17.5 5.45 17.5 8.5C17.5 11.55 19.95 14 23 14C26 14 28.5 11.55 28.5 8.5C28.5 5.45 26.05 3 23 3Z" fill="#0063F5"/>
<path d="M26.9 13.05L22.5 8.7V2.5H23.5V8.25L27.6 12.35L26.9 13.05Z" fill="#0063F5"/>
<path d="M29 8H23V9H29V8Z" fill="#0063F5"/>
<path d="M5.8501 20.05H2.8501V7.65002H5.8501V20.05ZM3.8501 19.05H4.8501V8.65002H3.8501V19.05Z" fill="#0063F5"/>
<path d="M10.2 20.05H7.19995V10.2H10.2V20.05ZM8.19995 19.05H9.19995V11.2H8.19995V19.05Z" fill="#0063F5"/>
<path d="M14.6001 20.05H11.6001V12.75H14.6001V20.05ZM12.6001 19.05H13.6001V13.75H12.6001V19.05Z" fill="#0063F5"/>
<path d="M18.95 20.05H15.95V15.25H18.95V20.05ZM16.95 19.05H17.95V16.25H16.95V19.05Z" fill="#0063F5"/>
<path d="M19.95 32H12.05V26.85H19.95V32ZM13.05 31H18.95V27.85H13.05V31Z" fill="#0063F5"/>
<path d="M23.25 31H8.75V32H23.25V31Z" fill="#0063F5"/>
<path d="M16 26.1C15.15 26.1 14.5 25.45 14.5 24.6C14.5 23.75 15.15 23.1 16 23.1C16.85 23.1 17.5 23.75 17.5 24.6C17.5 25.4 16.85 26.1 16 26.1ZM16 24.1C15.7 24.1 15.5 24.3 15.5 24.6C15.5 24.9 15.7 25.1 16 25.1C16.3 25.1 16.5 24.9 16.5 24.6C16.5 24.3 16.3 24.1 16 24.1Z" fill="#0063F5"/>
</svg>
