<svg width="32" height="32" viewBox="0 0 32 32" fill="none" xmlns="http://www.w3.org/2000/svg">
<path d="M30.5031 26.1478L20.3374 15.1309C21.0503 13.719 21.4612 12.1306 21.4612 10.4442C21.4612 4.68544 16.7758 0 11.0171 0C5.25771 0 0.572266 4.68544 0.572266 10.4442C0.572266 13.8618 2.22923 16.8915 4.77387 18.7987C4.81547 18.8429 4.86603 18.8749 4.91851 18.9069C6.63691 20.1485 8.73931 20.8896 11.0164 20.8896C12.5441 20.8896 13.9918 20.5523 15.3012 19.9597L18.1153 23.0086L18.754 23.7011C18.7547 23.7018 18.7553 23.7018 18.7559 23.7024L25.3787 30.8768C26.0097 31.5616 26.8699 31.9597 27.8011 31.9974C27.8497 31.9994 27.8971 32 27.9451 32C28.8231 32 29.6564 31.6742 30.3054 31.0758C30.9902 30.4442 31.3883 29.5834 31.4254 28.6528C31.4625 27.7222 31.1348 26.8326 30.5031 26.1478ZM18.7495 21.8074L18.4417 21.4726L21.6846 18.4787L22.5044 19.3696L19.2622 22.3622L18.7495 21.8074ZM1.85227 10.4442C1.85227 5.39136 5.96363 1.28 11.0171 1.28C16.0705 1.28 20.1812 5.39136 20.1812 10.4442C20.1812 13.0163 19.1131 15.3402 17.4011 17.0061C17.227 15.271 16.3579 13.7382 15.0779 12.6886C15.0708 12.6822 15.0625 12.6778 15.0548 12.672C14.5249 12.2413 13.9233 11.8989 13.2737 11.6531C13.9982 11.0208 14.4654 10.1018 14.4654 9.06624C14.4654 7.16416 12.9185 5.61728 11.0164 5.61728C9.11435 5.61728 7.56747 7.16416 7.56747 9.06624C7.56747 10.1011 8.03531 11.0202 8.75915 11.6531C8.11019 11.8982 7.50923 12.2406 6.97995 12.6701C6.97163 12.6771 6.96267 12.6816 6.95499 12.6886C5.67499 13.7382 4.80651 15.271 4.63243 17.0061C2.92043 15.3408 1.85227 13.0163 1.85227 10.4442ZM11.0171 14.1376L8.71435 13.0675C9.40747 12.7181 10.1889 12.5158 11.0171 12.5158C11.8452 12.5158 12.6267 12.7174 13.3198 13.0675L11.0171 14.1376ZM8.84811 9.06688C8.84811 7.87072 9.82155 6.89792 11.0171 6.89792C12.2126 6.89792 13.186 7.87136 13.186 9.06688C13.186 10.2624 12.2132 11.2358 11.0171 11.2358C9.82091 11.2358 8.84811 10.2624 8.84811 9.06688ZM5.88043 18.0301V17.6518C5.88043 16.1792 6.50699 14.8531 7.50347 13.9155L10.3777 15.2512V17.705C10.3777 18.0589 10.6644 18.345 11.0177 18.345C11.371 18.345 11.6577 18.0589 11.6577 17.705V15.2512L14.5319 13.9155C15.5284 14.8531 16.155 16.1792 16.155 17.6518V18.0294C14.6887 19.0259 12.9204 19.6096 11.0183 19.6096C9.11627 19.6096 7.34667 19.0266 5.88043 18.0301ZM17.1271 18.8973C17.1739 18.8678 17.2206 18.839 17.259 18.7987C18.1915 18.0998 19.0113 17.2582 19.6667 16.2918L20.8167 17.5386L17.5732 20.5331L16.4692 19.337C16.6939 19.1974 16.9134 19.0528 17.1271 18.8973ZM29.4369 30.135C29.0036 30.535 28.4411 30.7411 27.8523 30.7181C27.2635 30.6944 26.7188 30.4422 26.3188 30.0083L20.13 23.3024L23.3729 20.3085L29.5617 27.015C29.9623 27.449 30.1697 28.0122 30.146 28.601C30.1223 29.1898 29.8715 29.7344 29.4369 30.135Z" fill="#0063F5"/>
</svg>
