<svg width="40" height="40" viewBox="0 0 40 40" fill="none" xmlns="http://www.w3.org/2000/svg">
<path d="M12.3438 26.875H7.23755C7.07179 26.875 6.91282 26.9408 6.79561 27.0581C6.6784 27.1753 6.61255 27.3342 6.61255 27.5V34.4187C6.61255 34.5845 6.6784 34.7435 6.79561 34.8607C6.91282 34.9779 7.07179 35.0437 7.23755 35.0437H12.3438C12.5096 35.0437 12.6685 34.9779 12.7857 34.8607C12.903 34.7435 12.9688 34.5845 12.9688 34.4187V27.5C12.9688 27.3342 12.903 27.1753 12.7857 27.0581C12.6685 26.9408 12.5096 26.875 12.3438 26.875ZM11.7188 33.8H7.86255V28.125H11.7188V33.8Z" fill="white"/>
<path d="M19.15 23.025H14.0437C13.8779 23.025 13.719 23.0908 13.6018 23.2081C13.4845 23.3253 13.4187 23.4842 13.4187 23.65V34.4187C13.4187 34.5845 13.4845 34.7435 13.6018 34.8607C13.719 34.9779 13.8779 35.0437 14.0437 35.0437H19.15C19.3157 35.0437 19.4747 34.9779 19.5919 34.8607C19.7091 34.7435 19.775 34.5845 19.775 34.4187V23.65C19.775 23.4842 19.7091 23.3253 19.5919 23.2081C19.4747 23.0908 19.3157 23.025 19.15 23.025ZM18.525 33.7937H14.6687V24.275H18.525V33.7937Z" fill="white"/>
<path d="M25.9563 19.1812H20.8501C20.6843 19.1812 20.5254 19.2471 20.4082 19.3643C20.2909 19.4815 20.2251 19.6405 20.2251 19.8062V34.4187C20.2251 34.5845 20.2909 34.7435 20.4082 34.8607C20.5254 34.9779 20.6843 35.0437 20.8501 35.0437H25.9563C26.1221 35.0437 26.2811 34.9779 26.3983 34.8607C26.5155 34.7435 26.5813 34.5845 26.5813 34.4187V19.8062C26.5813 19.6405 26.5155 19.4815 26.3983 19.3643C26.2811 19.2471 26.1221 19.1812 25.9563 19.1812ZM25.3313 33.7937H21.4751V20.4312H25.3313V33.7937Z" fill="white"/>
<path d="M32.7625 15.3375H27.6562C27.4905 15.3375 27.3315 15.4033 27.2143 15.5206C27.0971 15.6378 27.0312 15.7967 27.0312 15.9625V34.4187C27.0312 34.5845 27.0971 34.7435 27.2143 34.8607C27.3315 34.9779 27.4905 35.0437 27.6562 35.0437H32.7625C32.9283 35.0437 33.0872 34.9779 33.2044 34.8607C33.3217 34.7435 33.3875 34.5845 33.3875 34.4187V15.9625C33.3875 15.7967 33.3217 15.6378 33.2044 15.5206C33.0872 15.4033 32.9283 15.3375 32.7625 15.3375ZM32.1375 33.7937H28.2812V16.5875H32.1375V33.7937Z" fill="white"/>
<path d="M33.3813 5.54999C33.381 5.48768 33.3682 5.42606 33.3438 5.36874C33.3467 5.35641 33.3467 5.34357 33.3438 5.33124C33.3157 5.26924 33.2777 5.21224 33.2313 5.16249L33.1875 5.12499C33.1473 5.08791 33.1007 5.05829 33.0501 5.03749L32.9813 4.99999C32.9116 4.9724 32.8375 4.95758 32.7625 4.95624H30.4938C30.328 4.95624 30.1691 5.02209 30.0519 5.1393C29.9346 5.25651 29.8688 5.41548 29.8688 5.58124C29.8688 5.747 29.9346 5.90597 30.0519 6.02318C30.1691 6.14039 30.328 6.20624 30.4938 6.20624H31.375C23.1251 15.3625 15 20 7.23755 20C7.07179 20 6.91282 20.0658 6.79561 20.183C6.6784 20.3003 6.61255 20.4592 6.61255 20.625C6.61255 20.7907 6.6784 20.9497 6.79561 21.0669C6.91282 21.1841 7.07179 21.25 7.23755 21.25C15.2938 21.25 23.6688 16.4937 32.1375 7.18749V7.75624C32.1375 7.922 32.2034 8.08097 32.3206 8.19818C32.4378 8.31539 32.5968 8.38124 32.7625 8.38124C32.9283 8.38124 33.0873 8.31539 33.2045 8.19818C33.3217 8.08097 33.3875 7.922 33.3875 7.75624V5.58124C33.3875 5.58124 33.3813 5.56249 33.3813 5.54999Z" fill="white"/>
</svg>
