<svg width="32" height="32" viewBox="0 0 32 32" fill="none" xmlns="http://www.w3.org/2000/svg">
<path d="M31.1919 23.296H30.9986V5.92873C30.9986 5.22052 30.7213 4.5537 30.2187 4.05236C29.7164 3.54909 29.0499 3.27208 28.342 3.27208H3.65738C2.95015 3.27208 2.28364 3.54877 1.78102 4.05172C1.27807 4.55434 1.00106 5.22085 1.00106 5.92873V23.296H0.808086C0.451237 23.296 0.161621 23.5856 0.161621 23.9425V25.0272C0.161621 27.0678 1.82142 28.7273 3.86166 28.7273H28.138C30.1783 28.7273 31.8381 27.0675 31.8381 25.0272V23.9425C31.8384 23.5856 31.5488 23.296 31.1919 23.296ZM2.29431 5.92873C2.29431 5.56638 2.43653 5.22473 2.69512 4.96614C2.95403 4.70723 3.29568 4.56501 3.6577 4.56501H28.3423C28.7043 4.56501 29.046 4.70723 29.3049 4.96679C29.5635 5.22473 29.706 5.56606 29.706 5.92873V23.296H28.7363V6.04477C28.7363 5.68792 28.4467 5.3983 28.0899 5.3983H3.91047C3.55362 5.3983 3.26401 5.68792 3.26401 6.04477V23.296H2.29431V5.92873ZM4.55693 23.296V6.69123H27.4434V23.296H4.55693ZM18.8383 24.5889V25.3653H13.1617V24.5889H18.8383ZM30.5455 25.0276C30.5455 26.3547 29.4655 27.4347 28.1384 27.4347H3.86166C2.53447 27.4347 1.45455 26.3547 1.45455 25.0276V24.5893H11.8688V26.0121C11.8688 26.369 12.1584 26.6586 12.5152 26.6586H19.4851C19.8419 26.6586 20.1316 26.369 20.1316 26.0121V24.5893H30.5455V25.0276ZM23.9192 14.9938C23.9192 15.1909 23.8293 15.3775 23.6748 15.5L19.6616 18.687C19.5426 18.7814 19.4007 18.8273 19.2601 18.8273C19.0697 18.8273 18.881 18.7436 18.7533 18.5829C18.5312 18.3034 18.5781 17.8967 18.8577 17.6743L22.2335 14.9935L18.8574 12.3129C18.5778 12.0905 18.5312 11.6842 18.753 11.4043C18.9747 11.1244 19.3813 11.0778 19.6613 11.3002L23.6745 14.4873C23.8293 14.6101 23.9192 14.7963 23.9192 14.9938ZM17.7358 11.3467L15.692 18.9754C15.6147 19.2643 15.3535 19.4547 15.0681 19.4547C15.0129 19.4547 14.9563 19.4476 14.9004 19.4324C14.5555 19.3403 14.3509 18.9857 14.4433 18.6408L16.4871 11.0122C16.5792 10.6673 16.9332 10.4614 17.2787 10.5551C17.6236 10.6476 17.8282 11.0019 17.7358 11.3467ZM13.1426 12.3129L9.76679 14.9938L13.1426 17.6747C13.4222 17.897 13.4688 18.3034 13.247 18.5833C13.1194 18.7439 12.9306 18.8276 12.7402 18.8276C12.5993 18.8276 12.4574 18.7817 12.3388 18.6874L8.3255 15.5003C8.17067 15.3771 8.08081 15.1909 8.08081 14.9938C8.08081 14.7966 8.17067 14.6101 8.32518 14.4876L12.3384 11.3005C12.6184 11.0781 13.025 11.125 13.2467 11.4046C13.4685 11.6842 13.4222 12.0905 13.1426 12.3129Z" fill="white"/>
</svg>
