<svg width="30" height="22" viewBox="0 0 30 22" fill="none" xmlns="http://www.w3.org/2000/svg">
<path d="M10.8399 0.119995C9.78731 0.119995 8.91992 0.987384 8.91992 2.04V3.31999H2.83992C1.78731 3.31999 0.919922 4.18739 0.919922 5.24V19.96C0.919922 21.0126 1.78731 21.88 2.83992 21.88H27.1599C28.2125 21.88 29.0799 21.0126 29.0799 19.96V5.24C29.0799 4.18739 28.2125 3.31999 27.1599 3.31999H21.0799V2.04C21.0799 0.987384 20.2125 0.119995 19.1599 0.119995H10.8399ZM10.8399 1.4H19.1599C19.5256 1.4 19.7999 1.67437 19.7999 2.04V3.31999H10.1999V2.04C10.1999 1.67437 10.4743 1.4 10.8399 1.4ZM2.83992 4.6H27.1599C27.5256 4.6 27.7999 4.87437 27.7999 5.24V7.33C24.8719 9.5279 20.2339 11 14.9999 11C9.76595 11 5.12798 9.5279 2.19992 7.33V5.24C2.19992 4.87437 2.47429 4.6 2.83992 4.6ZM2.19992 8.91C4.78352 10.6017 8.23557 11.7546 12.1199 12.14V13.24C12.1199 13.938 12.7019 14.52 13.3999 14.52H16.5999C17.298 14.52 17.8799 13.938 17.8799 13.24V12.14C21.7643 11.7546 25.2163 10.6017 27.7999 8.91V19.96C27.7999 20.3256 27.5256 20.6 27.1599 20.6H2.83992C2.47429 20.6 2.19992 20.3256 2.19992 19.96V8.91ZM13.3999 12.24C13.9262 12.2685 14.4613 12.28 14.9999 12.28C15.5385 12.28 16.0737 12.2685 16.5999 12.24V13.24H13.3999V12.24Z" fill="white"/>
</svg>
