<svg width="14" height="30" viewBox="0 0 14 30" fill="none" xmlns="http://www.w3.org/2000/svg">
<path d="M13.4355 22.3134L10.0103 5.9976L10.751 2.2944C10.8398 1.852 10.7266 1.3984 10.4404 1.0493C10.1543 0.7002 9.73143 0.5 9.28028 0.5H4.71973C4.26858 0.5 3.84593 0.7002 3.55983 1.04905C3.27373 1.3979 3.16043 1.8518 3.24903 2.29415L3.98968 5.9976L0.564479 22.3134C0.497829 22.6304 0.588179 22.9622 0.806179 23.2009L6.26348 29.1746C6.45218 29.3814 6.72078 29.5 7.00003 29.5C7.27928 29.5 7.54788 29.3814 7.73683 29.1746L13.1939 23.2009C13.4116 22.9622 13.502 22.6304 13.4356 22.3134H13.4355ZM11.6892 18.8735L4.64488 25.9178L3.29678 24.4407L11.2001 16.5417L11.6893 18.8735H11.6892ZM3.94783 11.064L8.50673 6.49995H9.09373L9.48363 8.3587L3.19658 14.6424L3.94783 11.064ZM4.32388 9.27275L4.90598 6.49995H7.09383L4.32383 9.27275H4.32388ZM2.82103 16.4312L9.72888 9.5277L10.2189 11.864L2.06883 20.0141L2.82103 16.4312ZM4.33323 1.68305C4.42843 1.5666 4.56933 1.49995 4.71968 1.49995H9.28023C9.43063 1.49995 9.57173 1.5666 9.66693 1.68305C9.76213 1.79925 9.79973 1.9504 9.77043 2.09785L9.09023 5.49995H4.90983L4.22943 2.09785C4.19988 1.95065 4.23773 1.79925 4.33318 1.68305H4.33323ZM1.69308 21.804L10.4641 13.0329L10.9549 15.3726L2.62183 23.7011L1.54298 22.519L1.69308 21.804ZM7.00168 28.5002L5.31963 26.6571L11.9344 20.0423L12.4555 22.5266L7.00168 28.5002Z" fill="white"/>
</svg>
