<svg width="114" height="113" viewBox="0 0 114 113" fill="none" xmlns="http://www.w3.org/2000/svg">
<path d="M98.9884 60.4244C100.118 59.0967 101.26 57.2228 102.194 55.1429C103.39 52.4732 104.077 49.8754 104.077 48.018C104.077 46.1264 103.335 45.4331 102.713 45.1871C100.787 44.4161 98.5329 47.1411 96.9509 49.8307V33.873L96.9356 33.6999C96.2364 29.9851 92.8523 27.2896 88.882 27.2896H88.2734V93.165H88.882C92.8523 93.165 96.2364 90.4683 96.9356 86.7558L96.9509 86.6663V71.1724C98.5882 73.7973 100.667 75.9561 102.388 75.2675C103.009 75.0191 103.75 74.327 103.75 72.4354C103.75 70.578 103.063 67.9801 101.864 65.3105C101.02 63.4248 100.016 61.7216 98.9884 60.4244ZM95.0617 86.4863C94.5567 88.9734 92.438 90.8403 89.8284 91.2087V29.2447C92.438 29.6119 94.5579 31.4788 95.0617 33.966V86.4863ZM97.543 52.7428C99.5146 48.5606 101.545 46.8986 101.983 46.9245C101.983 46.9268 102.187 47.1422 102.187 48.0192C102.187 49.5976 101.544 51.9706 100.466 54.3695C99.6005 56.3035 98.5564 58.0232 97.543 59.2085V52.7428ZM101.7 73.5054C101.241 73.5348 99.4322 72.1094 97.543 68.3792V61.6474C98.4564 62.808 99.3804 64.383 100.143 66.085C101.218 68.4851 101.862 70.8581 101.862 72.4354C101.862 73.2182 101.7 73.4736 101.7 73.5054Z" fill="#494642"/>
<path d="M9.91406 83.3615C9.91406 88.7666 13.3876 93.1642 17.6581 93.1642H48.1999L48.2011 79.1816H9.91406V83.3615ZM12.2435 80.507H46.6402V90.8359H17.6581C14.6718 90.8359 12.2435 87.4813 12.2435 83.3615V80.507V80.507Z" fill="#494642"/>
<path d="M86.969 64.436H48.9609V78.4186H87.2467V78.1773V67.0503C87.2467 66.31 87.1738 65.5519 87.0325 64.788L86.969 64.436ZM84.9173 76.4917H50.6501V66.1652H84.8737C84.902 66.4641 84.9161 66.7584 84.9161 67.0503V76.4917H84.9173Z" fill="#494642"/>
<path d="M10.1271 64.788C9.98586 65.5507 9.91406 66.3123 9.91406 67.0503V78.1773V78.4186H48.1999V64.436H10.193L10.1271 64.788ZM12.2435 67.0503C12.2435 66.7608 12.2576 66.4641 12.2859 66.1652H46.6414V76.4917H12.2435V67.0503Z" fill="#494642"/>
<path d="M48.9609 93.164H48.968H79.5027C83.7732 93.164 87.2467 88.7664 87.2467 83.3613V79.1826H48.9609V93.164ZM50.6501 80.5068H84.9161V83.3624C84.9161 87.4822 82.4878 90.8369 79.5015 90.8369H50.6501V80.5068Z" fill="#494642"/>
<path d="M24.4194 34.6055L26.0802 33.6308L27.8259 34.4477L27.4127 32.5691L28.724 31.1625L26.81 30.973L25.879 29.2886L25.1091 31.0518L23.2188 31.4191L24.6583 32.6951L24.4194 34.6055Z" fill="#494642"/>
<path d="M33.3882 54.1802L32.4571 52.4946L31.6861 54.2579L29.7969 54.6228L31.2341 55.9011L30.9975 57.815L32.6584 56.8357L34.4004 57.6561L33.9885 55.774L35.3033 54.3685L33.3882 54.1802Z" fill="#494642"/>
<path d="M30.5792 25.1521L32.2388 24.1787L33.9821 24.9932L33.569 23.1146L34.8838 21.7092L32.9686 21.5208L32.0364 19.8364L31.2666 21.5973L29.375 21.9646L30.8158 23.2429L30.5792 25.1521Z" fill="#494642"/>
<path d="M39.7276 25.9738L41.3873 25.0016L43.1305 25.8173L42.7174 23.9363L44.0322 22.5285L42.1159 22.3413L41.1848 20.6558L40.415 22.4202L38.5234 22.7851L39.963 24.0634L39.7276 25.9738Z" fill="#494642"/>
<path d="M65.5901 48.8611L64.6602 47.1743L63.8892 48.9423L62 49.306L63.4396 50.5808L63.203 52.4947L64.8615 51.5189L66.6047 52.3358L66.1928 50.4548L67.504 49.0494L65.5901 48.8611Z" fill="#494642"/>
<path d="M72.3659 45.2816L71.4348 43.5972L70.6638 45.3593L68.7734 45.7265L70.2142 47.0013L69.9752 48.9129L71.6361 47.9406L73.3794 48.7551L72.9674 46.8753L74.281 45.4676L72.3659 45.2816Z" fill="#494642"/>
<path d="M49.1483 36.8629L50.8092 35.8883L52.5524 36.7052L52.1393 34.8242L53.4541 33.4176L51.5366 33.2292L50.6055 31.5425L49.8381 33.3093L47.9453 33.6742L49.3861 34.9513L49.1483 36.8629Z" fill="#494642"/>
<path d="M52.3893 27.7665L54.0502 26.7907L55.7934 27.6076L55.3803 25.7266L56.6963 24.3212L54.78 24.1329L53.8489 22.4473L53.0767 24.2117L51.1875 24.5766L52.6259 25.8549L52.3893 27.7665Z" fill="#494642"/>
<path d="M61.3491 31.026L63.0087 30.0514L64.7532 30.8671L64.3389 28.9873L65.6548 27.5818L63.7385 27.3923L62.8063 25.7056L62.0365 27.4712L60.1484 27.8349L61.5857 29.1156L61.3491 31.026Z" fill="#494642"/>
<path d="M72.3502 36.8642L74.0111 35.8884L75.7532 36.7041L75.3412 34.8243L76.6548 33.4188L74.7385 33.2293L73.8086 31.5449L73.0377 33.3094L71.1484 33.6743L72.5868 34.9514L72.3502 36.8642Z" fill="#494642"/>
<path d="M27.8827 45.6429L26.9504 43.9585L26.1795 45.7218L24.2891 46.0855L25.7286 47.365L25.492 49.2754L27.1506 48.3008L28.8938 49.1177L28.483 47.2378L29.7966 45.8312L27.8827 45.6429Z" fill="#494642"/>
<path d="M38.2788 45.2814L37.3465 43.5981L36.5767 45.3602L34.6875 45.7251L36.1283 47.0011L35.8893 48.9127L37.549 47.9404L39.2922 48.7549L38.8803 46.8751L40.1927 45.4673L38.2788 45.2814Z" fill="#494642"/>
<path d="M50.9153 56.506C53.1494 56.5319 57.6824 56.8262 62.1059 58.5188L63.8939 58.1751L64.5566 56.6614C64.287 56.0658 63.9751 55.5467 63.5702 55.1406C63.2123 54.784 62.8004 54.5309 62.3072 54.3661C58.7477 53.1796 54.7161 54.412 52.3808 55.3902C52.3149 55.5761 52.2796 55.6821 52.2761 55.6927L51.3673 55.841C51.1825 55.9304 51.0236 56.0081 50.8906 56.0764L50.9153 56.506Z" fill="#494642"/>
<path d="M67.638 38.5331L67.2908 38.6108C66.0843 38.8815 64.8578 39.2946 63.5394 39.8702C56.6488 42.8765 52.9068 50.7206 51.625 53.9293C51.7827 53.8622 51.9546 53.7916 52.1288 53.7233C53.5201 50.3769 57.2032 43.0484 63.696 40.2198C66.7894 38.8709 69.4955 40.3917 72.6289 42.1561C73.354 42.5634 74.1073 42.9872 74.8959 43.3921C75.2173 43.6369 75.4939 43.7746 75.7893 43.8429C76.3426 43.9759 76.9111 43.8864 77.3925 43.5875C77.8763 43.292 78.2141 42.8247 78.3471 42.275C78.519 41.5511 78.3083 40.806 77.7821 40.2799C77.5067 40.0032 77.1583 39.8102 76.7757 39.7184L76.6957 39.6901C73.826 38.3436 70.9927 37.9433 68.0394 38.4636L67.638 38.5331Z" fill="#494642"/>
<path d="M50.5235 50.4125C50.4965 50.9857 50.4588 51.5284 50.4141 52.0333L50.52 52.0369C50.6742 50.0758 51.6288 41.8574 56.8139 37.6223C58.9938 35.8414 61.4939 36.4487 64.386 37.1538C65.0511 37.3163 65.7409 37.4846 66.4565 37.6294C66.7426 37.74 66.9662 37.7824 67.1981 37.7824H67.5077L67.8066 37.6623C68.4623 37.3987 68.8813 36.7524 68.8554 36.0544C68.8378 35.6319 68.6659 35.2352 68.3669 34.9362C68.0326 34.6019 67.5901 34.4301 67.1169 34.4477L67.0321 34.4418C63.2502 33.8109 60.065 34.7538 56.7079 37.4964C52.3445 41.0606 50.9591 47.2226 50.5235 50.4125Z" fill="#494642"/>
<path d="M22.5958 41.3558C23.122 41.8808 23.8683 42.0915 24.5898 41.9208C24.8864 41.849 25.1631 41.7113 25.415 41.5112C26.2707 41.0627 27.0217 40.6413 27.7468 40.2329C30.8825 38.4672 33.5874 36.9441 36.6844 38.2954C38.5182 39.0946 40.2733 40.3247 41.9012 41.9538C46.0069 46.0594 48.2151 51.6023 48.7671 53.1196L49.0119 53.0407L48.9825 53.6787C48.9072 54.2425 48.8319 54.6898 48.773 55.0158C46.6295 56.0858 45.2111 57.6054 44.2907 59.7877L44.2506 59.8619C43.9152 60.3469 43.974 61.0025 44.3907 61.4192C44.4425 61.4698 44.5014 61.5181 44.5637 61.5593C44.8333 61.7476 45.1582 61.817 45.4807 61.757C45.802 61.697 46.0798 61.5169 46.2646 61.2473C46.3635 61.1049 46.4306 60.9389 46.46 60.7577C46.6849 60.1432 46.8602 59.6159 47.0321 59.1097C47.5677 57.5207 48.0609 56.0952 49.0602 55.1394C49.0873 55.1359 49.1179 55.1312 49.1438 55.1288C49.1485 55.1053 49.1544 55.0723 49.1591 55.0476C49.378 54.8511 49.6123 54.6698 49.8842 54.5203C49.6452 54.6133 49.4251 54.7157 49.2015 54.8169C49.2886 54.3308 49.3933 53.6634 49.4887 52.8371L49.4722 52.8359L49.4875 52.418C49.4922 52.3062 49.5287 51.5234 49.6876 50.3511C49.8736 46.2207 49.4051 40.48 46.1999 36.0448C45.5549 35.1514 44.911 34.3698 44.2342 33.6671L43.9858 33.4164C41.4492 30.8798 38.5865 29.5402 34.9693 29.193L34.8869 29.1765C33.7687 28.8328 32.5787 29.4614 32.2314 30.5772C31.8972 31.6625 32.5375 32.8914 33.6322 33.228C33.9206 33.3187 34.2301 33.341 34.5479 33.2963C35.5167 33.3457 36.3783 33.3646 37.2105 33.3811C40.4534 33.4505 43.2537 33.5094 45.2394 35.4951C45.4713 35.7258 45.6902 35.9848 45.8891 36.2614C49.1473 40.7684 49.5087 46.8116 49.2391 51.0867L49.1285 52.8406L48.4352 51.2245C47.3052 48.5878 45.31 44.7964 42.2272 41.7136C40.5558 40.0422 38.7454 38.7733 36.8433 37.9434C31.9913 35.8259 27.9339 35.7705 23.6882 37.761L23.607 37.7892C22.4699 38.0611 21.7636 39.21 22.0344 40.347C22.1262 40.7319 22.3204 41.0792 22.5958 41.3558Z" fill="#494642"/>
<path d="M63.2014 39.1029C63.9618 38.7697 64.6939 38.4896 65.4108 38.2589C65.0035 38.1671 64.5927 38.067 64.1866 37.9681C61.3993 37.289 59.1993 36.7534 57.343 38.2707C51.8331 42.773 51.3399 52.2309 51.3281 52.4757C52.9961 48.7149 56.7757 41.9067 63.2014 39.1029Z" fill="#494642"/>
<path d="M35.3648 60.7164C35.6344 60.9047 35.9592 60.9742 36.2818 60.9142C36.6031 60.8541 36.8809 60.6729 37.0657 60.4033C37.1646 60.2609 37.2317 60.0949 37.2611 59.9136C37.4859 59.3004 37.6613 58.773 37.8332 58.2657C38.4994 56.2906 39.0856 54.5508 40.6852 53.6763C37.9026 54.7557 36.164 56.4024 35.0929 58.9437L35.0529 59.0179C34.7174 59.504 34.7763 60.1585 35.193 60.5763C35.2424 60.6269 35.3012 60.6752 35.3648 60.7164Z" fill="#494642"/>
<path d="M44.7929 32.4205L45.3696 32.0826L45.9723 32.3651L45.8299 31.7154L46.2866 31.2281L45.6215 31.1622L45.299 30.5771L45.0318 31.1881L44.375 31.3152L44.8741 31.7566L44.7929 32.4205Z" fill="#494642"/>
<path d="M66.4512 59.4181C66.5254 59.6253 66.589 59.8254 66.669 60.0337C66.7208 60.2985 66.7879 60.461 66.8856 60.6058C67.2776 61.1778 68.0379 61.2944 68.5876 60.92C68.856 60.7329 69.0361 60.4539 69.0961 60.1326C69.155 59.8136 69.0844 59.4864 68.8996 59.218L68.8584 59.1426C67.7778 56.5778 66.0911 54.9664 63.2578 53.874C63.5886 54.0541 63.8864 54.2778 64.1618 54.552C65.0552 55.4466 65.5343 56.7461 66.0075 58.141L66.4512 59.4181Z" fill="#494642"/>
</svg>
