<svg width="170" height="170" viewBox="0 0 170 170" fill="none" xmlns="http://www.w3.org/2000/svg">
<path d="M144.463 90.5563C146.063 88.6763 147.679 86.023 149.001 83.078C150.694 79.298 151.668 75.6196 151.668 72.9896C151.668 70.3113 150.618 69.3296 149.736 68.9813C147.009 67.8897 143.818 71.748 141.578 75.5563V52.9613L141.556 52.7163C140.566 47.4563 135.774 43.6396 130.153 43.6396H129.291V136.915H130.153C135.774 136.915 140.566 133.096 141.556 127.84L141.578 127.713V105.775C143.896 109.491 146.839 112.548 149.276 111.573C150.156 111.221 151.204 110.241 151.204 107.563C151.204 104.933 150.233 101.255 148.534 97.4747C147.339 94.8047 145.918 92.393 144.463 90.5563ZM138.903 127.458C138.188 130.98 135.188 133.623 131.493 134.145V46.408C135.188 46.928 138.189 49.5713 138.903 53.093V127.458ZM142.416 79.6796C145.208 73.758 148.083 71.4047 148.703 71.4413C148.703 71.4447 148.991 71.7496 148.991 72.9913C148.991 75.2263 148.081 78.5863 146.554 81.983C145.329 84.7213 143.851 87.1563 142.416 88.8346V79.6796ZM148.303 109.078C147.653 109.12 145.091 107.101 142.416 101.82V92.288C143.709 93.9313 145.018 96.1613 146.098 98.5713C147.619 101.97 148.531 105.33 148.531 107.563C148.531 108.671 148.303 109.033 148.303 109.078Z" fill="#494642"/>
<path d="M18.334 123.033C18.334 130.686 23.2523 136.913 29.299 136.913H72.544L72.5456 117.115H18.334V123.033ZM21.6323 118.991H70.3356V133.616H29.299C25.0707 133.616 21.6323 128.866 21.6323 123.033V118.991Z" fill="#494642"/>
<path d="M127.44 96.2363H73.623V116.035H127.833V115.693V99.938C127.833 98.8897 127.73 97.8163 127.53 96.7347L127.44 96.2363ZM124.535 113.306H76.0147V98.6847H124.473C124.513 99.108 124.533 99.5247 124.533 99.938V113.306H124.535Z" fill="#494642"/>
<path d="M18.6357 96.7347C18.4357 97.8147 18.334 98.893 18.334 99.938V115.693V116.035H72.544V96.2363H18.729L18.6357 96.7347ZM21.6323 99.938C21.6323 99.528 21.6523 99.108 21.6923 98.6847H70.3373V113.306H21.6323V99.938Z" fill="#494642"/>
<path d="M73.623 136.913H73.633H116.868C122.915 136.913 127.833 130.686 127.833 123.033V117.116H73.623V136.913ZM76.0147 118.991H124.533V123.035C124.533 128.868 121.095 133.618 116.866 133.618H76.0147V118.991Z" fill="#494642"/>
<path d="M38.8758 53.9981L41.2274 52.6181L43.6991 53.7747L43.1141 51.1147L44.9708 49.1231L42.2608 48.8547L40.9424 46.4697L39.8524 48.9664L37.1758 49.4864L39.2141 51.2931L38.8758 53.9981Z" fill="#494642"/>
<path d="M51.5752 81.7148L50.2569 79.3281L49.1652 81.8248L46.4902 82.3415L48.5252 84.1515L48.1902 86.8615L50.5419 85.4748L53.0086 86.6365L52.4252 83.9715L54.2869 81.9815L51.5752 81.7148Z" fill="#494642"/>
<path d="M47.5937 40.6131L49.9437 39.2348L52.412 40.3881L51.827 37.7281L53.6887 35.7381L50.977 35.4714L49.657 33.0864L48.567 35.5798L45.8887 36.0998L47.9287 37.9098L47.5937 40.6131Z" fill="#494642"/>
<path d="M60.5487 41.7766L62.8987 40.3999L65.3671 41.5549L64.7821 38.8916L66.6438 36.8982L63.9304 36.6332L62.6121 34.2466L61.5221 36.7449L58.8438 37.2616L60.8821 39.0716L60.5487 41.7766Z" fill="#494642"/>
<path d="M97.1693 74.1833L95.8526 71.7949L94.7609 74.2983L92.0859 74.8133L94.1243 76.6183L93.7893 79.3283L96.1376 77.9466L98.6059 79.1033L98.0226 76.4399L99.8793 74.4499L97.1693 74.1833Z" fill="#494642"/>
<path d="M106.766 69.115L105.448 66.73L104.356 69.225L101.68 69.745L103.72 71.55L103.381 74.2566L105.733 72.88L108.201 74.0333L107.618 71.3717L109.478 69.3783L106.766 69.115Z" fill="#494642"/>
<path d="M73.885 57.195L76.2366 55.815L78.705 56.9716L78.12 54.3083L79.9816 52.3166L77.2666 52.05L75.9483 49.6616L74.8616 52.1633L72.1816 52.68L74.2216 54.4883L73.885 57.195Z" fill="#494642"/>
<path d="M78.4771 44.3149L80.8287 42.9332L83.2971 44.0899L82.7121 41.4265L84.5754 39.4365L81.8621 39.1699L80.5437 36.7832L79.4504 39.2815L76.7754 39.7982L78.8121 41.6082L78.4771 44.3149Z" fill="#494642"/>
<path d="M91.1609 48.9298L93.5109 47.5498L95.9809 48.7048L95.3943 46.0432L97.2576 44.0532L94.5443 43.7848L93.2243 41.3965L92.1343 43.8965L89.4609 44.4115L91.4959 46.2248L91.1609 48.9298Z" fill="#494642"/>
<path d="M106.737 57.1962L109.088 55.8146L111.555 56.9696L110.972 54.3079L112.832 52.3179L110.118 52.0496L108.802 49.6646L107.71 52.1629L105.035 52.6796L107.072 54.4879L106.737 57.1962Z" fill="#494642"/>
<path d="M43.7797 69.6262L42.4597 67.2412L41.3681 69.7379L38.6914 70.2529L40.7297 72.0645L40.3947 74.7695L42.7431 73.3895L45.2114 74.5462L44.6297 71.8845L46.4897 69.8929L43.7797 69.6262Z" fill="#494642"/>
<path d="M58.501 69.1148L57.181 66.7314L56.091 69.2264L53.416 69.7431L55.456 71.5498L55.1177 74.2564L57.4677 72.8798L59.936 74.0331L59.3527 71.3714L61.211 69.3781L58.501 69.1148Z" fill="#494642"/>
<path d="M76.3866 85.0079C79.5499 85.0446 85.9682 85.4613 92.2316 87.8579L94.7632 87.3713L95.7016 85.2279C95.3199 84.3846 94.8782 83.6496 94.3049 83.0746C93.7982 82.5696 93.2149 82.2112 92.5166 81.9779C87.4766 80.2979 81.7682 82.0429 78.4616 83.4279C78.3682 83.6912 78.3182 83.8412 78.3132 83.8562L77.0266 84.0662C76.7649 84.1929 76.5399 84.3029 76.3516 84.3996L76.3866 85.0079Z" fill="#494642"/>
<path d="M100.066 59.5597L99.5742 59.6697C97.8659 60.053 96.1292 60.638 94.2626 61.453C84.5059 65.7097 79.2076 76.8164 77.3926 81.3597C77.6159 81.2647 77.8592 81.1647 78.1059 81.068C80.0759 76.3297 85.2909 65.953 94.4842 61.948C98.8642 60.038 102.696 62.1914 107.133 64.6897C108.159 65.2664 109.226 65.8664 110.343 66.4397C110.798 66.7864 111.189 66.9814 111.608 67.078C112.391 67.2664 113.196 67.1397 113.878 66.7164C114.563 66.298 115.041 65.6364 115.229 64.858C115.473 63.833 115.174 62.778 114.429 62.033C114.039 61.6414 113.546 61.368 113.004 61.238L112.891 61.198C108.828 59.2914 104.816 58.7247 100.634 59.4614L100.066 59.5597Z" fill="#494642"/>
<path d="M75.8327 76.3799C75.7944 77.1916 75.7411 77.9599 75.6777 78.6749L75.8277 78.6799C76.0461 75.9032 77.3977 64.2666 84.7394 58.2699C87.8261 55.7482 91.3661 56.6082 95.4611 57.6066C96.4027 57.8366 97.3794 58.0749 98.3927 58.2799C98.7977 58.4366 99.1144 58.4966 99.4427 58.4966H99.8811L100.304 58.3266C101.233 57.9532 101.826 57.0382 101.789 56.0499C101.764 55.4516 101.521 54.8899 101.098 54.4666C100.624 53.9932 99.9977 53.7499 99.3277 53.7749L99.2077 53.7666C93.8527 52.8732 89.3427 54.2082 84.5894 58.0916C78.4111 63.1382 76.4494 71.8632 75.8327 76.3799Z" fill="#494642"/>
<path d="M36.2909 63.5563C37.0359 64.2997 38.0926 64.598 39.1143 64.3563C39.5343 64.2547 39.9259 64.0597 40.2826 63.7763C41.4943 63.1413 42.5576 62.5447 43.5843 61.9663C48.0243 59.4663 51.8543 57.3097 56.2393 59.223C58.8359 60.3547 61.3209 62.0963 63.6259 64.403C69.4393 70.2163 72.5659 78.0646 73.3476 80.213L73.6943 80.1013L73.6526 81.0047C73.5459 81.803 73.4393 82.4363 73.3559 82.898C70.3209 84.413 68.3126 86.5646 67.0093 89.6546L66.9526 89.7596C66.4776 90.4463 66.5609 91.3746 67.1509 91.9646C67.2243 92.0363 67.3076 92.1046 67.3959 92.163C67.7776 92.4296 68.2376 92.528 68.6943 92.443C69.1493 92.358 69.5426 92.103 69.8043 91.7213C69.9443 91.5196 70.0393 91.2846 70.0809 91.028C70.3993 90.158 70.6476 89.4113 70.8909 88.6946C71.6493 86.4446 72.3476 84.4263 73.7626 83.073C73.8009 83.068 73.8443 83.0613 73.8809 83.058C73.8876 83.0246 73.8959 82.978 73.9026 82.943C74.2126 82.6646 74.5443 82.408 74.9293 82.1963C74.5909 82.328 74.2793 82.473 73.9626 82.6163C74.0859 81.928 74.2343 80.983 74.3693 79.813L74.3459 79.8113L74.3676 79.2197C74.3743 79.0613 74.4259 77.953 74.6509 76.293C74.9143 70.4447 74.2509 62.3163 69.7126 56.0363C68.7993 54.7713 67.8876 53.6647 66.9293 52.6697L66.5776 52.3147C62.9859 48.723 58.9326 46.8263 53.8109 46.3347L53.6943 46.3113C52.1109 45.8247 50.4259 46.7147 49.9342 48.2947C49.4609 49.8313 50.3676 51.5713 51.9176 52.048C52.3259 52.1763 52.7643 52.208 53.2143 52.1447C54.5859 52.2147 55.8059 52.2413 56.9843 52.2647C61.5759 52.363 65.5409 52.4463 68.3526 55.258C68.6809 55.5847 68.9909 55.9513 69.2726 56.343C73.8859 62.7247 74.3976 71.2813 74.0159 77.3347L73.8593 79.818L72.8776 77.5297C71.2776 73.7963 68.4526 68.428 64.0876 64.063C61.7209 61.6963 59.1576 59.8997 56.4643 58.7247C49.5943 55.7263 43.8493 55.648 37.8376 58.4663L37.7226 58.5063C36.1126 58.8913 35.1126 60.518 35.4959 62.128C35.6259 62.673 35.9009 63.1647 36.2909 63.5563Z" fill="#494642"/>
<path d="M93.7863 60.3662C94.8629 59.8945 95.8996 59.4978 96.9146 59.1712C96.3379 59.0412 95.7563 58.8995 95.1813 58.7595C91.2346 57.7978 88.1196 57.0395 85.4913 59.1878C77.6896 65.5629 76.9913 78.9545 76.9746 79.3012C79.3363 73.9762 84.6879 64.3362 93.7863 60.3662Z" fill="#494642"/>
<path d="M54.3758 90.9698C54.7575 91.2365 55.2175 91.3348 55.6741 91.2498C56.1291 91.1648 56.5225 90.9081 56.7841 90.5265C56.9241 90.3248 57.0191 90.0898 57.0608 89.8331C57.3791 88.9648 57.6275 88.2181 57.8708 87.4998C58.8141 84.7031 59.6441 82.2398 61.9091 81.0015C57.9691 82.5298 55.5075 84.8615 53.9908 88.4598L53.9341 88.5648C53.4591 89.2531 53.5425 90.1798 54.1325 90.7715C54.2025 90.8431 54.2858 90.9115 54.3758 90.9698Z" fill="#494642"/>
<path d="M67.7167 50.9049L68.5333 50.4266L69.3867 50.8266L69.185 49.9066L69.8317 49.2166L68.89 49.1233L68.4333 48.2949L68.055 49.1599L67.125 49.3399L67.8317 49.9649L67.7167 50.9049Z" fill="#494642"/>
<path d="M98.3889 89.1312C98.4939 89.4246 98.5839 89.7079 98.6972 90.0029C98.7705 90.3779 98.8655 90.6079 99.0039 90.8129C99.5589 91.6229 100.636 91.7879 101.414 91.2579C101.794 90.9929 102.049 90.5979 102.134 90.1429C102.217 89.6912 102.117 89.2279 101.856 88.8479L101.797 88.7412C100.267 85.1096 97.8789 82.8279 93.8672 81.2812C94.3355 81.5362 94.7572 81.8529 95.1472 82.2413C96.4122 83.5079 97.0905 85.3479 97.7605 87.3229L98.3889 89.1312Z" fill="#494642"/>
</svg>
