<svg width="25" height="24" viewBox="0 0 25 24" fill="none" xmlns="http://www.w3.org/2000/svg">
<path d="M3.5 18V9C3.5 7.89543 4.39543 7 5.5 7H6.42963C7.09834 7 7.7228 6.6658 8.09373 6.1094L8.90627 4.8906C9.2772 4.3342 9.90166 4 10.5704 4H14.4296C15.0983 4 15.7228 4.3342 16.0937 4.8906L16.9063 6.1094C17.2772 6.6658 17.9017 7 18.5704 7H19.5C20.6046 7 21.5 7.89543 21.5 9V18C21.5 19.1046 20.6046 20 19.5 20H5.5C4.39543 20 3.5 19.1046 3.5 18Z" stroke="#494642" stroke-width="2" stroke-linecap="round" stroke-linejoin="round"/>
<circle cx="12.5" cy="13" r="3" stroke="#494642" stroke-width="2" stroke-linecap="round" stroke-linejoin="round"/>
</svg>
