<svg width="25" height="24" viewBox="0 0 25 24" fill="none" xmlns="http://www.w3.org/2000/svg">
<path d="M20 3H5C4.40326 3 3.83097 3.23705 3.40901 3.65901C2.98705 4.08097 2.75 4.65326 2.75 5.25V14.25C2.75 14.8467 2.98705 15.419 3.40901 15.841C3.83097 16.2629 4.40326 16.5 5 16.5H20C20.5967 16.5 21.169 16.2629 21.591 15.841C22.0129 15.419 22.25 14.8467 22.25 14.25V5.25C22.25 4.65326 22.0129 4.08097 21.591 3.65901C21.169 3.23705 20.5967 3 20 3ZM8 10.5C7.85166 10.5 7.70666 10.456 7.58332 10.3736C7.45999 10.2912 7.36386 10.1741 7.30709 10.037C7.25032 9.89997 7.23547 9.74917 7.26441 9.60368C7.29335 9.4582 7.36478 9.32456 7.46967 9.21967C7.57456 9.11478 7.7082 9.04335 7.85368 9.01441C7.99917 8.98547 8.14997 9.00032 8.28701 9.05709C8.42406 9.11386 8.54119 9.20999 8.6236 9.33332C8.70601 9.45666 8.75 9.60166 8.75 9.75C8.75 9.94891 8.67098 10.1397 8.53033 10.2803C8.38968 10.421 8.19891 10.5 8 10.5ZM12.5 9C13.0301 8.999 13.5435 9.18564 13.9492 9.52687C14.3549 9.86811 14.6267 10.3419 14.7165 10.8644C14.8064 11.3868 14.7084 11.9242 14.44 12.3814C14.1716 12.8385 13.75 13.1859 13.25 13.362V13.5C13.25 13.6989 13.171 13.8897 13.0303 14.0303C12.8897 14.171 12.6989 14.25 12.5 14.25C12.3011 14.25 12.1103 14.171 11.9697 14.0303C11.829 13.8897 11.75 13.6989 11.75 13.5V13.362C11.3128 13.2074 10.9341 12.9216 10.6656 12.5435C10.3971 12.1655 10.2519 11.7137 10.25 11.25C10.25 11.0511 10.329 10.8603 10.4697 10.7197C10.6103 10.579 10.8011 10.5 11 10.5C11.1989 10.5 11.3897 10.579 11.5303 10.7197C11.671 10.8603 11.75 11.0511 11.75 11.25C11.75 11.3983 11.794 11.5433 11.8764 11.6667C11.9588 11.79 12.0759 11.8861 12.213 11.9429C12.35 11.9997 12.5008 12.0145 12.6463 11.9856C12.7918 11.9567 12.9254 11.8852 13.0303 11.7803C13.1352 11.6754 13.2067 11.5418 13.2356 11.3963C13.2645 11.2508 13.2497 11.1 13.1929 10.963C13.1361 10.8259 13.04 10.7088 12.9167 10.6264C12.7933 10.544 12.6483 10.5 12.5 10.5C11.9699 10.501 11.4565 10.3144 11.0508 9.97313C10.6451 9.63189 10.3733 9.15809 10.2835 8.63563C10.1936 8.11318 10.2916 7.57579 10.56 7.11865C10.8284 6.66151 11.25 6.31412 11.75 6.138V6C11.75 5.80109 11.829 5.61032 11.9697 5.46967C12.1103 5.32902 12.3011 5.25 12.5 5.25C12.6989 5.25 12.8897 5.32902 13.0303 5.46967C13.171 5.61032 13.25 5.80109 13.25 6V6.138C13.6872 6.29256 14.0659 6.57842 14.3344 6.95648C14.6029 7.33453 14.7481 7.7863 14.75 8.25C14.75 8.44891 14.671 8.63968 14.5303 8.78033C14.3897 8.92098 14.1989 9 14 9C13.8011 9 13.6103 8.92098 13.4697 8.78033C13.329 8.63968 13.25 8.44891 13.25 8.25C13.25 8.10166 13.206 7.95666 13.1236 7.83332C13.0412 7.70999 12.9241 7.61386 12.787 7.55709C12.65 7.50032 12.4992 7.48547 12.3537 7.51441C12.2082 7.54335 12.0746 7.61478 11.9697 7.71967C11.8648 7.82456 11.7933 7.9582 11.7644 8.10368C11.7355 8.24917 11.7503 8.39997 11.8071 8.53701C11.8639 8.67406 11.96 8.79119 12.0833 8.8736C12.2067 8.95601 12.3517 9 12.5 9ZM17 10.5C16.8517 10.5 16.7067 10.456 16.5833 10.3736C16.46 10.2912 16.3639 10.1741 16.3071 10.037C16.2503 9.89997 16.2355 9.74917 16.2644 9.60368C16.2933 9.4582 16.3648 9.32456 16.4697 9.21967C16.5746 9.11478 16.7082 9.04335 16.8537 9.01441C16.9992 8.98547 17.15 9.00032 17.287 9.05709C17.4241 9.11386 17.5412 9.20999 17.6236 9.33332C17.706 9.45666 17.75 9.60166 17.75 9.75C17.75 9.94891 17.671 10.1397 17.5303 10.2803C17.3897 10.421 17.1989 10.5 17 10.5Z" fill="black"/>
<path d="M5.75 21.5H19.25C19.4489 21.5 19.6397 21.421 19.7803 21.2803C19.921 21.1397 20 20.9489 20 20.75C20 20.5511 19.921 20.3603 19.7803 20.2197C19.6397 20.079 19.4489 20 19.25 20H5.75C5.55109 20 5.36032 20.079 5.21967 20.2197C5.07902 20.3603 5 20.5511 5 20.75C5 20.9489 5.07902 21.1397 5.21967 21.2803C5.36032 21.421 5.55109 21.5 5.75 21.5Z" fill="black"/>
<path d="M7.25 19H17.75C17.9489 19 18.1397 18.921 18.2803 18.7803C18.421 18.6397 18.5 18.4489 18.5 18.25C18.5 18.0511 18.421 17.8603 18.2803 17.7197C18.1397 17.579 17.9489 17.5 17.75 17.5H7.25C7.05109 17.5 6.86032 17.579 6.71967 17.7197C6.57902 17.8603 6.5 18.0511 6.5 18.25C6.5 18.4489 6.57902 18.6397 6.71967 18.7803C6.86032 18.921 7.05109 19 7.25 19Z" fill="black"/>
</svg>
