<svg width="40" height="40" viewBox="0 0 40 40" fill="none" xmlns="http://www.w3.org/2000/svg">
<path d="M19.54 25.4126V28.7881L19.9482 28.5228L20.3564 28.7881V25.4126L19.9482 25.6779L19.54 25.4126Z" fill="#494642"/>
<path d="M15.5276 32.8103L15.499 32.792L15.5276 32.8122V36.9226L19.5398 39.5389V35.4287L15.5276 32.8042V32.8103Z" fill="#494642"/>
<path d="M19.9473 29.498L15.9473 32.1062L19.9473 34.7225L23.9881 32.1266L19.9473 29.498Z" fill="#494642"/>
<path d="M20.3564 39.5387L24.3769 36.9225V32.853L20.3564 35.4326V39.5387Z" fill="#494642"/>
<path d="M6.35599 13.6045L2.34375 10.98V15.0942L6.35599 17.7147V13.6045Z" fill="#494642"/>
<path d="M10.7843 10.2861L6.76385 7.67383L2.75977 10.282L6.76385 12.8983L10.7843 10.2861Z" fill="#494642"/>
<path d="M7.17188 17.7147L11.1923 15.0942V10.9922L7.17188 13.6045V17.7147Z" fill="#494642"/>
<path d="M28.8008 29.094L32.8134 31.7135V27.6052L28.8008 24.9907V29.094Z" fill="#494642"/>
<path d="M33.6299 31.7138L37.65 29.0942V25.0088L33.6299 27.6073V31.7138Z" fill="#494642"/>
<path d="M33.2218 21.6738L29.2119 24.2842L33.2223 26.897L37.2531 24.2933L33.2218 21.6738Z" fill="#494642"/>
<path d="M19.9475 14.396L15.9199 17.0178L19.9486 19.6188L24.0126 17.0373L19.9475 14.396Z" fill="#494642"/>
<path d="M20.3564 24.4363L24.3769 21.8165V17.7744L20.3564 20.3337V24.4363Z" fill="#494642"/>
<path d="M19.5396 20.3291L15.5273 17.7363V21.8167L19.5396 24.436V20.3291Z" fill="#494642"/>
<path d="M20.3564 10.5012L24.376 7.88574V3.91357L20.3564 6.40794V10.5012Z" fill="#494642"/>
<path d="M24.0692 3.14281L19.9484 0.461426L15.9443 3.07167L19.9495 5.68739L24.0692 3.14281Z" fill="#494642"/>
<path d="M19.5405 6.39527L15.5273 3.7749V7.88605L19.5405 10.5022V6.39527Z" fill="#494642"/>
<path d="M6.76422 21.6738L2.74512 24.2902L6.76602 26.897L10.7866 24.2875L6.76422 21.6738Z" fill="#494642"/>
<path d="M2.34375 29.0941L6.35759 31.7144V27.6065L2.34375 25.0029V29.0941Z" fill="#494642"/>
<path d="M7.17383 31.7127L11.1926 29.094V24.9971L7.17383 27.6059V31.7127Z" fill="#494642"/>
<path d="M6.35547 18.5308V20.9634L6.76363 20.6981L7.1718 20.9634V18.5308L6.76363 18.796L6.35547 18.5308Z" fill="#494642"/>
<path d="M32.8281 20.9634L33.2363 20.6981L33.6445 20.9634V18.5308L33.2363 18.796L32.8281 18.5308V20.9634Z" fill="#494642"/>
<path d="M27.9924 9.57964L25.1924 7.91846V8.32662L24.7598 8.60825L27.9924 10.5266V9.57964Z" fill="#494642"/>
<path d="M11.65 9.87362L12.0092 10.1063C12.0092 10.1474 12.0092 10.6535 12.0092 10.6124L15.1684 8.62464L14.7112 8.32668V7.95117C14.6701 7.97701 11.445 10.0024 11.65 9.87362Z" fill="#494642"/>
<path d="M28.7211 30.084C28.7183 30.0858 28.7176 30.0862 28.7211 30.084V30.084Z" fill="#494642"/>
<path d="M28.7764 30.0494L28.0212 29.5596L24.7314 31.6371L24.7478 31.6453L25.1927 31.9351V32.3106V32.3228C27.9136 30.5967 28.606 30.1574 28.7457 30.0688C28.7405 30.0721 28.7354 30.0753 28.731 30.0781C28.74 30.0724 28.7543 30.0634 28.7764 30.0494C28.776 30.0496 28.7751 30.0501 28.7746 30.0505C28.775 30.0502 28.776 30.0496 28.7764 30.0494Z" fill="#494642"/>
<path d="M28.7764 30.05C28.7786 30.0486 28.779 30.0483 28.7764 30.05V30.05Z" fill="#494642"/>
<path d="M28.7311 30.0781C28.7266 30.081 28.7236 30.0829 28.7217 30.0841C28.7238 30.0828 28.7268 30.0809 28.7311 30.0781Z" fill="#494642"/>
<path d="M12.0091 29.5351L11.4785 29.882L14.5071 32.0697L14.7112 32.2208V31.9391L15.205 31.6167L15.2377 31.5922L12.0091 29.2534V29.5351Z" fill="#494642"/>
<path d="M12.1859 6.95526L11.7666 6.25488L11.0662 6.67421L11.4856 7.37458L12.1859 6.95526Z" fill="#494642"/>
<path d="M10.7846 7.79364L10.3652 7.09326L9.66486 7.51259L10.0842 8.21296L10.7846 7.79364Z" fill="#494642"/>
<path d="M13.5863 6.11639L13.167 5.41602L12.4665 5.83543L12.8858 6.5358L13.5863 6.11639Z" fill="#494642"/>
<path d="M28.6056 6.67372L27.9053 6.25439L27.4859 6.95477L28.1863 7.37409L28.6056 6.67372Z" fill="#494642"/>
<path d="M30.007 7.51259L29.3066 7.09326L28.8873 7.79363L29.5877 8.21296L30.007 7.51259Z" fill="#494642"/>
<path d="M27.2034 5.83486L26.5029 5.41553L26.0837 6.1159L26.7842 6.53523L27.2034 5.83486Z" fill="#494642"/>
<path d="M28.3392 15.7637L27.9923 15.5351V15.0249C27.9186 15.0618 24.7992 16.6214 24.8412 16.6004L25.1923 16.829C25.1923 16.8701 25.1923 17.3803 25.1923 17.3392L28.3392 15.7637Z" fill="#494642"/>
<path d="M12.0088 15.5348L11.6455 15.7716L14.7108 17.3348C14.7108 17.2937 14.7108 16.7917 14.7108 16.8328L15.0659 16.6001C15.0249 16.5792 11.8033 14.9361 12.0088 15.0409V15.5348Z" fill="#494642"/>
<path d="M32.8199 13.6045L28.8076 10.98V15.0942L32.8199 17.7147V13.6045Z" fill="#494642"/>
<path d="M33.2277 12.8983L37.2481 10.2861L33.2277 7.67383L29.2236 10.282L33.2277 12.8983Z" fill="#494642"/>
<path d="M33.6367 13.6045V17.7147L37.6571 15.0942V10.9922L33.6367 13.6045Z" fill="#494642"/>
</svg>
