<svg width="40" height="40" viewBox="0 0 40 40" fill="none" xmlns="http://www.w3.org/2000/svg">
<path d="M20.0002 4.88006C11.7202 4.88006 4.96016 11.6401 4.96016 19.9201C4.96016 25.5201 8.04016 30.4401 12.6402 33.0401L10.0802 35.6001C9.60016 36.0801 9.60016 36.8401 10.0802 37.2801C10.3202 37.5201 10.6402 37.6401 10.9202 37.6401C11.2402 37.6401 11.5202 37.5201 11.7602 37.2801L14.9202 34.1201C16.4802 34.6801 18.2002 35.0001 19.9602 35.0001C21.7202 35.0001 23.4002 34.6801 25.0002 34.1201L28.1602 37.2801C28.4002 37.5201 28.7202 37.6401 29.0002 37.6401C29.2802 37.6401 29.6002 37.5201 29.8402 37.2801C30.3202 36.8001 30.3202 36.0401 29.8402 35.6001L27.2802 33.0401C31.8402 30.4801 34.9602 25.5601 34.9602 19.9201C35.0402 11.6401 28.2802 4.88006 20.0002 4.88006ZM18.8002 13.5201C18.8002 12.8401 19.3202 12.3201 20.0002 12.3201C20.6802 12.3201 21.2002 12.8401 21.2002 13.5201V15.9201V19.1601L23.3602 20.2401L24.8002 20.9601C25.4002 21.2401 25.6402 21.9601 25.3202 22.5601C25.1202 22.9601 24.6802 23.2401 24.2402 23.2401C24.0402 23.2401 23.8802 23.2001 23.7202 23.1201L18.8002 20.6401V13.5201ZM37.9602 6.28006L37.2402 9.84006C37.1202 10.5601 36.6002 11.1201 35.9202 11.3201C35.7202 11.3601 35.5602 11.4001 35.3602 11.4001C34.8402 11.4001 34.3602 11.2001 34.0002 10.8401L29.5602 6.44006C29.0402 5.92006 28.8802 5.20006 29.0802 4.52006C29.2802 3.84006 29.8402 3.32006 30.5602 3.20006L34.1202 2.48006C34.7602 2.36006 35.4002 2.56006 35.8802 3.00006L37.4402 4.56006C37.8802 5.00006 38.0802 5.64006 37.9602 6.28006ZM6.04016 10.8401C5.68016 11.2001 5.16016 11.4001 4.68016 11.4001C4.48016 11.4001 4.32016 11.3601 4.12016 11.3201C3.44016 11.1201 2.92016 10.5601 2.76016 9.84006L2.04016 6.28006C1.92016 5.64006 2.12016 5.00006 2.56016 4.52006L4.12016 2.96006C4.56016 2.52006 5.24016 2.32006 5.88016 2.44006L9.44016 3.16006C10.1602 3.28006 10.7202 3.80006 10.9202 4.48006C11.1202 5.16006 10.9602 5.92006 10.4402 6.40006L6.04016 10.8401Z" fill="#494642"/>
</svg>
