<svg width="25" height="24" viewBox="0 0 25 24" fill="none" xmlns="http://www.w3.org/2000/svg">
<path d="M12.2236 15.2476V17.2729L12.4685 17.1137L12.7134 17.2729V15.2476L12.4685 15.4067L12.2236 15.2476Z" fill="black"/>
<path d="M9.81597 19.6863L9.79883 19.6753L9.81597 19.6874V22.1537L12.2233 23.7234V21.2573L9.81597 19.6826V19.6863Z" fill="black"/>
<path d="M12.4684 17.6987L10.0684 19.2636L12.4684 20.8334L14.8928 19.2759L12.4684 17.6987Z" fill="black"/>
<path d="M12.7139 23.7233L15.1261 22.1536V19.7119L12.7139 21.2597V23.7233Z" fill="black"/>
<path d="M4.3136 8.16258L1.90625 6.58789V9.05644L4.3136 10.6287V8.16258Z" fill="black"/>
<path d="M6.97094 6.17135L4.5587 4.604L2.15625 6.1689L4.5587 7.7387L6.97094 6.17135Z" fill="black"/>
<path d="M4.80371 10.6287L7.21596 9.05644V6.59521L4.80371 8.16259V10.6287Z" fill="black"/>
<path d="M17.7803 17.4566L20.1878 19.0283V16.5633L17.7803 14.9946V17.4566Z" fill="black"/>
<path d="M20.6777 19.0284L23.0898 17.4566V15.0054L20.6777 16.5645V19.0284Z" fill="black"/>
<path d="M20.4333 13.0044L18.0273 14.5706L20.4336 16.1383L22.852 14.5761L20.4333 13.0044Z" fill="black"/>
<path d="M12.4683 8.6377L10.0518 10.2108L12.469 11.7714L14.9074 10.2225L12.4683 8.6377Z" fill="black"/>
<path d="M12.7139 14.6617L15.1261 13.0898V10.6646L12.7139 12.2001V14.6617Z" fill="black"/>
<path d="M12.2238 12.1972L9.81641 10.6416V13.0898L12.2238 14.6614V12.1972Z" fill="black"/>
<path d="M12.7139 6.30072L15.1256 4.73144V2.34814L12.7139 3.84477V6.30072Z" fill="black"/>
<path d="M14.9413 1.88569L12.4689 0.276855L10.0664 1.843L12.4695 3.41243L14.9413 1.88569Z" fill="black"/>
<path d="M12.2243 3.83687L9.81641 2.26465V4.73134L12.2243 6.30103V3.83687Z" fill="black"/>
<path d="M4.55795 13.0044L2.14648 14.5742L4.55902 16.1383L6.97139 14.5726L4.55795 13.0044Z" fill="black"/>
<path d="M1.90625 17.4566L4.31455 19.0288V16.5641L1.90625 15.002V17.4566Z" fill="black"/>
<path d="M4.80469 19.0274L7.21598 17.4562V14.998L4.80469 16.5634V19.0274Z" fill="black"/>
<path d="M4.31348 11.1187V12.5782L4.55837 12.4191L4.80327 12.5782V11.1187L4.55837 11.2778L4.31348 11.1187Z" fill="black"/>
<path d="M20.1973 12.5782L20.4422 12.4191L20.6871 12.5782V11.1187L20.4422 11.2778L20.1973 11.1187V12.5782Z" fill="black"/>
<path d="M17.296 5.74769L15.616 4.75098V4.99587L15.3564 5.16485L17.296 6.31585V5.74769Z" fill="black"/>
<path d="M7.49 5.92398L7.70551 6.06357C7.70551 6.08823 7.70551 6.3919 7.70551 6.36724L9.60102 5.17459L9.32674 4.99581V4.77051C9.30208 4.78601 7.36699 6.00124 7.49 5.92398Z" fill="black"/>
<path d="M17.7329 18.0503C17.7312 18.0514 17.7308 18.0516 17.7329 18.0503V18.0503Z" fill="black"/>
<path d="M17.7658 18.0297L17.3127 17.7358L15.3389 18.9824L15.3487 18.9873L15.6156 19.1611V19.3865V19.3938C17.2481 18.3581 17.6636 18.0945 17.7474 18.0414C17.7443 18.0434 17.7412 18.0453 17.7386 18.047C17.744 18.0436 17.7526 18.0381 17.7658 18.0297C17.7656 18.0298 17.7651 18.0302 17.7647 18.0304C17.765 18.0302 17.7656 18.0298 17.7658 18.0297Z" fill="black"/>
<path d="M17.7656 18.03C17.7669 18.0292 17.7672 18.029 17.7656 18.03V18.03Z" fill="black"/>
<path d="M17.7381 18.0469C17.7354 18.0486 17.7335 18.0498 17.7324 18.0505C17.7337 18.0497 17.7355 18.0485 17.7381 18.0469Z" fill="black"/>
<path d="M7.70509 17.7207L7.38672 17.9289L9.20386 19.2416L9.32631 19.3322V19.1632L9.62264 18.9697L9.64223 18.955L7.70509 17.5518V17.7207Z" fill="black"/>
<path d="M7.81117 4.17315L7.55957 3.75293L7.13935 4.00453L7.39094 4.42475L7.81117 4.17315Z" fill="black"/>
<path d="M6.97132 4.67608L6.71973 4.25586L6.2995 4.50746L6.5511 4.92768L6.97132 4.67608Z" fill="black"/>
<path d="M8.65198 3.66974L8.40039 3.24951L7.98009 3.50116L8.23168 3.92138L8.65198 3.66974Z" fill="black"/>
<path d="M17.6634 4.00404L17.2432 3.75244L16.9916 4.17266L17.4118 4.42426L17.6634 4.00404Z" fill="black"/>
<path d="M18.5042 4.50746L18.084 4.25586L17.8324 4.67608L18.2526 4.92768L18.5042 4.50746Z" fill="black"/>
<path d="M16.8217 3.50111L16.4014 3.24951L16.1498 3.66974L16.5701 3.92133L16.8217 3.50111Z" fill="black"/>
<path d="M17.5033 9.45791L17.2952 9.32077V9.01465C17.251 9.03676 15.3793 9.97256 15.4046 9.95995L15.6152 10.0971C15.6152 10.1218 15.6152 10.4279 15.6152 10.4032L17.5033 9.45791Z" fill="black"/>
<path d="M7.70526 9.3207L7.4873 9.46274L9.32649 10.4007C9.32649 10.376 9.32649 10.0748 9.32649 10.0995L9.53955 9.95988C9.51494 9.94732 7.58196 8.96148 7.70526 9.02437V9.3207Z" fill="black"/>
<path d="M20.1915 8.16258L17.7842 6.58789V9.05644L20.1915 10.6287V8.16258Z" fill="black"/>
<path d="M20.4366 7.7387L22.8489 6.17135L20.4366 4.604L18.0342 6.1689L20.4366 7.7387Z" fill="black"/>
<path d="M20.6816 8.16259V10.6287L23.0939 9.05644V6.59521L20.6816 8.16259Z" fill="black"/>
</svg>
