<svg width="25" height="24" viewBox="0 0 25 24" fill="none" xmlns="http://www.w3.org/2000/svg">
<path d="M12.4997 2.92794C7.5317 2.92794 3.4757 6.98394 3.4757 11.9519C3.4757 15.3119 5.3237 18.2639 8.0837 19.8239L6.5477 21.3599C6.2597 21.6479 6.2597 22.1039 6.5477 22.3679C6.6917 22.5119 6.8837 22.5839 7.0517 22.5839C7.2437 22.5839 7.4117 22.5119 7.5557 22.3679L9.4517 20.4719C10.3877 20.8079 11.4197 20.9999 12.4757 20.9999C13.5317 20.9999 14.5397 20.8079 15.4997 20.4719L17.3957 22.3679C17.5397 22.5119 17.7317 22.5839 17.8997 22.5839C18.0677 22.5839 18.2597 22.5119 18.4037 22.3679C18.6917 22.0799 18.6917 21.6239 18.4037 21.3599L16.8677 19.8239C19.6037 18.2879 21.4757 15.3359 21.4757 11.9519C21.5237 6.98394 17.4677 2.92794 12.4997 2.92794ZM11.7797 8.11194C11.7797 7.70394 12.0917 7.39194 12.4997 7.39194C12.9077 7.39194 13.2197 7.70394 13.2197 8.11194V9.55194V11.4959L14.5157 12.1439L15.3797 12.5759C15.7397 12.7439 15.8837 13.1759 15.6917 13.5359C15.5717 13.7759 15.3077 13.9439 15.0437 13.9439C14.9237 13.9439 14.8277 13.9199 14.7317 13.8719L11.7797 12.3839V8.11194ZM23.2757 3.76794L22.8437 5.90394C22.7717 6.33594 22.4597 6.67194 22.0517 6.79194C21.9317 6.81594 21.8357 6.83994 21.7157 6.83994C21.4037 6.83994 21.1157 6.71994 20.8997 6.50394L18.2357 3.86394C17.9237 3.55194 17.8277 3.11994 17.9477 2.71194C18.0677 2.30394 18.4037 1.99194 18.8357 1.91994L20.9717 1.48794C21.3557 1.41594 21.7397 1.53594 22.0277 1.79994L22.9637 2.73594C23.2277 2.99994 23.3477 3.38394 23.2757 3.76794ZM4.1237 6.50394C3.9077 6.71994 3.5957 6.83994 3.3077 6.83994C3.1877 6.83994 3.0917 6.81594 2.9717 6.79194C2.5637 6.67194 2.2517 6.33594 2.1557 5.90394L1.7237 3.76794C1.6517 3.38394 1.7717 2.99994 2.0357 2.71194L2.9717 1.77594C3.2357 1.51194 3.6437 1.39194 4.0277 1.46394L6.1637 1.89594C6.5957 1.96794 6.9317 2.27994 7.0517 2.68794C7.1717 3.09594 7.0757 3.55194 6.7637 3.83994L4.1237 6.50394Z" fill="black"/>
</svg>
