<svg width="25" height="24" viewBox="0 0 25 24" fill="none" xmlns="http://www.w3.org/2000/svg">
<path d="M4.625 0.375C4.32663 0.375 4.04048 0.493526 3.8295 0.704505C3.61853 0.915483 3.5 1.20163 3.5 1.5V23.25C3.5 23.3495 3.53951 23.4448 3.60984 23.5152C3.68016 23.5855 3.77554 23.625 3.875 23.625H5.375C5.47446 23.625 5.56984 23.5855 5.64016 23.5152C5.71049 23.4448 5.75 23.3495 5.75 23.25V1.5C5.75 1.20163 5.63147 0.915483 5.4205 0.704505C5.20952 0.493526 4.92337 0.375 4.625 0.375Z" fill="black"/>
<path d="M21.125 1.875H6.5V14.625H21.125C21.4234 14.625 21.7095 14.5065 21.9205 14.2955C22.1315 14.0845 22.25 13.7984 22.25 13.5V3C22.25 2.70163 22.1315 2.41548 21.9205 2.2045C21.7095 1.99353 21.4234 1.875 21.125 1.875ZM21.5 10.875H19.25V8.625H21.5V10.875ZM15.5 10.875H13.25V8.625H15.5V10.875ZM10.25 5.625H12.5V7.875H10.25V5.625ZM16.25 5.625H18.5V7.875H16.25V5.625ZM21.5 3V4.875H19.25V2.625H21.125C21.2245 2.625 21.3198 2.66451 21.3902 2.73484C21.4605 2.80516 21.5 2.90054 21.5 3ZM15.5 4.875H13.25V2.625H15.5V4.875ZM7.25 2.625H9.5V4.875H7.25V2.625ZM7.25 8.625H9.5V10.875H7.25V8.625ZM10.25 11.625H12.5V13.875H10.25V11.625ZM16.25 11.625H18.5V13.875H16.25V11.625Z" fill="black"/>
</svg>
