<svg width="40" height="40" viewBox="0 0 40 40" fill="none" xmlns="http://www.w3.org/2000/svg">
<path d="M32.5 5H7.5C6.50544 5 5.55161 5.39509 4.84835 6.09835C4.14509 6.80161 3.75 7.75544 3.75 8.75V23.75C3.75 24.7446 4.14509 25.6984 4.84835 26.4017C5.55161 27.1049 6.50544 27.5 7.5 27.5H32.5C33.4946 27.5 34.4484 27.1049 35.1517 26.4017C35.8549 25.6984 36.25 24.7446 36.25 23.75V8.75C36.25 7.75544 35.8549 6.80161 35.1517 6.09835C34.4484 5.39509 33.4946 5 32.5 5ZM12.5 17.5C12.2528 17.5 12.0111 17.4267 11.8055 17.2893C11.6 17.152 11.4398 16.9568 11.3452 16.7284C11.2505 16.4999 11.2258 16.2486 11.274 16.0061C11.3222 15.7637 11.4413 15.5409 11.6161 15.3661C11.7909 15.1913 12.0137 15.0722 12.2561 15.024C12.4986 14.9758 12.7499 15.0005 12.9784 15.0951C13.2068 15.1898 13.402 15.35 13.5393 15.5555C13.6767 15.7611 13.75 16.0028 13.75 16.25C13.75 16.5815 13.6183 16.8995 13.3839 17.1339C13.1495 17.3683 12.8315 17.5 12.5 17.5ZM20 15C20.8835 14.9983 21.7391 15.3094 22.4153 15.8781C23.0915 16.4468 23.5445 17.2365 23.6942 18.1073C23.844 18.978 23.6807 19.8737 23.2333 20.6356C22.7859 21.3975 22.0834 21.9765 21.25 22.27V22.5C21.25 22.8315 21.1183 23.1495 20.8839 23.3839C20.6495 23.6183 20.3315 23.75 20 23.75C19.6685 23.75 19.3505 23.6183 19.1161 23.3839C18.8817 23.1495 18.75 22.8315 18.75 22.5V22.27C18.0214 22.0124 17.3901 21.536 16.9426 20.9059C16.4951 20.2758 16.2532 19.5228 16.25 18.75C16.25 18.4185 16.3817 18.1005 16.6161 17.8661C16.8505 17.6317 17.1685 17.5 17.5 17.5C17.8315 17.5 18.1495 17.6317 18.3839 17.8661C18.6183 18.1005 18.75 18.4185 18.75 18.75C18.75 18.9972 18.8233 19.2389 18.9607 19.4445C19.098 19.65 19.2932 19.8102 19.5216 19.9049C19.7501 19.9995 20.0014 20.0242 20.2439 19.976C20.4863 19.9278 20.7091 19.8087 20.8839 19.6339C21.0587 19.4591 21.1777 19.2363 21.226 18.9939C21.2742 18.7514 21.2495 18.5001 21.1549 18.2716C21.0602 18.0432 20.9 17.848 20.6945 17.7107C20.4889 17.5733 20.2472 17.5 20 17.5C19.1165 17.5017 18.2609 17.1906 17.5847 16.6219C16.9085 16.0532 16.4555 15.2635 16.3058 14.3927C16.156 13.522 16.3193 12.6263 16.7667 11.8644C17.2141 11.1025 17.9166 10.5235 18.75 10.23V10C18.75 9.66848 18.8817 9.35054 19.1161 9.11612C19.3505 8.8817 19.6685 8.75 20 8.75C20.3315 8.75 20.6495 8.8817 20.8839 9.11612C21.1183 9.35054 21.25 9.66848 21.25 10V10.23C21.9786 10.4876 22.6099 10.964 23.0574 11.5941C23.5049 12.2242 23.7468 12.9772 23.75 13.75C23.75 14.0815 23.6183 14.3995 23.3839 14.6339C23.1495 14.8683 22.8315 15 22.5 15C22.1685 15 21.8505 14.8683 21.6161 14.6339C21.3817 14.3995 21.25 14.0815 21.25 13.75C21.25 13.5028 21.1767 13.2611 21.0393 13.0555C20.902 12.85 20.7068 12.6898 20.4784 12.5952C20.2499 12.5005 19.9986 12.4758 19.7561 12.524C19.5137 12.5722 19.2909 12.6913 19.1161 12.8661C18.9413 13.0409 18.8222 13.2637 18.774 13.5061C18.7258 13.7486 18.7505 13.9999 18.8451 14.2284C18.9398 14.4568 19.1 14.652 19.3055 14.7893C19.5111 14.9267 19.7528 15 20 15ZM27.5 17.5C27.2528 17.5 27.0111 17.4267 26.8055 17.2893C26.6 17.152 26.4398 16.9568 26.3451 16.7284C26.2505 16.4999 26.2258 16.2486 26.274 16.0061C26.3223 15.7637 26.4413 15.5409 26.6161 15.3661C26.7909 15.1913 27.0137 15.0722 27.2561 15.024C27.4986 14.9758 27.7499 15.0005 27.9784 15.0951C28.2068 15.1898 28.402 15.35 28.5393 15.5555C28.6767 15.7611 28.75 16.0028 28.75 16.25C28.75 16.5815 28.6183 16.8995 28.3839 17.1339C28.1495 17.3683 27.8315 17.5 27.5 17.5Z" fill="#494642"/>
<path d="M8.75 35.8335H31.25C31.5815 35.8335 31.8995 35.7018 32.1339 35.4674C32.3683 35.233 32.5 34.915 32.5 34.5835C32.5 34.252 32.3683 33.934 32.1339 33.6996C31.8995 33.4652 31.5815 33.3335 31.25 33.3335H8.75C8.41848 33.3335 8.10054 33.4652 7.86612 33.6996C7.6317 33.934 7.5 34.252 7.5 34.5835C7.5 34.915 7.6317 35.233 7.86612 35.4674C8.10054 35.7018 8.41848 35.8335 8.75 35.8335Z" fill="#494642"/>
<path d="M11.25 31.6665H28.75C29.0815 31.6665 29.3995 31.5348 29.6339 31.3004C29.8683 31.066 30 30.748 30 30.4165C30 30.085 29.8683 29.767 29.6339 29.5326C29.3995 29.2982 29.0815 29.1665 28.75 29.1665H11.25C10.9185 29.1665 10.6005 29.2982 10.3661 29.5326C10.1317 29.767 10 30.085 10 30.4165C10 30.748 10.1317 31.066 10.3661 31.3004C10.6005 31.5348 10.9185 31.6665 11.25 31.6665Z" fill="#494642"/>
</svg>
