<svg xmlns="http://www.w3.org/2000/svg" viewBox="0 0 100 100">
  <g transform="translate(-30.509 -53.188)">
    <circle cx="80.509" cy="103.19" r="50" fill="#fc0"/>
    <path fill="#fff" d="M55.786 100.08h9.765q-2.992-2.653-4.629-6.322-1.58-3.669-1.58-8.071 0-5.645 2.766-10.047 2.766-4.46 7.564-6.943 4.854-2.484 10.836-2.484 5.984 0 10.782 2.484 4.854 2.483 7.62 6.943 2.765 4.402 2.765 10.047 0 4.402-1.637 8.071-1.636 3.67-4.572 6.322h9.765v6.209H85.137v-5.757q4.46-2.258 6.83-6.04t2.37-8.297q0-4.008-1.805-7.056-1.75-3.104-4.911-4.798-3.104-1.693-7.112-1.693t-7.168 1.693q-3.161 1.694-4.911 4.798-1.75 3.048-1.75 7.056 0 4.572 2.37 8.354t6.83 5.983v5.757H55.788z" />
    <g fill="#fff">
      <path d="M61.029 125.5v7.394h-3.98V112.97h7.254q3.528 0 5.306 1.694 1.806 1.693 1.806 4.6 0 2.85-1.863 4.544-1.834 1.693-5.25 1.693zm2.85-3.19q3.5 0 3.5-3.047 0-1.496-.818-2.286t-2.682-.79h-2.85v6.124zM78.007 129.85h6.689v3.048H74.028v-19.925h3.979zM103.97 132.9h-3.98l-8.917-13.547V132.9h-3.98v-19.925h3.98l8.918 13.66v-13.66h3.979z"/>
    </g>
  </g>
</svg>
