<svg width="35" height="35" viewBox="0 0 35 35" fill="none" xmlns="http://www.w3.org/2000/svg">
<rect width="35" height="35" fill="white"/>
<mask id="mask0_418_7288" style="mask-type:alpha" maskUnits="userSpaceOnUse" x="5" y="5" width="25" height="25">
<path d="M5.67856 5.09558H29.3215V29.1022H5.67856V5.09558Z" fill="white"/>
</mask>
<g mask="url(#mask0_418_7288)">
<path fill-rule="evenodd" clip-rule="evenodd" d="M17.5 5.09558C24.029 5.09558 29.3215 10.4695 29.3215 17.0989C29.3215 23.7278 24.029 29.1022 17.5 29.1022C10.9711 29.1022 5.67856 23.7278 5.67856 17.0989C5.67856 10.4695 10.9711 5.09558 17.5 5.09558Z" fill="#2775CA"/>
</g>
<path fill-rule="evenodd" clip-rule="evenodd" d="M15.284 25.4444C15.284 25.7268 15.0662 25.8872 14.7973 25.8019C11.223 24.6442 8.63156 21.2411 8.63156 17.2257C8.63156 13.2104 11.223 9.80723 14.7973 8.64945C15.0662 8.56475 15.284 8.72461 15.284 9.00696V9.70397C15.284 9.89193 15.1405 10.1132 14.9641 10.1744C12.1362 11.2288 10.1105 13.9873 10.1105 17.2209C10.1105 20.4546 12.1362 23.2136 14.9641 24.2674C15.1405 24.3334 15.284 24.5498 15.284 24.7384V25.4444Z" fill="white"/>
<path fill-rule="evenodd" clip-rule="evenodd" d="M18.2371 22.8507C18.2371 23.058 18.0703 23.2274 17.8663 23.2274H17.1291C16.9252 23.2274 16.7584 23.058 16.7584 22.8507V21.6647C15.145 21.4436 14.3571 20.5255 14.1438 19.2782C14.1066 19.0661 14.2734 18.8732 14.4868 18.8732H15.3305C15.5066 18.8732 15.6551 19.0005 15.6921 19.179C15.8498 19.9228 16.2717 20.4924 17.5649 20.4924C18.5199 20.4924 19.1969 19.9511 19.1969 19.1418C19.1969 18.3318 18.7981 18.026 17.3981 17.7905C15.3305 17.5081 14.3524 16.8725 14.3524 15.225C14.3524 13.9542 15.2983 12.9658 16.7631 12.7538V11.5912C16.7631 11.384 16.93 11.2144 17.1338 11.2144H17.871C18.075 11.2144 18.2418 11.384 18.2418 11.5912V12.7869C19.4332 13.0037 20.1889 13.6905 20.4347 14.8296C20.4809 15.0465 20.3141 15.2485 20.0963 15.2485H19.3173C19.1505 15.2485 19.0114 15.1354 18.9605 14.9708C18.7519 14.2462 18.2418 13.9356 17.3563 13.9356C16.3782 13.9356 15.8728 14.4156 15.8728 15.0886C15.8728 15.7994 16.1604 16.1569 17.6626 16.3786C19.6928 16.6609 20.7407 17.2492 20.7407 19.0054C20.7407 20.3374 19.7671 21.4153 18.2418 21.6647V22.8507H18.2371Z" fill="white"/>
<path fill-rule="evenodd" clip-rule="evenodd" d="M20.2028 25.802C19.9341 25.8872 19.7161 25.7268 19.7161 25.4445V24.748C19.7161 24.5408 19.8413 24.3479 20.0359 24.277C22.8638 23.2226 24.8896 20.4642 24.8896 17.2305C24.8896 13.9968 22.8638 11.2384 20.0359 10.184C19.8598 10.118 19.7161 9.90165 19.7161 9.71301V9.01655C19.7161 8.73419 19.9341 8.56956 20.2028 8.65849C23.777 9.81695 26.3685 13.22 26.3685 17.2353C26.364 21.241 23.777 24.6394 20.2028 25.802Z" fill="white"/>
</svg>
