<svg width="32" height="26" viewBox="0 0 32 26" fill="none" xmlns="http://www.w3.org/2000/svg">
<path d="M30.8571 8.27273V3.54545C30.8571 2.60514 30.4959 1.70334 29.8529 1.03844C29.21 0.373538 28.3379 0 27.4286 0H3.42857C2.51926 0 1.64719 0.373538 1.00421 1.03844C0.361224 1.70334 0 2.60514 0 3.54545V22.4545C0 23.3949 0.361224 24.2967 1.00421 24.9616C1.64719 25.6265 2.51926 26 3.42857 26H27.4286C28.3379 26 29.21 25.6265 29.8529 24.9616C30.4959 24.2967 30.8571 23.3949 30.8571 22.4545V17.7273C31.1602 17.7273 31.4509 17.6028 31.6653 17.3811C31.8796 17.1595 32 16.8589 32 16.5455V9.45455C32 9.14111 31.8796 8.84051 31.6653 8.61887C31.4509 8.39724 31.1602 8.27273 30.8571 8.27273ZM28.5714 22.4545C28.5714 22.768 28.451 23.0686 28.2367 23.2902C28.0224 23.5119 27.7317 23.6364 27.4286 23.6364H3.42857C3.12547 23.6364 2.83478 23.5119 2.62045 23.2902C2.40612 23.0686 2.28571 22.768 2.28571 22.4545V3.54545C2.28571 3.23202 2.40612 2.93142 2.62045 2.70978C2.83478 2.48815 3.12547 2.36364 3.42857 2.36364H27.4286C27.7317 2.36364 28.0224 2.48815 28.2367 2.70978C28.451 2.93142 28.5714 3.23202 28.5714 3.54545V8.27273H26.2857C25.0733 8.27273 23.9105 8.77078 23.0532 9.65731C22.1959 10.5438 21.7143 11.7462 21.7143 13C21.7143 14.2537 22.1959 15.4561 23.0532 16.3427C23.9105 17.2292 25.0733 17.7273 26.2857 17.7273H28.5714V22.4545ZM29.7143 15.3636H26.2857C25.6795 15.3636 25.0981 15.1146 24.6695 14.6713C24.2408 14.2281 24 13.6269 24 13C24 12.3731 24.2408 11.7719 24.6695 11.3287C25.0981 10.8854 25.6795 10.6364 26.2857 10.6364H29.7143V15.3636Z" fill="#494642"/>
</svg>
