<svg width="72" height="72" viewBox="0 0 72 72" fill="none" xmlns="http://www.w3.org/2000/svg">
<path fill-rule="evenodd" clip-rule="evenodd" d="M44.1899 30.9767C49.111 30.9767 53.1006 34.9234 53.1006 39.7916C53.1006 44.6598 49.111 48.6064 44.1899 48.6064C39.2688 48.6064 35.2793 44.6598 35.2793 39.7916C35.2793 34.9234 39.2688 30.9767 44.1899 30.9767ZM1.41884 47.6433C-0.472946 47.6433 -0.472946 44.7956 1.41884 44.7956H16.468C17.2633 44.7956 17.9079 45.4333 17.9079 46.22V47.837C20.0958 47.837 22.5451 47.7214 24.7023 47.8603C24.0874 45.1758 23.7616 42.4082 24.2483 39.675C25.0241 35.3218 27.4078 31.7127 30.3654 28.5173C32.3217 26.4056 34.6777 23.862 37.4088 17.8118C38.1785 16.1076 40.7978 17.2643 40.0303 18.9695C37.1127 25.4293 34.5814 28.1625 32.4806 30.4303C29.9104 33.205 27.7572 36.3832 27.0829 40.1647C26.4783 43.5568 27.4006 45.4596 27.7624 48.4057C31.3932 49.3049 34.2678 51.2098 35.3859 51.9255H45.6615C48.0627 51.9255 50.5099 53.2283 51.0356 55.6745C53.6376 54.4843 57.7921 52.5906 61.1822 51.0659C61.8944 49.4195 62.1178 46.0902 61.5081 42.4284C60.9875 39.2908 59.8346 35.9818 57.827 33.3804C57.0563 32.3808 56.3092 31.582 55.5437 30.7638C53.3137 28.3784 50.928 25.8257 47.8321 18.9695C47.0625 17.2643 49.6839 16.1076 50.4525 17.8118C53.3599 24.2544 55.5765 26.6246 57.6476 28.8387C58.4859 29.7369 59.3027 30.6108 60.1092 31.656C62.4314 34.6649 63.7534 38.428 64.3427 41.9732C64.8069 44.7642 64.8079 47.4659 64.4831 49.5949C71.6208 46.4613 74.8243 54.3008 68.9317 57.6656C60.6236 62.4101 51.8247 66.4916 43.5115 71.2047C38.8487 73.8476 27.7132 69.2257 23.0309 67.2012H17.9079V68.7604C17.9079 69.5461 17.2633 70.1848 16.468 70.1848H4.17555C2.2807 70.1848 2.2807 67.3371 4.17555 67.3371H15.0292C15.0292 60.7728 15.0292 54.2076 15.0292 47.6433H1.41884ZM40.3879 9.98536C41.2088 11.6662 38.6232 12.902 37.8024 11.2202C36.1955 7.94056 35.7609 7.06567 33.3937 4.61637C31.6792 2.83921 32.8772 0.953577 34.8642 0.286508C36.2754 -0.184901 38.2184 -0.0946752 39.1151 0.707227C40.3531 1.81529 40.8214 3.71005 41.7396 1.86193C42.8228 -0.314666 45.3951 -0.260935 46.5521 1.80313C47.6968 3.84488 47.7142 2.03123 49.193 0.707227C50.0877 -0.0946752 52.0327 -0.184901 53.4429 0.286508C55.431 0.953577 56.629 2.8382 54.9124 4.61637C52.5472 7.06567 52.1106 7.94056 50.5058 11.2202C49.6839 12.902 47.0983 11.6662 47.9192 9.98536C50.2937 5.13847 50.8696 4.57886 52.1086 3.37753C52.952 2.55941 51.3851 2.32218 50.4074 3.65429C48.6765 6.01945 45.3715 6.76052 44.1787 3.49918C43.0729 6.80513 39.6716 5.76296 37.9192 3.61475C36.7212 2.14578 35.4904 2.69221 36.1975 3.37753C37.4385 4.57886 38.0145 5.13847 40.3879 9.98536ZM36.2057 15.7325C34.3119 15.7325 34.3119 12.8848 36.2057 12.8848H52.1014C53.9952 12.8848 53.9952 15.7325 52.1014 15.7325H36.2057ZM23.9921 50.6847H17.9079V64.3525L23.324 64.3576C23.5187 64.3576 23.7175 64.3971 23.9081 64.4812C27.6527 66.1398 38.3855 70.8397 42.0655 68.7553C50.389 64.0342 59.1951 59.9517 67.5031 55.2072C70.4402 53.5314 68.6468 50.9381 65.722 52.2165C61.383 54.1133 50.5335 59.0393 49.7823 59.3839C48.8507 60.2021 47.4222 60.7495 45.4494 60.7495H34.1623C32.5287 60.7495 32.5287 61.6305 32.5287 61.6325C32.5287 63.505 29.6501 63.505 29.6501 61.6325C29.6501 61.6214 29.6501 57.9008 34.1623 57.9008H45.4494C49.6419 57.9008 48.6488 54.7753 45.6615 54.7753L34.9585 54.7692C34.6767 54.7692 34.3928 54.6871 34.1428 54.5178C31.5603 52.766 27.3709 50.6847 23.9921 50.6847ZM7.72956 58.5952H11.4906C12.2869 58.5952 12.9315 59.2319 12.9315 60.0186V63.216C12.9315 64.0027 12.2869 64.6394 11.4906 64.6394H7.72956C6.93432 64.6394 6.28972 64.0027 6.28972 63.216V60.0186C6.28972 59.2319 6.93432 58.5952 7.72956 58.5952ZM40.062 41.588L42.0624 41.3913C42.29 42.6403 42.9571 43.3145 44.2729 43.3145C45.1369 43.3145 46.26 42.9688 46.26 41.9317C46.26 40.854 44.5056 40.6553 43.6816 40.4505C42.0614 40.0501 40.4453 39.3465 40.4453 37.4244C40.4453 35.7091 41.8134 34.8808 43.326 34.67V33.5416H45.0538V34.672C46.6915 34.8981 47.952 35.78 48.0206 37.686L45.9628 37.7569C45.7804 36.6712 45.1953 36.2971 44.1151 36.2971C43.4879 36.2971 42.4027 36.4826 42.4027 37.2886C42.4027 38.1574 43.9512 38.426 44.5865 38.575C46.5593 39.0343 48.3178 39.6132 48.3178 41.9205C48.3178 43.9116 46.7683 44.7824 45.0538 44.9811V46.0416H43.326V44.968C41.4814 44.7206 40.3121 43.6723 40.062 41.588Z" fill="#494642"/>
</svg>
