<svg width="24" height="24" viewBox="0 0 24 24" fill="none" xmlns="http://www.w3.org/2000/svg">
<g clip-path="url(#clip0_4185_73432)">
<path d="M19.35 10.04C18.67 6.59 15.64 4 12 4C9.11 4 6.6 5.64 5.35 8.04C2.34 8.36 -1.20818e-06 10.91 -1.74846e-06 14C-2.32719e-06 17.31 2.69 20 6 20L19 20C21.76 20 24 17.76 24 15C24 12.36 21.95 10.22 19.35 10.04ZM14 13L14 17L10 17L10 13L7 13L12 8L17 13L14 13Z" fill="#6B7280"/>
</g>
<defs>
<clipPath id="clip0_4185_73432">
<rect width="24" height="24" fill="white"/>
</clipPath>
</defs>
</svg>
