<svg width="24" height="24" viewBox="0 0 24 24" fill="none" xmlns="http://www.w3.org/2000/svg">
<path d="M20 8C20.5523 8 21 7.55228 21 7C21 6.44772 20.5523 6 20 6V8ZM4 6C3.44772 6 3 6.44772 3 7C3 7.55228 3.44772 8 4 8V6ZM15 6H9V8H15V6ZM4 8H6V6H4V8ZM6 8H9V6H6V8ZM5 7V18H7V7H5ZM8 21H16V19H8V21ZM15 8H18V6H15V8ZM18 8H20V6H18V8ZM19 18V7H17V18H19ZM16 21C17.6569 21 19 19.6569 19 18H17C17 18.5523 16.5523 19 16 19V21ZM5 18C5 19.6569 6.34315 21 8 21V19C7.44772 19 7 18.5523 7 18H5ZM12 5C13.1046 5 14 5.89543 14 7H16C16 4.79086 14.2091 3 12 3V5ZM10 7C10 5.89543 10.8954 5 12 5V3C9.79086 3 8 4.79086 8 7H10Z" fill="#0063F5"/>
</svg>
