<svg width="32" height="32" viewBox="0 0 32 32" fill="none" xmlns="http://www.w3.org/2000/svg">
<rect width="32" height="32" rx="10" fill="currentColor"/>
<path d="M8 17C8 17.5523 8.44772 18 9 18C9.55228 18 10 17.5523 10 17H8ZM7 20V19C6.44772 19 6 19.4477 6 20H7ZM19 20H20C20 19.4477 19.5523 19 19 19V20ZM13 10C12.4477 10 12 10.4477 12 11C12 11.5523 12.4477 12 13 12V10ZM21 12C21.5523 12 22 11.5523 22 11C22 10.4477 21.5523 10 21 10V12ZM13 14C12.4477 14 12 14.4477 12 15C12 15.5523 12.4477 16 13 16V14ZM17 16C17.5523 16 18 15.5523 18 15C18 14.4477 17.5523 14 17 14V16ZM10 17V9H8V17H10ZM11 8H23V6H11V8ZM24 9V22H26V9H24ZM24 22C24 22.34 23.8898 22.8722 23.5885 23.2907C23.3239 23.6582 22.8741 24 22 24V26C23.5259 26 24.5761 25.3418 25.2115 24.4593C25.8102 23.6278 26 22.66 26 22H24ZM22 24H10V26H22V24ZM10 24C9.66002 24 9.1278 23.8898 8.7093 23.5885C8.3418 23.3239 8 22.8741 8 22H6C6 23.5259 6.6582 24.5761 7.5407 25.2115C8.3722 25.8102 9.33998 26 10 26V24ZM22 24C21.66 24 21.1278 23.8898 20.7093 23.5885C20.3418 23.3239 20 22.8741 20 22H18C18 23.5259 18.6582 24.5761 19.5407 25.2115C20.3722 25.8102 21.34 26 22 26V24ZM8 22V20H6V22H8ZM7 21H19V19H7V21ZM18 20V22H20V20H18ZM13 12H21V10H13V12ZM13 16H17V14H13V16ZM23 8C23.5523 8 24 8.44772 24 9H26C26 7.34315 24.6569 6 23 6V8ZM10 9C10 8.44772 10.4477 8 11 8V6C9.34315 6 8 7.34315 8 9H10Z" fill="white"/>
</svg>
