<svg width="18" height="19" viewBox="0 0 18 19" fill="none" xmlns="http://www.w3.org/2000/svg">
<path d="M12.4545 8.21774L12.0222 7.31603L12.4545 8.21774ZM10.4472 16.2764L10 15.382L10.4472 16.2764ZM8.44721 17.2764L8 16.382L8.44721 17.2764ZM1.24685 2.97975L0.277761 3.22646L1.24685 2.97975ZM16.7531 2.97975L15.7841 2.73304L16.7531 2.97975ZM3 2H15V0H3V2ZM5.97781 7.31603C4.12942 6.42976 2.73089 4.75581 2.21594 2.73304L0.277761 3.22646C0.941179 5.83241 2.73904 7.98112 5.1131 9.11944L5.97781 7.31603ZM6 10.2984V16.382H8V10.2984H6ZM8.89443 18.1708L10.8944 17.1708L10 15.382L8 16.382L8.89443 18.1708ZM15.7841 2.73304C15.2691 4.75581 13.8706 6.42976 12.0222 7.31603L12.8869 9.11944C15.261 7.98112 17.0588 5.83241 17.7222 3.22646L15.7841 2.73304ZM12 15.382V10.2984H10V15.382H12ZM12.0222 7.31603C10.9563 7.82713 10 8.89793 10 10.2984H12C12 9.87371 12.3071 9.39745 12.8869 9.11944L12.0222 7.31603ZM10.8944 17.1708C11.572 16.832 12 16.1395 12 15.382H10L10.8944 17.1708ZM6 16.382C6 17.8687 7.56463 18.8357 8.89443 18.1708L8 16.382V16.382H6ZM5.1131 9.11944C5.6929 9.39745 6 9.87371 6 10.2984H8C8 8.89793 7.04374 7.82713 5.97781 7.31603L5.1131 9.11944ZM3 0C1.43604 0 -0.200205 1.34896 0.277761 3.22646L2.21594 2.73304C2.17119 2.55724 2.21446 2.40435 2.34089 2.26776C2.4797 2.11779 2.71707 2 3 2V0ZM15 2C15.2829 2 15.5203 2.11779 15.6591 2.26776C15.7855 2.40435 15.8288 2.55724 15.7841 2.73304L17.7222 3.22646C18.2002 1.34896 16.564 0 15 0V2Z" fill="#494642"/>
</svg>
