<svg width="24" height="24" viewBox="0 0 24 24" fill="none" xmlns="http://www.w3.org/2000/svg">
<path d="M18.5399 19.7475L17.2152 18.4431C16.5284 18.8919 15.7961 19.2356 15.0184 19.474C14.2401 19.7125 13.4304 19.8317 12.5894 19.8317C11.4259 19.8317 10.3325 19.6106 9.30924 19.1685C8.28595 18.727 7.39582 18.1275 6.63887 17.37C5.88191 16.6126 5.28279 15.7219 4.84152 14.698C4.39968 13.6741 4.17876 12.58 4.17876 11.4158C4.17876 10.5743 4.29791 9.76409 4.53621 8.98535C4.77451 8.20716 5.11795 7.47442 5.56651 6.78713L4.24184 5.46163C4.08764 5.30734 4.00718 5.11434 4.00045 4.88262C3.99316 4.65147 4.07363 4.45173 4.24184 4.28342C4.41005 4.1151 4.60994 4.03094 4.84152 4.03094C5.07253 4.03094 5.27214 4.1151 5.44035 4.28342L19.7384 18.5693C19.8926 18.7236 19.9733 18.9166 19.9806 19.1483C19.9874 19.3795 19.9066 19.5792 19.7384 19.7475C19.5702 19.9158 19.3706 20 19.1396 20C18.908 20 18.7081 19.9158 18.5399 19.7475ZM12.5894 18.1485C13.1921 18.1485 13.7775 18.0714 14.3455 17.9171C14.913 17.7628 15.463 17.5314 15.9957 17.2228L6.78605 8.00743C6.47766 8.54043 6.24637 9.09082 6.09218 9.65861C5.93798 10.227 5.86088 10.8127 5.86088 11.4158C5.86088 13.2814 6.51635 14.87 7.82729 16.1817C9.13766 17.4929 10.725 18.1485 12.5894 18.1485ZM19.6122 16.0446L18.3927 14.8243C18.7011 14.2913 18.9324 13.7406 19.0866 13.1722C19.2408 12.6044 19.3179 12.019 19.3179 11.4158C19.3179 9.55033 18.6627 7.9617 17.3523 6.64995C16.0414 5.33876 14.4537 4.68317 12.5894 4.68317C11.9866 4.68317 11.4015 4.76031 10.8341 4.9146C10.2661 5.06889 9.71575 5.30033 9.18308 5.60891L7.96354 4.38861C8.65041 3.93977 9.38297 3.59612 10.1612 3.35767C10.9389 3.11922 11.7483 3 12.5894 3C13.7528 3 14.8462 3.22078 15.8695 3.66233C16.8928 4.10444 17.7829 4.70421 18.5399 5.46163C19.2969 6.21906 19.896 7.10974 20.3372 8.13366C20.7791 9.15759 21 10.2516 21 11.4158C21 12.2574 20.8808 13.0673 20.6425 13.8455C20.4042 14.6242 20.0608 15.3573 19.6122 16.0446Z" fill="#FCFCFC"/>
</svg>
