<?xml version="1.0" encoding="UTF-8" standalone="no"?>
<!DOCTYPE svg PUBLIC "-//W3C//DTD SVG 1.1//EN" "http://www.w3.org/Graphics/SVG/1.1/DTD/svg11.dtd">
<svg width="100%" height="100%" viewBox="0 0 64 64" version="1.1" xmlns="http://www.w3.org/2000/svg" xmlns:xlink="http://www.w3.org/1999/xlink" xml:space="preserve" xmlns:serif="http://www.serif.com/" style="fill-rule:evenodd;clip-rule:evenodd;stroke-linejoin:round;stroke-miterlimit:2;">
    <g transform="matrix(1,0,0,1,-1652,-250)">
        <g id="Kanga_sygnet" transform="matrix(0.0625,0,0,0.106667,1652,250)">
            <rect x="0" y="0" width="1024" height="600" style="fill:none;"/>
            <clipPath id="_clip1">
                <rect x="0" y="0" width="1024" height="600"/>
            </clipPath>
            <g clip-path="url(#_clip1)">
                <g>
                    <g transform="matrix(5.52072,0,0,3.23479,-10482.1,-905.87)">
                        <g transform="matrix(3.23827,0,0,3.23989,1013.78,-410.814)">
                            <path d="M301.865,266.494C288.486,266.494 277.624,255.632 277.624,242.253C277.624,228.875 288.486,218.013 301.865,218.013C301.949,218.013 302.032,218.013 302.116,218.014L302.131,216.566C302.042,216.565 301.954,216.564 301.865,216.564C287.687,216.564 276.176,228.075 276.176,242.253C276.176,256.432 287.687,267.942 301.865,267.942L301.865,266.494Z" style="fill:rgb(88,89,89);"/>
                        </g>
                        <g transform="matrix(2.60726,0,0,2.60857,1204.26,-257.874)">
                            <path d="M301.865,266.319C288.583,266.319 277.8,255.535 277.8,242.253C277.8,228.971 288.583,218.188 301.865,218.188C307.668,218.188 312.995,220.247 317.153,223.674L318.297,222.285C313.828,218.602 308.103,216.389 301.865,216.389C287.59,216.389 276.001,227.979 276.001,242.253C276.001,256.528 287.59,268.118 301.865,268.118L301.865,266.319Z" style="fill:rgb(129,131,132);"/>
                        </g>
                        <g transform="matrix(2.04228,0,0,2.0433,1374.81,-120.936)">
                            <path d="M301.865,266.07C288.72,266.07 278.048,255.398 278.048,242.253C278.048,229.109 288.72,218.437 301.865,218.437C315.009,218.437 325.681,229.109 325.681,242.253L327.978,242.253C327.978,227.841 316.277,216.14 301.865,216.14C287.453,216.14 275.752,227.841 275.752,242.253C275.752,256.666 287.453,268.367 301.865,268.367L301.865,266.07Z" style="fill:rgb(255,93,0);"/>
                        </g>
                        <g transform="matrix(0.76915,0,0,0.769535,1750.09,188.93)">
                            <path d="M270.691,240.573C270.691,216.888 289.92,197.659 313.605,197.659C337.29,197.659 356.52,216.888 356.52,240.573C356.52,263.918 337.839,282.935 314.623,283.476L314.765,289.573C341.281,288.955 362.618,267.237 362.618,240.573C362.618,213.523 340.656,191.56 313.605,191.56C286.554,191.56 264.592,213.523 264.592,240.573L270.691,240.573Z" style="fill:rgb(88,89,89);"/>
                        </g>
                        <g transform="matrix(0.76915,0,0,0.769535,1759.12,187.638)">
                            <path d="M329.879,242.253C329.879,257.715 317.326,270.268 301.865,270.268C286.403,270.268 273.851,257.715 273.851,242.253C273.851,226.792 286.403,214.239 301.865,214.239L301.865,220.338C289.769,220.338 279.949,230.158 279.949,242.253C279.949,254.349 289.769,264.169 301.865,264.169C313.96,264.169 323.78,254.349 323.78,242.253L329.879,242.253Z" style="fill:rgb(88,89,89);"/>
                        </g>
                        <g transform="matrix(0.212204,0,0,0.21231,1933.28,241.744)">
                            <path d="M301.865,206.235C281.986,206.235 265.848,222.375 265.848,242.253C265.848,262.132 281.986,278.271 301.865,278.271C321.743,278.271 337.882,262.132 337.882,242.253C337.882,222.375 321.743,206.235 301.865,206.235ZM301.865,228.342C309.543,228.342 315.778,234.575 315.778,242.253C315.778,249.932 309.543,256.165 301.865,256.165C294.187,256.165 287.952,249.932 287.952,242.253C287.952,234.575 294.187,228.342 301.865,228.342Z" style="fill:rgb(88,89,89);"/>
                        </g>
                        <g transform="matrix(0.212204,0,0,0.21231,1972.95,275.356)">
                            <path d="M301.865,206.235C281.986,206.235 265.848,222.375 265.848,242.253C265.848,262.132 281.986,278.271 301.865,278.271C321.743,278.271 337.882,262.132 337.882,242.253C337.882,222.375 321.743,206.235 301.865,206.235ZM301.865,228.342C309.543,228.342 315.778,234.575 315.778,242.253C315.778,249.932 309.543,256.165 301.865,256.165C294.187,256.165 287.952,249.932 287.952,242.253C287.952,234.575 294.187,228.342 301.865,228.342Z" style="fill:rgb(129,131,132);"/>
                        </g>
                        <g transform="matrix(0.212204,0,0,0.21231,1933.28,303.416)">
                            <path d="M301.865,206.235C281.986,206.235 265.848,222.375 265.848,242.253C265.848,262.132 281.986,278.271 301.865,278.271C321.743,278.271 337.882,262.132 337.882,242.253C337.882,222.375 321.743,206.235 301.865,206.235ZM301.865,228.342C309.543,228.342 315.778,234.575 315.778,242.253C315.778,249.932 309.543,256.165 301.865,256.165C294.187,256.165 287.952,249.932 287.952,242.253C287.952,234.575 294.187,228.342 301.865,228.342Z" style="fill:rgb(88,89,89);"/>
                        </g>
                        <g transform="matrix(0.212204,0,0,0.21231,1978.25,327.927)">
                            <path d="M301.865,206.235C281.986,206.235 265.848,222.375 265.848,242.253C265.848,262.132 281.986,278.271 301.865,278.271C321.743,278.271 337.882,262.132 337.882,242.253C337.882,222.375 321.743,206.235 301.865,206.235ZM301.865,228.342C309.543,228.342 315.778,234.575 315.778,242.253C315.778,249.932 309.543,256.165 301.865,256.165C294.187,256.165 287.952,249.932 287.952,242.253C287.952,234.575 294.187,228.342 301.865,228.342Z" style="fill:rgb(255,93,0);"/>
                        </g>
                        <g transform="matrix(0.212204,0,0,0.21231,1922.69,357.754)">
                            <path d="M301.865,206.235C281.986,206.235 265.848,222.375 265.848,242.253C265.848,262.132 281.986,278.271 301.865,278.271C321.743,278.271 337.882,262.132 337.882,242.253C337.882,222.375 321.743,206.235 301.865,206.235ZM301.865,228.342C309.543,228.342 315.778,234.575 315.778,242.253C315.778,249.932 309.543,256.165 301.865,256.165C294.187,256.165 287.952,249.932 287.952,242.253C287.952,234.575 294.187,228.342 301.865,228.342Z" style="fill:rgb(88,89,89);"/>
                        </g>
                    </g>
                    <g transform="matrix(16,0,0,9.375,-26432,-2343.75)">
                        <rect x="1652" y="250" width="64" height="64" style="fill:none;"/>
                    </g>
                </g>
            </g>
        </g>
    </g>
</svg>
