<svg width="310" height="110" viewBox="0 0 310 110" fill="none" xmlns="http://www.w3.org/2000/svg">
<path d="M136.042 66.1888L133.495 69.0231V74.1421H129.134V53.8975H133.495V63.3546L141.893 53.8975H146.77L138.913 62.9208L147.23 74.1421H142.11L136.042 66.1888Z" fill="#585959"/>
<path d="M163.275 69.8039H154.471L152.791 74.1421H148.294L156.746 53.8975H161.081L169.56 74.1421H164.955L163.275 69.8039ZM161.893 66.2467L158.886 58.4959L155.879 66.2467H161.893Z" fill="#585959"/>
<path d="M190.275 53.8975V74.1421H186.672L177.217 61.8507V74.1421H172.883V53.8975H176.513L185.94 66.1888V53.8975H190.275Z" fill="#585959"/>
<path d="M230.868 69.8039H222.063L220.384 74.1421H215.887L224.339 53.8975H228.673L237.153 74.1421H232.547L230.868 69.8039ZM229.486 66.2467L226.479 58.4959L223.472 66.2467H229.486Z" fill="#585959"/>
<path d="M112.628 95.9825V99.7422H97.9453V79.4976H112.276V83.2573H102.307V87.6532H111.111V91.2973H102.307V95.9825H112.628Z" fill="#E85C11"/>
<path d="M129.729 99.7422L125.151 92.7144L120.654 99.7422H115.615L122.632 89.4463L115.967 79.4976H120.952L125.314 86.0626L129.594 79.4976H134.335L127.725 89.2728L134.795 99.7422H129.729Z" fill="#E85C11"/>
<path d="M147.704 100.064C145.78 100.064 144.019 99.601 142.475 98.7044C140.904 97.8079 139.685 96.5643 138.791 94.9736C137.897 93.383 137.437 91.5899 137.437 89.5944C137.437 87.5988 137.897 85.7768 138.791 84.1862C139.685 82.5955 140.904 81.3808 142.475 80.4554C144.019 79.5588 145.78 79.125 147.731 79.125C149.383 79.125 150.873 79.4431 152.201 80.0505C153.501 80.6578 154.639 81.5544 155.533 82.7112L152.715 85.4876C151.442 83.8969 149.844 83.1161 147.948 83.1161C146.783 83.1161 145.726 83.3764 144.805 83.9259C143.884 84.4754 143.18 85.2562 142.665 86.2395C142.15 87.2228 141.879 88.3508 141.879 89.5944C141.879 90.8379 142.15 91.9659 142.665 92.9492C143.18 93.9325 143.884 94.7133 144.805 95.2339C145.726 95.7834 146.783 96.0726 147.948 96.0726C149.844 96.0726 151.442 95.2628 152.715 93.6722L155.533 96.4486C154.639 97.6344 153.501 98.5309 152.174 99.1382C150.846 99.7456 149.356 100.064 147.704 100.064Z" fill="#E85C11"/>
<path d="M176.437 79.4976V99.7422H172.048V91.4419H163.434V99.7422H159.045V79.4976H163.434V87.4797H172.048V79.4976H176.437Z" fill="#E85C11"/>
<path d="M194.463 95.404H185.659L183.979 99.7422H179.482L187.935 79.4976H192.269L200.748 99.7422H196.143L194.463 95.404ZM193.082 91.8468L190.075 84.096L187.068 91.8468H193.082Z" fill="#E85C11"/>
<path d="M221.463 79.4976V99.7422H217.86L208.406 87.4508V99.7422H204.071V79.4976H207.701L217.129 91.7889V79.4976H221.463Z" fill="#E85C11"/>
<path d="M263.994 95.9825V99.7422H249.311V79.4976H263.641V83.2573H253.672V87.6532H262.476V91.2973H253.672V95.9825H263.994Z" fill="#E85C11"/>
<path d="M212.935 63.6758V71.8895C211.903 72.7184 210.713 73.3549 209.356 73.7983C208.004 74.2417 206.642 74.4632 205.266 74.4632C203.299 74.4632 201.529 74.0154 199.956 73.1187C198.388 72.222 197.154 70.9786 196.259 69.388C195.364 67.7974 194.917 65.9991 194.917 63.9941C194.917 61.989 195.364 60.1912 196.259 58.6001C197.154 57.0095 198.398 55.7661 199.986 54.8694C201.574 53.9727 203.363 53.5249 205.349 53.5249C207.011 53.5249 208.521 53.8235 209.873 54.4211C211.229 55.0187 212.365 55.8865 213.284 57.0243L210.467 59.8003C209.115 58.2775 207.478 57.5158 205.566 57.5158C204.356 57.5158 203.28 57.7859 202.341 58.3256C201.402 58.8653 200.669 59.6269 200.148 60.6101C199.622 61.5937 199.361 62.7217 199.361 63.9941C199.361 65.2473 199.622 66.3654 200.148 67.3491C200.669 68.3322 201.397 69.0987 202.326 69.6482C203.26 70.1978 204.317 70.4723 205.512 70.4723C206.775 70.4723 207.911 70.183 208.924 69.6045V66.1543H204.873V62.3848H212.935V63.6758Z" fill="#585959"/>
<path d="M244.119 91.8791V97.4896C243.092 98.3186 241.902 98.955 240.545 99.3984C239.188 99.8419 237.826 100.064 236.454 100.064C234.488 100.064 232.718 99.6155 231.145 98.7188C229.571 97.8221 228.342 96.5787 227.448 94.9881C226.553 93.3975 226.105 91.5992 226.105 89.5942C226.105 87.5891 226.553 85.7913 227.448 84.2002C228.342 82.6096 229.581 81.3663 231.169 80.4696C232.762 79.5734 234.547 79.125 236.538 79.125C238.195 79.125 239.704 79.4236 241.061 80.0212C242.413 80.6193 243.554 81.4866 244.473 82.6244L241.656 85.4009C240.299 83.8776 238.667 83.116 236.754 83.116C235.54 83.116 234.468 83.386 233.529 83.9257C232.59 84.4654 231.858 85.2271 231.332 86.2107C230.81 87.1938 230.55 88.3218 230.55 89.5942C230.55 90.8474 230.81 91.9656 231.332 92.9492C231.858 93.9323 232.585 94.6989 233.514 95.2484C234.444 95.7979 235.506 96.0724 236.7 96.0724C237.964 96.0724 239.099 95.7832 240.112 95.2047V91.8791H236.405V88.1097H244.129V91.8791H244.119Z" fill="#E85C11"/>
<path fill-rule="evenodd" clip-rule="evenodd" d="M88.1743 95.5283C66.2096 95.5283 48.3772 77.7186 48.3772 55.7819C48.3772 33.8468 66.2096 16.037 88.1743 16.037C88.3122 16.037 88.4485 16.037 88.5864 16.0386L88.611 13.6644C88.4649 13.6628 88.3204 13.6611 88.1743 13.6611C64.8979 13.6611 46 32.535 46 55.7819C46 79.0303 64.8979 97.9025 88.1743 97.9025V95.5283Z" fill="#585959"/>
<path fill-rule="evenodd" clip-rule="evenodd" d="M88.1709 87.5593C70.6145 87.5593 56.3613 73.3229 56.3613 55.7887C56.3613 38.2546 70.6145 24.0195 88.1709 24.0195C95.8414 24.0195 102.883 26.7376 108.379 31.2618L109.891 29.4281C103.984 24.566 96.4164 21.6445 88.1709 21.6445C69.3019 21.6445 53.9834 36.945 53.9834 55.7887C53.9834 74.6338 69.3019 89.9342 88.1709 89.9342V87.5593Z" fill="#818384"/>
<path fill-rule="evenodd" clip-rule="evenodd" d="M88.1523 80.4075C74.5421 80.4075 63.4925 69.3719 63.4925 55.779C63.4925 42.1872 74.5421 31.1516 88.1523 31.1516C101.761 31.1516 112.811 42.1872 112.811 55.779H115.189C115.189 40.876 103.074 28.7764 88.1523 28.7764C73.2303 28.7764 61.1152 40.876 61.1152 55.779C61.1152 70.6831 73.2303 82.7827 88.1523 82.7827V80.4075Z" fill="#E85C11"/>
<path fill-rule="evenodd" clip-rule="evenodd" d="M71.4769 55.7945C71.4769 46.5704 78.9751 39.0818 88.2108 39.0818C97.4466 39.0818 104.945 46.5704 104.945 55.7945C104.945 64.8861 97.6606 72.2922 88.6078 72.5029L88.6631 74.8773C99.0028 74.6366 107.323 66.1786 107.323 55.7945C107.323 45.2599 98.7591 36.7065 88.2108 36.7065C77.6625 36.7065 69.0986 45.2599 69.0986 55.7945H71.4769Z" fill="#585959"/>
<path fill-rule="evenodd" clip-rule="evenodd" d="M99.1425 55.8128C99.1425 61.8344 94.2476 66.7231 88.2187 66.7231C82.1895 66.7231 77.2949 61.8344 77.2949 55.8128C77.2949 49.7916 82.1895 44.9028 88.2187 44.9028V47.2781C83.502 47.2781 79.6728 51.1024 79.6728 55.8128C79.6728 60.5235 83.502 64.3479 88.2187 64.3479C92.9351 64.3479 96.7643 60.5235 96.7643 55.8128H99.1425Z" fill="#585959"/>
<path fill-rule="evenodd" clip-rule="evenodd" d="M91.282 11C89.1434 11 87.4072 12.7342 87.4072 14.87C87.4072 17.0059 89.1434 18.74 91.282 18.74C93.4206 18.74 95.1568 17.0059 95.1568 14.87C95.1568 12.7342 93.4206 11 91.282 11ZM91.282 13.3753C92.108 13.3753 92.7788 14.045 92.7788 14.87C92.7788 15.6951 92.108 16.3648 91.282 16.3648C90.456 16.3648 89.7852 15.6951 89.7852 14.87C89.7852 14.045 90.456 13.3753 91.282 13.3753Z" fill="#585959"/>
<path fill-rule="evenodd" clip-rule="evenodd" d="M111.4 28.0312C109.262 28.0312 107.525 29.7654 107.525 31.9012C107.525 34.0371 109.262 35.7712 111.4 35.7712C113.539 35.7712 115.275 34.0371 115.275 31.9012C115.275 29.7654 113.539 28.0312 111.4 28.0312ZM111.4 30.4066C112.226 30.4066 112.897 31.0763 112.897 31.9012C112.897 32.7263 112.226 33.396 111.4 33.396C110.574 33.396 109.903 32.7263 109.903 31.9012C109.903 31.0763 110.574 30.4066 111.4 30.4066Z" fill="#818384"/>
<path fill-rule="evenodd" clip-rule="evenodd" d="M91.282 42.1885C89.1434 42.1885 87.4072 43.9227 87.4072 46.0585C87.4072 48.1944 89.1434 49.9285 91.282 49.9285C93.4206 49.9285 95.1568 48.1944 95.1568 46.0585C95.1568 43.9227 93.4206 42.1885 91.282 42.1885ZM91.282 44.5638C92.108 44.5638 92.7788 45.2335 92.7788 46.0585C92.7788 46.8835 92.108 47.5533 91.282 47.5533C90.456 47.5533 89.7852 46.8835 89.7852 46.0585C89.7852 45.2335 90.456 44.5638 91.282 44.5638Z" fill="#585959"/>
<path fill-rule="evenodd" clip-rule="evenodd" d="M114.061 54.5894C111.923 54.5894 110.187 56.3235 110.187 58.4593C110.187 60.5953 111.923 62.3293 114.061 62.3293C116.2 62.3293 117.936 60.5953 117.936 58.4593C117.936 56.3235 116.2 54.5894 114.061 54.5894ZM114.061 56.9647C114.887 56.9647 115.558 57.6344 115.558 58.4593C115.558 59.2844 114.887 59.9541 114.061 59.9541C113.235 59.9541 112.565 59.2844 112.565 58.4593C112.565 57.6344 113.235 56.9647 114.061 56.9647Z" fill="#E85C11"/>
<path fill-rule="evenodd" clip-rule="evenodd" d="M85.8533 69.7046C83.7147 69.7046 81.9785 71.4388 81.9785 73.5746C81.9785 75.7105 83.7147 77.4446 85.8533 77.4446C87.9918 77.4446 89.7281 75.7105 89.7281 73.5746C89.7281 71.4388 87.9918 69.7046 85.8533 69.7046ZM85.8533 72.0799C86.6793 72.0799 87.3501 72.7496 87.3501 73.5746C87.3501 74.3997 86.6793 75.0694 85.8533 75.0694C85.0273 75.0694 84.3565 74.3997 84.3565 73.5746C84.3565 72.7496 85.0273 72.0799 85.8533 72.0799Z" fill="#585959"/>
</svg>
