<?xml version="1.0" encoding="utf-8"?>
<!-- Generator: Adobe Illustrator 26.1.0, SVG Export Plug-In . SVG Version: 6.00 Build 0)  -->
<svg version="1.1" id="Warstwa_1" xmlns="http://www.w3.org/2000/svg" xmlns:xlink="http://www.w3.org/1999/xlink" x="0px" y="0px"
	 viewBox="0 0 841.9 595.3" style="enable-background:new 0 0 841.9 595.3;" xml:space="preserve">
<style type="text/css">
	
		.st0{clip-path:url(#SVGID_00000137098511298521024760000018257090637731425666_);fill:url(#SVGID_00000090267029358739147370000003638966140155475627_);}
	
		.st1{clip-path:url(#SVGID_00000032639116819666571140000006420778682189392314_);fill:url(#SVGID_00000029022580162513584230000001411690361977133746_);}
	
		.st2{clip-path:url(#SVGID_00000137119708855757457590000011274415301116155562_);fill:url(#SVGID_00000127024140999680937060000004335647590742889106_);}
	
		.st3{clip-path:url(#SVGID_00000015338256658003152210000008330021967420760741_);fill:url(#SVGID_00000052090096370073250050000011865363509299417473_);}
	
		.st4{clip-path:url(#SVGID_00000062891086028164390130000003973773955516086167_);fill:url(#SVGID_00000098185213796730529560000013602284316645822103_);}
	
		.st5{clip-path:url(#SVGID_00000078737113062872232580000003990586631848311448_);fill:url(#SVGID_00000078767038543949494590000015139655272698458768_);}
	
		.st6{clip-path:url(#SVGID_00000017492768839562516640000017876975474842911891_);fill:url(#SVGID_00000088132653197424492310000002702610390672668546_);}
	
		.st7{clip-path:url(#SVGID_00000106137404721133707230000006152255401815827329_);fill:url(#SVGID_00000034789316477032815650000009136048900846527396_);}
</style>
<g>
	<defs>
		<path id="SVGID_1_" d="M424.9,296.5c-3.2-5.6-7.6-10-13.1-13.2c-5.5-3.2-11.8-4.8-18.9-4.8c-7.1,0-13.6,1.6-19.1,4.8
			c-5.5,3.2-9.9,7.6-13.1,13.2c-3.2,5.6-4.8,12-4.8,19.2c0,7.1,1.6,13.5,4.8,19c3.2,5.6,7.6,10,13.1,13.2c5.5,3.2,12,4.8,19.1,4.8
			c7.1,0,13.4-1.6,19-4.8c5.5-3.2,9.9-7.6,13.1-13.2c3.2-5.6,4.8-12,4.8-19C429.7,308.5,428.1,302,424.9,296.5z M417.5,315.6
			c0,4.9-1.1,9.4-3.1,13.2c-2.1,3.8-5,6.9-8.7,9.1c-3.7,2.2-8,3.3-12.7,3.3s-9-1.1-12.7-3.3c-3.7-2.2-6.7-5.3-8.9-9.1
			c-2.2-3.8-3.3-8.3-3.3-13.2c0-4.9,1.1-9.4,3.3-13.3c2.2-3.9,5.1-7,8.8-9.2c3.7-2.2,8-3.3,12.7-3.3s9,1.1,12.7,3.3
			c3.7,2.2,6.6,5.3,8.7,9.2C416.4,306.2,417.5,310.7,417.5,315.6z"/>
	</defs>
	
		<linearGradient id="SVGID_00000159438714295300289100000003933767027907625610_" gradientUnits="userSpaceOnUse" x1="355.8607" y1="315.5778" x2="429.7968" y2="315.5778">
		<stop  offset="0" style="stop-color:#0028FF"/>
		<stop  offset="0.164" style="stop-color:#053BFF"/>
		<stop  offset="0.4979" style="stop-color:#126DFE"/>
		<stop  offset="0.9682" style="stop-color:#27BDFD"/>
		<stop  offset="1" style="stop-color:#28C3FD"/>
	</linearGradient>
	<use xlink:href="#SVGID_1_"  style="overflow:visible;fill:url(#SVGID_00000159438714295300289100000003933767027907625610_);"/>
	<clipPath id="SVGID_00000139974122456945162890000013798428312394432660_">
		<use xlink:href="#SVGID_1_"  style="overflow:visible;"/>
	</clipPath>
	
		<linearGradient id="SVGID_00000176731476539590526370000010359347766579356323_" gradientUnits="userSpaceOnUse" x1="1295.0222" y1="-1726.0778" x2="1862.7572" y2="-1726.0778" gradientTransform="matrix(-1 0 0 -1 2081.5459 -1424.5405)">
		<stop  offset="0" style="stop-color:#0028FF"/>
		<stop  offset="0.164" style="stop-color:#053BFF"/>
		<stop  offset="0.4979" style="stop-color:#126DFE"/>
		<stop  offset="0.9682" style="stop-color:#27BDFD"/>
		<stop  offset="1" style="stop-color:#28C3FD"/>
	</linearGradient>
	
		<polygon style="clip-path:url(#SVGID_00000139974122456945162890000013798428312394432660_);fill:url(#SVGID_00000176731476539590526370000010359347766579356323_);" points="
		218.8,239.8 786.5,239.8 786.5,363.3 218.8,363.3 	"/>
</g>
<g>
	<defs>
		<path id="SVGID_00000036220938412922728080000012149577503840965266_" d="M490.6,321.6c-1.7-2.8-4.6-5.3-8.4-7.4
			c-3.8-2-9.1-3.6-15.7-4.8c-4.6-0.9-8.3-1.8-10.9-2.9c-2.5-1-4.2-2.2-5.1-3.5c-0.9-1.3-1.4-2.8-1.4-4.6c0-2.6,1.3-4.6,3.9-6.2
			c2.7-1.7,6.3-2.5,10.6-2.5c3.5,0,6.6,0.5,9.3,1.5c2.7,1,5.1,2.7,7.2,4.9c1.1,1.2,2.6,2,4.2,2.3c1.7,0.3,3.2,0,4.6-0.8
			c1.4-1,2.2-2.3,2.4-3.8c0.2-1.5-0.3-3-1.4-4.4c-2.7-3.4-6.2-6.1-10.6-8.1c-4.3-2-9.5-3-15.5-3c-4.7,0-9.1,0.8-13.1,2.3
			c-4.1,1.5-7.4,3.8-9.9,6.9c-2.5,3.1-3.8,7-3.8,11.5c0,5.1,2.1,9.5,6.3,13.1c4.1,3.6,10.7,6.1,19.6,7.6c6.7,1.1,11.4,2.7,14.2,4.6
			c2.7,1.9,3.9,4.1,3.8,6.9c-0.1,2.8-1.4,5.1-4,7c-2.7,2-7,2.9-12.8,2.9c-4,0-7.7-0.7-11-2c-3.3-1.3-5.8-3-7.6-5.1
			c-1.1-1.1-2.5-1.8-4.1-2.1c-1.6-0.2-3.2,0.2-4.8,1.4c-1.3,1.2-2.1,2.6-2.3,4.2c-0.2,1.7,0.3,3.2,1.5,4.5c3.1,3.4,7.3,6,12.5,7.8
			c5.2,1.8,10.6,2.7,16.1,2.7c5.7,0,10.8-0.9,15.1-2.8c4.3-1.9,7.7-4.5,10.1-7.7c2.4-3.2,3.6-7,3.6-11.1
			C493.2,327.7,492.3,324.5,490.6,321.6z"/>
	</defs>
	
		<linearGradient id="SVGID_00000036247441705708278870000011937635102269942709_" gradientUnits="userSpaceOnUse" x1="434.2878" y1="315.5778" x2="493.2165" y2="315.5778">
		<stop  offset="0" style="stop-color:#0028FF"/>
		<stop  offset="0.164" style="stop-color:#053BFF"/>
		<stop  offset="0.4979" style="stop-color:#126DFE"/>
		<stop  offset="0.9682" style="stop-color:#27BDFD"/>
		<stop  offset="1" style="stop-color:#28C3FD"/>
	</linearGradient>
	
		<use xlink:href="#SVGID_00000036220938412922728080000012149577503840965266_"  style="overflow:visible;fill:url(#SVGID_00000036247441705708278870000011937635102269942709_);"/>
	<clipPath id="SVGID_00000165919603747832773240000007067892013621202313_">
		<use xlink:href="#SVGID_00000036220938412922728080000012149577503840965266_"  style="overflow:visible;"/>
	</clipPath>
	
		<linearGradient id="SVGID_00000068674140460769688090000012256624566292866432_" gradientUnits="userSpaceOnUse" x1="1296.8827" y1="-1726.0778" x2="1864.6177" y2="-1726.0778" gradientTransform="matrix(-1 0 0 -1 2081.5459 -1424.5405)">
		<stop  offset="0" style="stop-color:#0028FF"/>
		<stop  offset="0.164" style="stop-color:#053BFF"/>
		<stop  offset="0.4979" style="stop-color:#126DFE"/>
		<stop  offset="0.9682" style="stop-color:#27BDFD"/>
		<stop  offset="1" style="stop-color:#28C3FD"/>
	</linearGradient>
	
		<polygon style="clip-path:url(#SVGID_00000165919603747832773240000007067892013621202313_);fill:url(#SVGID_00000068674140460769688090000012256624566292866432_);" points="
		216.9,239.8 784.7,239.8 784.7,363.3 216.9,363.3 	"/>
</g>
<g>
	<defs>
		<path id="SVGID_00000049184984690758813700000001749333852062040452_" d="M630.6,293.2c3.5-2.2,7.6-3.3,12.1-3.3
			c7,0,12.9,2.6,17.5,7.7c1.1,1.2,2.3,2,3.8,2.3c1.5,0.3,2.9,0,4.1-0.9c1.4-1,2.3-2.3,2.7-3.7c0.4-1.5-0.1-2.9-1.2-4.3
			c-3.4-4.2-7.5-7.3-12-9.4c-4.5-2.1-9.5-3.1-14.8-3.1c-6.9,0-13.1,1.6-18.3,4.9c-5.3,3.2-9.5,7.7-12.5,13.3c-3,5.6-4.6,12-4.6,19
			c0,7,1.6,13.3,4.7,18.9c3.1,5.6,7.5,10,13,13.3c5.5,3.2,11.8,4.9,18.8,4.9c9.6,0,17.8-3,24.3-9c1.2-1.2,1.7-2.6,1.5-4.1
			c-0.2-1.5-0.9-2.8-2.2-4c-1.2-1-2.5-1.4-4-1.3c-1.4,0.1-2.7,0.7-4,1.8c-2,1.7-4.3,3-6.9,3.8c-2.6,0.8-5.5,1.3-8.8,1.3
			c-4.7,0-9-1.1-12.7-3.3c-3.7-2.2-6.6-5.3-8.6-9.1c-2-3.9-3.1-8.3-3.1-13.2c0-5.1,1-9.6,2.9-13.4
			C624.4,298.4,627.1,295.4,630.6,293.2z"/>
	</defs>
	
		<linearGradient id="SVGID_00000062912072595524889400000000695754757284599964_" gradientUnits="userSpaceOnUse" x1="607.3207" y1="315.5778" x2="670.9626" y2="315.5778">
		<stop  offset="0" style="stop-color:#0028FF"/>
		<stop  offset="0.164" style="stop-color:#053BFF"/>
		<stop  offset="0.4979" style="stop-color:#126DFE"/>
		<stop  offset="0.9682" style="stop-color:#27BDFD"/>
		<stop  offset="1" style="stop-color:#28C3FD"/>
	</linearGradient>
	
		<use xlink:href="#SVGID_00000049184984690758813700000001749333852062040452_"  style="overflow:visible;fill:url(#SVGID_00000062912072595524889400000000695754757284599964_);"/>
	<clipPath id="SVGID_00000017492080949483071050000001880183307221417364_">
		<use xlink:href="#SVGID_00000049184984690758813700000001749333852062040452_"  style="overflow:visible;"/>
	</clipPath>
	
		<linearGradient id="SVGID_00000155828918913410341520000012457716802033072800_" gradientUnits="userSpaceOnUse" x1="1298.0129" y1="-1726.0778" x2="1865.7478" y2="-1726.0778" gradientTransform="matrix(-1 0 0 -1 2081.5459 -1424.5405)">
		<stop  offset="0" style="stop-color:#0028FF"/>
		<stop  offset="0.164" style="stop-color:#053BFF"/>
		<stop  offset="0.4979" style="stop-color:#126DFE"/>
		<stop  offset="0.9682" style="stop-color:#27BDFD"/>
		<stop  offset="1" style="stop-color:#28C3FD"/>
	</linearGradient>
	
		<polygon style="clip-path:url(#SVGID_00000017492080949483071050000001880183307221417364_);fill:url(#SVGID_00000155828918913410341520000012457716802033072800_);" points="
		215.8,239.8 783.5,239.8 783.5,363.3 215.8,363.3 	"/>
</g>
<g>
	<defs>
		<path id="SVGID_00000093163470428790533790000014078984346186602126_" d="M746.7,296.5c-3.2-5.6-7.6-10-13.1-13.2
			c-5.5-3.2-11.8-4.8-18.9-4.8c-7.2,0-13.6,1.6-19.1,4.8c-5.5,3.2-9.9,7.6-13.1,13.2c-3.2,5.6-4.8,12-4.8,19.2
			c0,7.1,1.6,13.5,4.8,19c3.2,5.6,7.6,10,13.1,13.2c5.5,3.2,12,4.8,19.1,4.8c7.1,0,13.4-1.6,19-4.8c5.5-3.2,9.9-7.6,13.1-13.2
			c3.2-5.6,4.8-12,4.8-19C751.6,308.5,749.9,302,746.7,296.5z M739.3,315.6c0,4.9-1.1,9.4-3.1,13.2c-2.1,3.8-5,6.9-8.7,9.1
			c-3.7,2.2-8,3.3-12.7,3.3c-4.7,0-9-1.1-12.7-3.3c-3.7-2.2-6.7-5.3-8.8-9.1c-2.2-3.9-3.3-8.3-3.3-13.2c0-4.9,1.1-9.4,3.3-13.3
			c2.2-3.9,5.1-7,8.8-9.2c3.7-2.2,8-3.3,12.7-3.3c4.7,0,9,1.1,12.7,3.3c3.7,2.2,6.6,5.3,8.7,9.2
			C738.3,306.2,739.3,310.7,739.3,315.6z"/>
	</defs>
	
		<linearGradient id="SVGID_00000141443785468989526720000004702897019999489700_" gradientUnits="userSpaceOnUse" x1="677.7023" y1="315.5778" x2="751.6416" y2="315.5778">
		<stop  offset="0" style="stop-color:#0028FF"/>
		<stop  offset="0.164" style="stop-color:#053BFF"/>
		<stop  offset="0.4979" style="stop-color:#126DFE"/>
		<stop  offset="0.9682" style="stop-color:#27BDFD"/>
		<stop  offset="1" style="stop-color:#28C3FD"/>
	</linearGradient>
	
		<use xlink:href="#SVGID_00000093163470428790533790000014078984346186602126_"  style="overflow:visible;fill:url(#SVGID_00000141443785468989526720000004702897019999489700_);"/>
	<clipPath id="SVGID_00000042717626917402011990000018248624917061911722_">
		<use xlink:href="#SVGID_00000093163470428790533790000014078984346186602126_"  style="overflow:visible;"/>
	</clipPath>
	
		<linearGradient id="SVGID_00000134957080620263763800000003825123824823373472_" gradientUnits="userSpaceOnUse" x1="1298.0129" y1="-1726.0778" x2="1865.7478" y2="-1726.0778" gradientTransform="matrix(-1 0 0 -1 2081.5459 -1424.5405)">
		<stop  offset="0" style="stop-color:#0028FF"/>
		<stop  offset="0.164" style="stop-color:#053BFF"/>
		<stop  offset="0.4979" style="stop-color:#126DFE"/>
		<stop  offset="0.9682" style="stop-color:#27BDFD"/>
		<stop  offset="1" style="stop-color:#28C3FD"/>
	</linearGradient>
	
		<polygon style="clip-path:url(#SVGID_00000042717626917402011990000018248624917061911722_);fill:url(#SVGID_00000134957080620263763800000003825123824823373472_);" points="
		215.8,239.8 783.5,239.8 783.5,363.3 215.8,363.3 	"/>
</g>
<g>
	<defs>
		<path id="SVGID_00000084531204865251706720000000629083626249766016_" d="M342.7,293c-2.2-4.5-5.4-8-9.4-10.4
			c-4-2.4-8.7-3.6-13.8-3.6c-5.6,0-10.6,1.3-15,3.7c-3.3,1.9-6.1,4.3-8.4,7.4c-2.1-3.1-4.7-5.6-7.8-7.5c-4-2.4-8.7-3.6-13.8-3.6
			c-5.2,0-9.9,1.3-14,3.8c-1.7,1-3.2,2.2-4.6,3.6v-0.2c0-1.8-0.6-3.3-1.7-4.5c-1.1-1.2-2.6-1.8-4.5-1.8c-1.8,0-3.4,0.6-4.5,1.8
			c-1.2,1.2-1.8,2.7-1.8,4.5v60.4c0,1.8,0.6,3.3,1.8,4.5c1.2,1.1,2.7,1.7,4.5,1.7c1.8,0,3.3-0.6,4.5-1.7c1.1-1.1,1.7-2.6,1.7-4.5
			v-38.1c0-5.2,1.6-9.5,4.8-12.7c3.2-3.3,7.3-4.9,12.2-4.9c4.6,0,8.4,1.6,11.3,4.7c2.9,3.1,4.4,7.7,4.4,13.5v37.5
			c0,1.8,0.6,3.3,1.9,4.5c1.2,1.1,2.7,1.7,4.4,1.7c1.8,0,3.3-0.6,4.5-1.7c1.2-1.1,1.8-2.6,1.8-4.5V309l0-0.5c0-5.2,1.6-9.5,4.6-12.7
			c3.1-3.3,7.2-5,12.1-5c4.6,0,8.4,1.6,11.3,4.7c2.9,3.1,4.4,7.7,4.4,13.5v37.5c0,1.8,0.6,3.3,1.8,4.5c1.2,1.1,2.7,1.7,4.5,1.7
			c1.8,0,3.3-0.6,4.5-1.7c1.1-1.1,1.7-2.6,1.7-4.5V309C346,302.9,344.9,297.5,342.7,293z"/>
	</defs>
	
		<linearGradient id="SVGID_00000121973921236411288360000005096088045909599883_" gradientUnits="userSpaceOnUse" x1="243.429" y1="315.8394" x2="346.0155" y2="315.8394">
		<stop  offset="0" style="stop-color:#0028FF"/>
		<stop  offset="0.164" style="stop-color:#053BFF"/>
		<stop  offset="0.4979" style="stop-color:#126DFE"/>
		<stop  offset="0.9682" style="stop-color:#27BDFD"/>
		<stop  offset="1" style="stop-color:#28C3FD"/>
	</linearGradient>
	
		<use xlink:href="#SVGID_00000084531204865251706720000000629083626249766016_"  style="overflow:visible;fill:url(#SVGID_00000121973921236411288360000005096088045909599883_);"/>
	<clipPath id="SVGID_00000121272438294656568950000011993952819970207407_">
		<use xlink:href="#SVGID_00000084531204865251706720000000629083626249766016_"  style="overflow:visible;"/>
	</clipPath>
	
		<linearGradient id="SVGID_00000067923210771430383090000012643895676305591735_" gradientUnits="userSpaceOnUse" x1="1292.0455" y1="-1726.0778" x2="1859.7804" y2="-1726.0778" gradientTransform="matrix(-1 0 0 -1 2081.5459 -1424.5405)">
		<stop  offset="0" style="stop-color:#0028FF"/>
		<stop  offset="0.164" style="stop-color:#053BFF"/>
		<stop  offset="0.4979" style="stop-color:#126DFE"/>
		<stop  offset="0.9682" style="stop-color:#27BDFD"/>
		<stop  offset="1" style="stop-color:#28C3FD"/>
	</linearGradient>
	
		<polygon style="clip-path:url(#SVGID_00000121272438294656568950000011993952819970207407_);fill:url(#SVGID_00000067923210771430383090000012643895676305591735_);" points="
		221.8,239.8 789.5,239.8 789.5,363.3 221.8,363.3 	"/>
</g>
<g>
	<defs>
		<path id="SVGID_00000151517591053943962200000006373144555856914571_" d="M573.2,315.3c-0.1-6.9-1.8-13.2-5-18.7
			c-3.2-5.6-7.7-10-13.2-13.3c-5.5-3.2-11.8-4.9-18.7-4.9c-7,0-13.3,1.6-18.9,4.9c-5.6,3.2-10,7.7-13.3,13.3c-3.2,5.6-4.9,12-4.9,19
			c0,7,1.6,13.3,4.7,18.9c3.1,5.6,7.4,10,12.7,13.3c5.3,3.2,11.4,4.9,18.1,4.9c6.5,0,12.3-1.6,17.4-4.6c3.2-1.9,6.1-4.4,8.5-7.2v5
			c0,1.8,0.6,3.3,1.8,4.5c1.2,1.1,2.7,1.7,4.5,1.7c1.7,0,3.2-0.6,4.4-1.7c1.2-1.1,1.8-2.6,1.8-4.5v-30.2L573.2,315.3z M560.9,315.6
			c0,4.8-1.1,9.3-3.2,13.2c-2.1,3.9-5.1,7-8.8,9.2c-3.7,2.2-8,3.3-12.6,3.3c-4.7,0-8.9-1.1-12.6-3.3c-3.7-2.2-6.7-5.3-8.9-9.2
			c-2.2-3.9-3.3-8.3-3.3-13.1c0-4.9,1.1-9.4,3.3-13.2c2.2-3.8,5.2-6.9,8.9-9.2c3.7-2.2,8-3.4,12.6-3.4c4.7,0,8.9,1.1,12.6,3.4
			c3.7,2.2,6.7,5.3,8.8,9.2C559.8,306.3,560.9,310.7,560.9,315.6z"/>
	</defs>
	
		<linearGradient id="SVGID_00000056402219570819484120000016307164938899770766_" gradientUnits="userSpaceOnUse" x1="499.2425" y1="315.5778" x2="573.1786" y2="315.5778">
		<stop  offset="0" style="stop-color:#0028FF"/>
		<stop  offset="0.164" style="stop-color:#053BFF"/>
		<stop  offset="0.4979" style="stop-color:#126DFE"/>
		<stop  offset="0.9682" style="stop-color:#27BDFD"/>
		<stop  offset="1" style="stop-color:#28C3FD"/>
	</linearGradient>
	
		<use xlink:href="#SVGID_00000151517591053943962200000006373144555856914571_"  style="overflow:visible;fill:url(#SVGID_00000056402219570819484120000016307164938899770766_);"/>
	<clipPath id="SVGID_00000128442921884724733870000002388627359582682288_">
		<use xlink:href="#SVGID_00000151517591053943962200000006373144555856914571_"  style="overflow:visible;"/>
	</clipPath>
	
		<linearGradient id="SVGID_00000056411387386725345120000009976604917447394997_" gradientUnits="userSpaceOnUse" x1="1295.0222" y1="-1726.0778" x2="1862.7572" y2="-1726.0778" gradientTransform="matrix(-1 0 0 -1 2081.5459 -1424.5405)">
		<stop  offset="0" style="stop-color:#0028FF"/>
		<stop  offset="0.164" style="stop-color:#053BFF"/>
		<stop  offset="0.4979" style="stop-color:#126DFE"/>
		<stop  offset="0.9682" style="stop-color:#27BDFD"/>
		<stop  offset="1" style="stop-color:#28C3FD"/>
	</linearGradient>
	
		<polygon style="clip-path:url(#SVGID_00000128442921884724733870000002388627359582682288_);fill:url(#SVGID_00000056411387386725345120000009976604917447394997_);" points="
		218.8,239.8 786.5,239.8 786.5,363.3 218.8,363.3 	"/>
</g>
<g>
	<defs>
		<path id="SVGID_00000061442311963203546270000003975751791070063525_" d="M590.6,279.1c-1.8,0-3.3,0.6-4.5,1.7
			c-1.2,1.1-1.8,2.7-1.8,4.6v60.3c0,1.8,0.6,3.4,1.8,4.5c1.2,1.2,2.7,1.8,4.5,1.8c1.8,0,3.3-0.6,4.5-1.8c1.1-1.2,1.7-2.7,1.7-4.5
			v-60.3c0-1.9-0.6-3.5-1.7-4.6C594,279.7,592.5,279.1,590.6,279.1z"/>
	</defs>
	
		<linearGradient id="SVGID_00000059293694769841561050000017577242043018982055_" gradientUnits="userSpaceOnUse" x1="584.3334" y1="315.5778" x2="596.7829" y2="315.5778">
		<stop  offset="0" style="stop-color:#0028FF"/>
		<stop  offset="0.164" style="stop-color:#053BFF"/>
		<stop  offset="0.4979" style="stop-color:#126DFE"/>
		<stop  offset="0.9682" style="stop-color:#27BDFD"/>
		<stop  offset="1" style="stop-color:#28C3FD"/>
	</linearGradient>
	
		<use xlink:href="#SVGID_00000061442311963203546270000003975751791070063525_"  style="overflow:visible;fill:url(#SVGID_00000059293694769841561050000017577242043018982055_);"/>
	<clipPath id="SVGID_00000102514463994129990560000015327523175244764844_">
		<use xlink:href="#SVGID_00000061442311963203546270000003975751791070063525_"  style="overflow:visible;"/>
	</clipPath>
	
		<linearGradient id="SVGID_00000026130893924241396060000010649079915281321606_" gradientUnits="userSpaceOnUse" x1="1296.1438" y1="-1726.0778" x2="1863.8788" y2="-1726.0778" gradientTransform="matrix(-1 0 0 -1 2081.5459 -1424.5405)">
		<stop  offset="0" style="stop-color:#0028FF"/>
		<stop  offset="0.164" style="stop-color:#053BFF"/>
		<stop  offset="0.4979" style="stop-color:#126DFE"/>
		<stop  offset="0.9682" style="stop-color:#27BDFD"/>
		<stop  offset="1" style="stop-color:#28C3FD"/>
	</linearGradient>
	
		<polygon style="clip-path:url(#SVGID_00000102514463994129990560000015327523175244764844_);fill:url(#SVGID_00000026130893924241396060000010649079915281321606_);" points="
		217.7,239.8 785.4,239.8 785.4,363.3 217.7,363.3 	"/>
</g>
<g>
	<defs>
		<path id="SVGID_00000165200666120284784110000009163092801661849249_" d="M590.5,267.5c2.3,0,4.2-0.8,5.9-2.4
			c1.7-1.6,2.5-3.6,2.5-6c0-2.4-0.8-4.4-2.5-5.9c-1.6-1.6-3.6-2.3-5.8-2.3c-2.3,0-4.2,0.8-5.9,2.3c-1.7,1.6-2.5,3.6-2.5,5.9
			c0,2.4,0.8,4.4,2.4,6C586.3,266.7,588.2,267.5,590.5,267.5z"/>
	</defs>
	
		<linearGradient id="SVGID_00000028285140803449737620000001495220520673257870_" gradientUnits="userSpaceOnUse" x1="582.2405" y1="259.1999" x2="598.8748" y2="259.1999">
		<stop  offset="0" style="stop-color:#0028FF"/>
		<stop  offset="0.164" style="stop-color:#053BFF"/>
		<stop  offset="0.4979" style="stop-color:#126DFE"/>
		<stop  offset="0.9682" style="stop-color:#27BDFD"/>
		<stop  offset="1" style="stop-color:#28C3FD"/>
	</linearGradient>
	
		<use xlink:href="#SVGID_00000165200666120284784110000009163092801661849249_"  style="overflow:visible;fill:url(#SVGID_00000028285140803449737620000001495220520673257870_);"/>
	<clipPath id="SVGID_00000034769295421926876290000015953139757150566314_">
		<use xlink:href="#SVGID_00000165200666120284784110000009163092801661849249_"  style="overflow:visible;"/>
	</clipPath>
	
		<linearGradient id="SVGID_00000176751676176402328380000010007539435634310050_" gradientUnits="userSpaceOnUse" x1="1296.1438" y1="-1726.0778" x2="1863.8788" y2="-1726.0778" gradientTransform="matrix(-1 0 0 -1 2081.5459 -1424.5405)">
		<stop  offset="0" style="stop-color:#0028FF"/>
		<stop  offset="0.164" style="stop-color:#053BFF"/>
		<stop  offset="0.4979" style="stop-color:#126DFE"/>
		<stop  offset="0.9682" style="stop-color:#27BDFD"/>
		<stop  offset="1" style="stop-color:#28C3FD"/>
	</linearGradient>
	
		<polygon style="clip-path:url(#SVGID_00000034769295421926876290000015953139757150566314_);fill:url(#SVGID_00000176751676176402328380000010007539435634310050_);" points="
		217.7,239.8 785.4,239.8 785.4,363.3 217.7,363.3 	"/>
</g>
<g>
	<defs>
		<path id="SVGID_00000181778578236870678540000016835783454115382699_" d="M147.1,340c-2.6,0.5-4.5,2.8-4.5,5.4
			c0,1.6,0.7,3,1.8,4.1l50.6,45.9c1,0.9,2.3,1.4,3.7,1.4c2.5,0,4.6-1.6,5.3-4l17.3-58.5c0.2-0.5,0.2-1,0.2-1.6c0-3-2.5-5.5-5.5-5.5
			c-0.3,0-0.7,0-1,0.1L147.1,340z"/>
	</defs>
	
		<linearGradient id="SVGID_00000091007166873926050770000013897330267553063578_" gradientUnits="userSpaceOnUse" x1="171.3313" y1="386.5325" x2="185.9324" y2="321.8816">
		<stop  offset="5.071819e-02" style="stop-color:#FF8200"/>
		<stop  offset="1" style="stop-color:#FFD700"/>
	</linearGradient>
	
		<use xlink:href="#SVGID_00000181778578236870678540000016835783454115382699_"  style="overflow:visible;fill-rule:evenodd;clip-rule:evenodd;fill:url(#SVGID_00000091007166873926050770000013897330267553063578_);"/>
	<clipPath id="SVGID_00000163049520132263053310000000638493793636198283_">
		<use xlink:href="#SVGID_00000181778578236870678540000016835783454115382699_"  style="overflow:visible;"/>
	</clipPath>
</g>
<g>
	<defs>
		<path id="SVGID_00000008831337693907263580000013115428007460672408_" d="M128.7,386c2.8-0.3,5-2.8,4.9-5.6L131,261.7
			c-0.1-3-2.5-5.4-5.5-5.4c-2,0-3.9,1.1-4.9,2.9L54,386c-0.4,0.8-0.6,1.7-0.6,2.6c0,3,2.5,5.5,5.5,5.5c0.2,0,0.4,0,0.6,0L128.7,386z
			"/>
	</defs>
	
		<linearGradient id="SVGID_00000110437733991364858790000017302380527319970449_" gradientUnits="userSpaceOnUse" x1="135.4664" y1="265.0208" x2="76.8148" y2="431.9815">
		<stop  offset="8.126188e-02" style="stop-color:#0027F5"/>
		<stop  offset="0.219" style="stop-color:#004EF7"/>
		<stop  offset="0.3965" style="stop-color:#007AF9"/>
		<stop  offset="0.5682" style="stop-color:#009CFB"/>
		<stop  offset="0.7301" style="stop-color:#00B5FC"/>
		<stop  offset="0.8782" style="stop-color:#00C4FD"/>
		<stop  offset="1" style="stop-color:#00C9FD"/>
	</linearGradient>
	
		<use xlink:href="#SVGID_00000008831337693907263580000013115428007460672408_"  style="overflow:visible;fill-rule:evenodd;clip-rule:evenodd;fill:url(#SVGID_00000110437733991364858790000017302380527319970449_);"/>
	<clipPath id="SVGID_00000093147627095835794890000018237962058534422200_">
		<use xlink:href="#SVGID_00000008831337693907263580000013115428007460672408_"  style="overflow:visible;"/>
	</clipPath>
</g>
<g>
	<defs>
		<path id="SVGID_00000088128888370720233680000004474948807144494723_" d="M209.9,315.1c2.6-0.5,4.6-2.8,4.6-5.4
			c0-1.2-0.4-2.4-1.1-3.3l-60.1-80.9c-1-1.4-2.7-2.2-4.4-2.2c-3,0-5.5,2.5-5.5,5.5c0,0,0,0.1,0,0.1l2.4,91.1c0.1,3,2.5,5.4,5.5,5.4
			c0.3,0,0.7,0,1-0.1L209.9,315.1z"/>
	</defs>
	
		<linearGradient id="SVGID_00000103267416715899781390000007696562614694701448_" gradientUnits="userSpaceOnUse" x1="126.1826" y1="244.0295" x2="189.1777" y2="324.0474">
		<stop  offset="0" style="stop-color:#0027F5"/>
		<stop  offset="0.1217" style="stop-color:#0032F6"/>
		<stop  offset="0.3334" style="stop-color:#004EF7"/>
		<stop  offset="0.6098" style="stop-color:#007CF9"/>
		<stop  offset="0.937" style="stop-color:#00BCFC"/>
		<stop  offset="1" style="stop-color:#00C9FD"/>
	</linearGradient>
	
		<use xlink:href="#SVGID_00000088128888370720233680000004474948807144494723_"  style="overflow:visible;fill-rule:evenodd;clip-rule:evenodd;fill:url(#SVGID_00000103267416715899781390000007696562614694701448_);"/>
	<clipPath id="SVGID_00000103979097359792341240000015696849263644513726_">
		<use xlink:href="#SVGID_00000088128888370720233680000004474948807144494723_"  style="overflow:visible;"/>
	</clipPath>
</g>
<g>
	<defs>
		<path id="SVGID_00000069395406667400080340000017305439179757468567_" d="M70.7,309c0.7,2,2.6,3.3,4.6,3.3c1.9,0,3.6-1.1,4.4-2.8
			l38.2-78.5c0.3-0.7,0.5-1.4,0.5-2.2c0-2.7-2.2-4.9-4.9-4.9c-0.9,0-1.7,0.2-2.4,0.6L56,255.8c-2.1,1.2-3,3.7-2.2,6L70.7,309z"/>
	</defs>
	
		<linearGradient id="SVGID_00000021086064825293916480000005750285277489997486_" gradientUnits="userSpaceOnUse" x1="89.7272" y1="220.2406" x2="75.4801" y2="313.0477">
		<stop  offset="0" style="stop-color:#FF8200"/>
		<stop  offset="4.785991e-02" style="stop-color:#FF8600"/>
		<stop  offset="1" style="stop-color:#FFD700"/>
	</linearGradient>
	
		<use xlink:href="#SVGID_00000069395406667400080340000017305439179757468567_"  style="overflow:visible;fill-rule:evenodd;clip-rule:evenodd;fill:url(#SVGID_00000021086064825293916480000005750285277489997486_);"/>
	<clipPath id="SVGID_00000127045185609857037510000018411305924933036724_">
		<use xlink:href="#SVGID_00000069395406667400080340000017305439179757468567_"  style="overflow:visible;"/>
	</clipPath>
</g>
</svg>
