<svg width="35" height="35" viewBox="0 0 35 35" fill="none" xmlns="http://www.w3.org/2000/svg">
<rect width="35" height="35" fill="white"/>
<path d="M20.3859 12.3001H14.5988V22.6998H20.3859V12.3001Z" fill="#FF5F00"/>
<path d="M14.9662 17.5C14.9653 16.4984 15.1922 15.5098 15.6299 14.6089C16.0676 13.708 16.7044 12.9185 17.4923 12.3002C16.5166 11.5332 15.3449 11.0563 14.1109 10.9239C12.877 10.7914 11.6307 11.0088 10.5145 11.5512C9.39832 12.0936 8.45723 12.9391 7.79882 13.991C7.14041 15.043 6.79126 16.259 6.79126 17.5C6.79126 18.741 7.14041 19.957 7.79882 21.0089C8.45723 22.0609 9.39832 22.9064 10.5145 23.4487C11.6307 23.9911 12.877 24.2085 14.1109 24.0761C15.3449 23.9436 16.5166 23.4667 17.4923 22.6998C16.7044 22.0814 16.0676 21.2919 15.6299 20.3911C15.1923 19.4902 14.9653 18.5015 14.9662 17.5V17.5Z" fill="#EB001B"/>
<path d="M28.193 17.5C28.1931 18.741 27.844 19.9569 27.1856 21.0089C26.5272 22.0608 25.5862 22.9063 24.47 23.4487C23.3538 23.9911 22.1075 24.2085 20.8736 24.0761C19.6397 23.9436 18.468 23.4667 17.4923 22.6998C18.2795 22.0808 18.9159 21.2912 19.3535 20.3904C19.791 19.4897 20.0184 18.5014 20.0184 17.5C20.0184 16.4986 19.791 15.5102 19.3535 14.6095C18.9159 13.7088 18.2795 12.9191 17.4923 12.3002C18.468 11.5332 19.6397 11.0563 20.8736 10.9239C22.1075 10.7914 23.3538 11.0088 24.47 11.5512C25.5862 12.0936 26.5272 12.9391 27.1856 13.9911C27.844 15.043 28.1931 16.259 28.193 17.5V17.5Z" fill="#F79E1B"/>
<path d="M27.5621 21.5983V21.3854H27.6479V21.342H27.4293V21.3854H27.5151V21.5983H27.5621ZM27.9865 21.5983V21.3416H27.9195L27.8424 21.5182L27.7653 21.3416H27.6983V21.5983H27.7456V21.4047L27.8179 21.5716H27.867L27.9392 21.4043V21.5983H27.9865Z" fill="#F79E1B"/>
</svg>
