<svg width="35" height="35" viewBox="0 0 35 35" fill="none" xmlns="http://www.w3.org/2000/svg">
<rect width="35" height="35" fill="white"/>
<path fill-rule="evenodd" clip-rule="evenodd" d="M9.00034 22.7945H6.23094L4.15423 14.4499C4.05566 14.066 3.84636 13.7267 3.5385 13.5668C2.7702 13.1648 1.92358 12.8449 1 12.6836V12.3624H5.46128C6.07701 12.3624 6.5388 12.8449 6.61576 13.4054L7.69328 19.4247L10.4613 12.3624H13.1538L9.00034 22.7945ZM14.6931 22.7945H12.0776L14.2313 12.3624H16.8467L14.6931 22.7945ZM20.2305 15.2524C20.3075 14.6905 20.7693 14.3692 21.308 14.3692C22.1546 14.2886 23.0769 14.4499 23.8465 14.8504L24.3083 12.6044C23.5387 12.2831 22.692 12.1218 21.9237 12.1218C19.3852 12.1218 17.5381 13.5668 17.5381 15.5723C17.5381 17.0979 18.8465 17.899 19.7701 18.3816C20.7693 18.8628 21.1541 19.1841 21.0771 19.6653C21.0771 20.3871 20.3075 20.7083 19.5392 20.7083C18.6156 20.7083 17.692 20.4677 16.8467 20.0658L16.3849 22.3133C17.3085 22.7138 18.3077 22.8752 19.2313 22.8752C22.0777 22.9544 23.8465 21.5108 23.8465 19.344C23.8465 16.6153 20.2305 16.4554 20.2305 15.2524V15.2524ZM33 22.7945L30.9233 12.3624H28.6927C28.2309 12.3624 27.7691 12.6836 27.6152 13.1648L23.7696 22.7945H26.462L26.9994 21.2702H30.3076L30.6155 22.7945H33ZM29.0775 15.1717L29.8458 19.1034H27.6921L29.0775 15.1717Z" fill="#172B85"/>
</svg>
