<svg width="14" height="14" viewBox="0 0 14 14" fill="none" xmlns="http://www.w3.org/2000/svg">
<path d="M9 3.33317C8.44772 3.33317 8 3.78089 8 4.33317C8 4.88546 8.44772 5.33317 9 5.33317V3.33317ZM10.3333 5.33317C10.8856 5.33317 11.3333 4.88546 11.3333 4.33317C11.3333 3.78089 10.8856 3.33317 10.3333 3.33317V5.33317ZM9 5.99984C8.44772 5.99984 8 6.44755 8 6.99984C8 7.55212 8.44772 7.99984 9 7.99984V5.99984ZM10.3333 7.99984C10.8856 7.99984 11.3333 7.55212 11.3333 6.99984C11.3333 6.44755 10.8856 5.99984 10.3333 5.99984V7.99984ZM10.3333 10.6665C10.8856 10.6665 11.3333 10.2188 11.3333 9.6665C11.3333 9.11422 10.8856 8.6665 10.3333 8.6665V10.6665ZM3.66667 8.6665C3.11438 8.6665 2.66667 9.11422 2.66667 9.6665C2.66667 10.2188 3.11438 10.6665 3.66667 10.6665V8.6665ZM3.66667 4.33317V3.33317C3.11438 3.33317 2.66667 3.78089 2.66667 4.33317H3.66667ZM3.66667 6.99984H2.66667C2.66667 7.55212 3.11438 7.99984 3.66667 7.99984V6.99984ZM6.33333 6.99984V7.99984C6.88562 7.99984 7.33333 7.55212 7.33333 6.99984H6.33333ZM6.33333 4.33317H7.33333C7.33333 3.78089 6.88562 3.33317 6.33333 3.33317V4.33317ZM3 2.6665H11V0.666504H3V2.6665ZM12 3.6665V10.3332H14V3.6665H12ZM11 11.3332H3V13.3332H11V11.3332ZM2 10.3332V3.66651H0V10.3332H2ZM9 5.33317H10.3333V3.33317H9V5.33317ZM9 7.99984H10.3333V5.99984H9V7.99984ZM10.3333 8.6665H3.66667V10.6665H10.3333V8.6665ZM2.66667 4.33317V6.99984H4.66667V4.33317H2.66667ZM3.66667 7.99984H6.33333V5.99984H3.66667V7.99984ZM7.33333 6.99984V4.33317H5.33333V6.99984H7.33333ZM6.33333 3.33317H3.66667V5.33317H6.33333V3.33317ZM3 11.3332C2.44772 11.3332 2 10.8855 2 10.3332H0C0 11.99 1.34315 13.3332 3 13.3332V11.3332ZM12 10.3332C12 10.8855 11.5523 11.3332 11 11.3332V13.3332C12.6569 13.3332 14 11.99 14 10.3332H12ZM11 2.6665C11.5523 2.6665 12 3.11422 12 3.6665H14C14 2.00965 12.6569 0.666504 11 0.666504V2.6665ZM3 0.666504C1.34314 0.666504 0 2.00965 0 3.66651H2C2 3.11422 2.44772 2.6665 3 2.6665V0.666504Z" fill="#979797"/>
</svg>
