<svg width="439" height="367" viewBox="0 0 439 367" fill="none" xmlns="http://www.w3.org/2000/svg">
<g clip-path="url(#clip0_2054_20621)">
<path d="M299.896 42.2803C283.871 21.6883 239.002 14.0638 203.759 32.7599C175.14 47.9416 163.525 80.1202 134.968 105.057C106.411 129.993 42.9923 132.466 41.2228 191.025C40.2547 223.212 71.0571 344.253 117.95 334.317C164.842 324.381 156.196 304.723 224.415 284.337C261.594 273.228 348.033 298.143 366.626 261.215C380.426 233.813 337.092 194.84 325.394 147.523C315.046 105.672 331.749 83.2075 299.896 42.2803Z" fill="#F4F4F4"/>
</g>
<path d="M334.834 52.5439C336.105 53.8645 336.493 55.815 335.811 57.5231C335.13 59.2312 333.544 60.406 331.721 60.533C319.477 61.3367 299.321 62.6895 290.38 63.2734C287.835 63.4315 285.627 61.5743 285.364 59.0557C284.201 48.6975 281.35 22.9441 279.538 6.7172C279.329 4.68206 280.409 2.74026 282.235 1.89652C284.098 1.02232 286.278 1.4427 287.67 2.912C300.631 16.6221 323.381 40.5193 334.834 52.5439Z" stroke="#C7C7C7" stroke-width="2" stroke-miterlimit="10" stroke-linecap="round" stroke-linejoin="round"/>
<path d="M387.883 244.835C389.772 245.376 391.155 246.949 391.49 248.844C391.825 250.738 391.059 252.7 389.495 253.871C381.297 259.96 368.943 269.079 361.436 274.655C360.034 275.713 358.17 275.937 356.506 275.324C354.861 274.68 353.642 273.259 353.338 271.517C351.668 262.971 349.037 249.475 347.377 240.847C347.042 239.085 347.625 237.267 348.945 236.067C350.265 234.867 352.138 234.429 353.833 234.93C363.029 237.604 378.003 241.93 387.883 244.835Z" stroke="#C7C7C7" stroke-width="2" stroke-miterlimit="10" stroke-linecap="round" stroke-linejoin="round"/>
<path d="M155.821 167.428L145.825 175.711L180.811 218.163L190.807 209.88L155.821 167.428Z" fill="#00A0FF"/>
<path d="M214.143 257.088C214.143 257.088 209.005 258.717 203.41 262.792C197.194 267.321 192.679 273.056 192.679 273.056C192.679 273.056 195.156 259.824 210.843 241.697L214.143 257.088Z" fill="#00A0FF"/>
<path d="M192.679 275.007C192.17 275.007 191.681 274.807 191.317 274.45C190.953 274.093 190.744 273.607 190.733 273.097C190.714 272.163 190.437 250.008 206.432 231.533C206.6 231.34 206.803 231.181 207.032 231.067C207.26 230.952 207.509 230.884 207.764 230.866C208.019 230.848 208.275 230.881 208.517 230.962C208.759 231.043 208.983 231.171 209.176 231.339C209.369 231.507 209.527 231.711 209.641 231.94C209.755 232.169 209.823 232.419 209.841 232.674C209.859 232.93 209.827 233.186 209.746 233.429C209.665 233.672 209.537 233.897 209.37 234.09C198.965 246.109 195.894 260.052 195.001 267.558C196.9 265.62 199.405 263.302 202.272 261.213C208.054 257.001 213.339 255.298 213.561 255.227C214.052 255.074 214.584 255.122 215.039 255.361C215.495 255.599 215.838 256.009 215.993 256.5C216.149 256.992 216.104 257.525 215.868 257.983C215.633 258.441 215.227 258.788 214.737 258.946C214.688 258.962 209.802 260.55 204.559 264.37C198.63 268.69 194.255 274.209 194.211 274.265C194.028 274.497 193.795 274.684 193.53 274.813C193.265 274.941 192.974 275.007 192.679 275.007Z" fill="#1F1F1F"/>
<path d="M268.588 257.088C268.588 257.088 273.726 258.717 279.321 262.792C285.537 267.321 290.052 273.056 290.052 273.056C290.052 273.056 288.328 259.824 272.641 241.697L268.588 257.088Z" fill="#00A0FF"/>
<path d="M290.049 275.008C289.755 275.008 289.465 274.941 289.201 274.813C288.936 274.685 288.705 274.498 288.523 274.267C288.479 274.211 284.084 268.678 278.174 264.372C272.931 260.551 268.045 258.963 267.996 258.948C267.511 258.786 267.108 258.439 266.876 257.983C266.644 257.526 266.601 256.996 266.755 256.507C266.909 256.019 267.249 255.611 267.701 255.371C268.153 255.132 268.681 255.081 269.17 255.228C269.394 255.299 274.679 257.002 280.461 261.215C283.324 263.301 285.822 265.615 287.721 267.551C286.811 260.034 283.731 246.078 273.354 234.091C273.027 233.699 272.867 233.194 272.907 232.684C272.948 232.174 273.187 231.701 273.572 231.366C273.957 231.031 274.458 230.861 274.967 230.892C275.476 230.924 275.952 231.154 276.293 231.534C292.288 250.014 292.011 272.164 291.991 273.098C291.98 273.608 291.77 274.094 291.407 274.451C291.043 274.808 290.555 275.008 290.046 275.008H290.049Z" fill="#1F1F1F"/>
<path d="M245.8 142.535C236.521 151.839 230.186 161.302 225.985 170.483L265.662 170.588C261.461 161.374 255.113 151.875 245.8 142.535Z" fill="#00A0FF"/>
<path d="M265.662 172.541H265.656L216.893 172.41C216.567 172.409 216.247 172.327 215.961 172.169C215.676 172.012 215.434 171.786 215.259 171.511C215.083 171.236 214.98 170.921 214.957 170.595C214.934 170.269 214.993 169.943 215.129 169.646C220.802 157.258 229.124 145.512 239.875 134.731C240.056 134.55 240.27 134.407 240.506 134.309C240.743 134.211 240.996 134.16 241.251 134.16C241.506 134.16 241.759 134.21 241.995 134.308C242.231 134.406 242.446 134.55 242.626 134.731C253.415 145.55 261.763 157.342 267.431 169.776C267.566 170.073 267.625 170.4 267.602 170.726C267.579 171.052 267.475 171.366 267.298 171.641C267.122 171.916 266.88 172.142 266.594 172.299C266.308 172.456 265.988 172.538 265.662 172.538V172.541ZM219.981 168.521L262.58 168.633C257.418 158.165 250.259 148.181 241.248 138.893C232.279 148.142 225.138 158.094 219.979 168.517L219.981 168.521Z" fill="#1F1F1F"/>
<path d="M265.336 266.152H217.165C216.812 266.152 216.465 266.056 216.162 265.873C215.859 265.69 215.612 265.428 215.446 265.114C215.235 264.713 194.502 224.472 215.13 179.396C215.234 179.159 215.384 178.945 215.571 178.766C215.758 178.588 215.979 178.448 216.22 178.356C216.461 178.264 216.719 178.221 216.977 178.23C217.235 178.238 217.489 178.298 217.723 178.406C217.958 178.514 218.169 178.668 218.344 178.859C218.519 179.049 218.654 179.273 218.742 179.517C218.83 179.76 218.868 180.019 218.855 180.278C218.842 180.536 218.778 180.79 218.666 181.023C200.645 220.402 215.381 255.813 218.381 262.25H264.118C267.109 255.811 281.796 220.416 263.895 181.149C263.782 180.915 263.717 180.661 263.704 180.402C263.691 180.142 263.729 179.883 263.817 179.639C263.905 179.394 264.04 179.17 264.216 178.979C264.391 178.788 264.603 178.634 264.838 178.526C265.074 178.418 265.328 178.359 265.587 178.351C265.846 178.343 266.104 178.386 266.345 178.48C266.587 178.573 266.808 178.714 266.995 178.893C267.181 179.073 267.33 179.289 267.433 179.527C287.962 224.549 267.269 264.714 267.057 265.114C266.891 265.428 266.643 265.69 266.34 265.873C266.037 266.056 265.69 266.153 265.336 266.152Z" fill="#1F1F1F"/>
<path d="M252.067 160.285C251.744 160.286 251.426 160.206 251.142 160.052C250.857 159.899 250.616 159.677 250.438 159.406C249.926 158.623 249.395 157.839 248.845 157.054C248.687 156.845 248.573 156.607 248.509 156.352C248.445 156.098 248.433 155.834 248.474 155.575C248.514 155.316 248.606 155.068 248.744 154.845C248.883 154.623 249.064 154.43 249.278 154.28C249.492 154.129 249.734 154.023 249.99 153.969C250.246 153.914 250.51 153.912 250.766 153.961C251.023 154.011 251.267 154.113 251.483 154.259C251.7 154.406 251.885 154.594 252.028 154.814C252.602 155.636 253.156 156.453 253.691 157.267C253.885 157.561 253.995 157.902 254.011 158.254C254.027 158.606 253.948 158.956 253.781 159.266C253.614 159.576 253.367 159.836 253.065 160.016C252.763 160.196 252.418 160.291 252.067 160.291V160.285Z" fill="#1F1F1F"/>
<path d="M247.617 154.061C247.321 154.061 247.028 153.994 246.762 153.863C246.496 153.733 246.263 153.543 246.081 153.309C244.229 150.924 242.205 148.549 240.065 146.253C239.891 146.065 239.755 145.845 239.666 145.605C239.576 145.364 239.535 145.109 239.544 144.852C239.553 144.596 239.613 144.344 239.719 144.111C239.825 143.877 239.976 143.667 240.163 143.493C240.35 143.318 240.57 143.182 240.81 143.092C241.049 143.002 241.304 142.961 241.56 142.97C241.815 142.979 242.067 143.039 242.299 143.145C242.532 143.252 242.741 143.403 242.916 143.591C245.134 145.975 247.234 148.439 249.157 150.915C249.38 151.204 249.517 151.549 249.554 151.912C249.59 152.276 249.525 152.642 249.364 152.969C249.204 153.297 248.955 153.573 248.646 153.766C248.337 153.959 247.981 154.061 247.617 154.061Z" fill="#1F1F1F"/>
<path d="M244.943 232.354C250.817 232.354 255.579 227.579 255.579 221.689C255.579 215.798 250.817 211.023 244.943 211.023C239.069 211.023 234.307 215.798 234.307 221.689C234.307 227.579 239.069 232.354 244.943 232.354Z" fill="#00A0FF"/>
<path d="M241.251 234.305C232.277 234.305 224.976 226.984 224.976 217.985C224.976 208.986 232.277 201.666 241.251 201.666C250.225 201.666 257.525 208.987 257.525 217.985C257.525 226.983 250.224 234.305 241.251 234.305ZM241.251 205.568C238.802 205.569 236.408 206.298 234.372 207.662C232.335 209.027 230.749 210.967 229.812 213.236C228.875 215.506 228.63 218.003 229.109 220.411C229.587 222.82 230.767 225.032 232.499 226.769C234.231 228.505 236.438 229.687 238.84 230.166C241.242 230.645 243.732 230.398 245.995 229.458C248.258 228.518 250.192 226.926 251.552 224.884C252.913 222.842 253.639 220.441 253.638 217.985C253.635 214.692 252.328 211.535 250.006 209.207C247.683 206.88 244.535 205.571 241.251 205.568Z" fill="#1F1F1F"/>
<path d="M250.064 219.935C249.548 219.935 249.053 219.73 248.689 219.364C248.324 218.998 248.119 218.502 248.119 217.984C248.117 216.16 247.393 214.41 246.106 213.12C244.819 211.829 243.074 211.103 241.254 211.101C240.738 211.101 240.243 210.896 239.878 210.53C239.514 210.164 239.309 209.668 239.309 209.15C239.309 208.633 239.514 208.137 239.878 207.771C240.243 207.405 240.738 207.199 241.254 207.199C244.106 207.203 246.839 208.34 248.856 210.362C250.872 212.384 252.006 215.125 252.01 217.984C252.01 218.502 251.805 218.998 251.44 219.364C251.075 219.73 250.58 219.935 250.064 219.935Z" fill="#1F1F1F"/>
<path d="M265.602 182.173H217.121C216.866 182.173 216.613 182.123 216.377 182.025C216.141 181.927 215.926 181.783 215.746 181.602C215.565 181.421 215.422 181.206 215.324 180.969C215.226 180.732 215.176 180.479 215.176 180.222C215.176 179.966 215.226 179.713 215.324 179.476C215.422 179.239 215.565 179.024 215.746 178.843C215.926 178.662 216.141 178.518 216.377 178.42C216.613 178.322 216.866 178.271 217.121 178.271H265.602C266.118 178.271 266.613 178.477 266.978 178.843C267.343 179.209 267.548 179.705 267.548 180.222C267.548 180.74 267.343 181.236 266.978 181.602C266.613 181.968 266.118 182.173 265.602 182.173Z" fill="#1F1F1F"/>
<path d="M230.873 269.447H265.407V277.937H222.406C222.406 275.685 223.298 273.526 224.886 271.934C226.474 270.342 228.627 269.447 230.872 269.447H230.873Z" fill="#00A0FF"/>
<path d="M265.407 279.888H217.164C216.648 279.888 216.153 279.683 215.789 279.317C215.424 278.951 215.219 278.455 215.219 277.937V264.201C215.219 263.684 215.424 263.187 215.789 262.821C216.153 262.456 216.648 262.25 217.164 262.25H265.407C265.663 262.25 265.916 262.3 266.152 262.399C266.388 262.497 266.603 262.64 266.783 262.821C266.964 263.003 267.107 263.218 267.205 263.454C267.303 263.691 267.353 263.945 267.353 264.201V277.937C267.353 278.193 267.303 278.447 267.205 278.684C267.107 278.921 266.964 279.136 266.783 279.317C266.603 279.498 266.388 279.642 266.152 279.74C265.916 279.838 265.663 279.888 265.407 279.888ZM219.11 275.986H263.466V266.152H219.114L219.11 275.986Z" fill="#1F1F1F"/>
<path d="M248.683 282.941H249.118V306.05H240.078V291.568C240.078 290.435 240.3 289.313 240.732 288.266C241.165 287.219 241.798 286.268 242.597 285.467C243.397 284.666 244.345 284.03 245.389 283.597C246.434 283.164 247.553 282.941 248.683 282.941Z" fill="#00A0FF"/>
<path d="M249.121 308H235.098C234.842 308 234.589 307.95 234.353 307.852C234.117 307.754 233.903 307.61 233.722 307.429C233.542 307.248 233.398 307.032 233.3 306.796C233.203 306.559 233.152 306.305 233.152 306.049V277.855C233.152 277.599 233.203 277.345 233.3 277.109C233.398 276.872 233.542 276.657 233.722 276.476C233.903 276.295 234.117 276.151 234.353 276.053C234.589 275.955 234.842 275.904 235.098 275.904H249.116C249.632 275.904 250.127 276.11 250.492 276.476C250.857 276.842 251.062 277.338 251.062 277.855V306.049C251.062 306.566 250.857 307.061 250.493 307.427C250.13 307.793 249.636 307.999 249.121 308ZM237.048 304.098H247.175V279.806H237.048V304.098Z" fill="#1F1F1F"/>
<path d="M263.138 307.909H221.485C221.226 307.915 220.968 307.87 220.727 307.774C220.485 307.679 220.265 307.536 220.08 307.355C219.894 307.173 219.746 306.956 219.646 306.716C219.545 306.476 219.493 306.219 219.493 305.959C219.493 305.699 219.545 305.441 219.646 305.201C219.746 304.962 219.894 304.745 220.08 304.563C220.265 304.381 220.485 304.238 220.727 304.143C220.968 304.048 221.226 304.002 221.485 304.008H263.138C263.397 304.002 263.655 304.048 263.896 304.143C264.138 304.238 264.358 304.381 264.543 304.563C264.729 304.745 264.877 304.962 264.977 305.201C265.078 305.441 265.13 305.699 265.13 305.959C265.13 306.219 265.078 306.476 264.977 306.716C264.877 306.956 264.729 307.173 264.543 307.355C264.358 307.536 264.138 307.679 263.896 307.774C263.655 307.87 263.397 307.915 263.138 307.909Z" fill="#1F1F1F"/>
<path d="M216.279 172.257C216.024 172.257 215.771 172.207 215.534 172.109C215.298 172.01 215.084 171.866 214.903 171.684L195.279 152.007C194.914 151.641 194.709 151.145 194.709 150.627C194.709 150.11 194.914 149.614 195.279 149.248L235.462 108.914C235.829 108.561 236.32 108.366 236.829 108.371C237.338 108.376 237.824 108.581 238.184 108.942C238.544 109.303 238.749 109.79 238.754 110.3C238.76 110.811 238.566 111.303 238.214 111.671L199.404 150.627L217.654 168.926C217.926 169.199 218.111 169.546 218.186 169.925C218.26 170.303 218.222 170.695 218.075 171.051C217.928 171.407 217.679 171.712 217.359 171.927C217.04 172.141 216.664 172.256 216.279 172.257Z" fill="#1F1F1F"/>
<path d="M265.143 172.257C264.758 172.257 264.382 172.142 264.063 171.927C263.743 171.713 263.494 171.408 263.347 171.052C263.2 170.696 263.161 170.304 263.236 169.925C263.311 169.547 263.496 169.2 263.768 168.927L282.024 150.62L243.468 111.533C243.282 111.352 243.134 111.136 243.033 110.898C242.931 110.659 242.878 110.402 242.877 110.142C242.876 109.883 242.926 109.626 243.025 109.386C243.124 109.146 243.27 108.928 243.454 108.746C243.638 108.563 243.857 108.419 244.097 108.322C244.337 108.226 244.594 108.178 244.853 108.182C245.112 108.186 245.367 108.242 245.604 108.346C245.841 108.45 246.055 108.601 246.234 108.789L286.151 149.257C286.513 149.623 286.715 150.119 286.714 150.634C286.712 151.15 286.507 151.644 286.143 152.009L266.519 171.686C266.338 171.868 266.124 172.012 265.887 172.11C265.651 172.208 265.398 172.258 265.143 172.257Z" fill="#1F1F1F"/>
<path d="M240.709 113.986C239.295 113.986 237.913 113.566 236.737 112.778C235.562 111.99 234.646 110.871 234.105 109.561C233.564 108.251 233.422 106.81 233.698 105.42C233.974 104.029 234.654 102.752 235.654 101.75C236.654 100.747 237.928 100.065 239.314 99.7881C240.701 99.5116 242.138 99.6535 243.444 100.196C244.75 100.739 245.867 101.657 246.652 102.836C247.438 104.015 247.857 105.4 247.857 106.818C247.854 108.718 247.099 110.539 245.76 111.883C244.42 113.226 242.603 113.983 240.709 113.986ZM240.709 103.543C240.064 103.544 239.433 103.736 238.897 104.095C238.361 104.455 237.943 104.965 237.696 105.563C237.45 106.161 237.385 106.818 237.511 107.452C237.637 108.087 237.948 108.669 238.404 109.126C238.86 109.584 239.441 109.895 240.074 110.021C240.707 110.147 241.362 110.082 241.958 109.835C242.554 109.587 243.063 109.168 243.422 108.63C243.78 108.093 243.971 107.46 243.971 106.814C243.97 105.946 243.626 105.115 243.015 104.502C242.403 103.889 241.574 103.544 240.709 103.543Z" fill="#1F1F1F"/>
<path d="M240.709 103.543C240.453 103.543 240.2 103.492 239.964 103.394C239.728 103.296 239.514 103.152 239.333 102.971C239.153 102.79 239.01 102.575 238.912 102.338C238.814 102.102 238.764 101.848 238.764 101.592V96.1129H188.311C187.795 96.1129 187.3 95.9073 186.935 95.5415C186.57 95.1756 186.365 94.6793 186.365 94.1619C186.365 93.6445 186.57 93.1482 186.935 92.7824C187.3 92.4165 187.795 92.2109 188.311 92.2109H240.709C240.964 92.2108 241.217 92.2612 241.454 92.3591C241.69 92.4571 241.904 92.6008 242.085 92.782C242.266 92.9632 242.409 93.1784 242.507 93.4151C242.604 93.6519 242.655 93.9057 242.654 94.1619V101.592C242.655 101.848 242.604 102.102 242.507 102.339C242.409 102.575 242.266 102.79 242.085 102.972C241.904 103.153 241.69 103.297 241.454 103.394C241.217 103.492 240.964 103.543 240.709 103.543Z" fill="#1F1F1F"/>
<path d="M195.716 229L144.821 274.533C143.425 275.774 141.705 276.59 139.862 276.885C138.02 277.18 136.131 276.941 134.419 276.197C134.124 275.26 133.973 274.282 133.973 273.298C133.971 271.917 134.262 270.552 134.825 269.292C135.389 268.032 136.212 266.906 137.242 265.989L180.593 227.218L181.617 226.309L188.141 220.469C189.533 219.226 191.25 218.407 193.09 218.11C194.93 217.812 196.817 218.048 198.528 218.789H198.541C199.101 220.583 199.132 222.501 198.631 224.313C198.129 226.124 197.117 227.752 195.716 229Z" fill="#00A0FF"/>
<path d="M138.298 278.951C136.698 278.952 135.115 278.624 133.647 277.988C132.088 277.316 130.697 276.309 129.57 275.038C127.502 272.71 126.44 269.655 126.618 266.543C126.795 263.431 128.198 260.517 130.517 258.441L181.412 212.921C185.31 209.449 190.899 208.944 195.323 211.675C197.692 213.112 199.467 215.357 200.323 217.998C200.353 218.066 200.379 218.135 200.401 218.206C201.068 220.359 201.102 222.659 200.501 224.831C199.9 227.004 198.689 228.957 197.011 230.458L146.117 275.988C143.958 277.899 141.177 278.952 138.298 278.951ZM189.193 213.838C187.275 213.842 185.426 214.554 183.999 215.839L133.107 261.353C132.34 262.039 131.714 262.87 131.267 263.799C130.82 264.728 130.56 265.736 130.501 266.766C130.442 267.795 130.587 268.826 130.926 269.8C131.265 270.774 131.791 271.671 132.476 272.44C133.222 273.284 134.144 273.953 135.177 274.398C136.552 274.993 138.067 275.185 139.546 274.949C141.025 274.714 142.407 274.062 143.531 273.07L194.42 227.542C195.515 226.563 196.313 225.295 196.723 223.883C197.133 222.471 197.138 220.972 196.739 219.557C196.71 219.489 196.685 219.42 196.664 219.35C196.116 217.538 194.919 215.994 193.303 215.016C192.069 214.248 190.646 213.841 189.193 213.838Z" fill="#1F1F1F"/>
<path d="M181.061 90.8462L166.541 90.8047C164.622 90.7988 162.779 91.5574 161.418 92.9137C160.056 94.27 159.288 96.113 159.281 98.0374L159.259 104.638H181.058C184.686 104.638 187.628 102.14 187.628 99.0577V96.428C187.63 93.3459 184.688 90.8462 181.061 90.8462Z" fill="#00A0FF"/>
<path d="M179.72 106.589H153.473C152.957 106.589 152.462 106.384 152.097 106.018C151.733 105.652 151.528 105.156 151.528 104.638C151.528 104.121 151.733 103.625 152.097 103.259C152.462 102.893 152.957 102.687 153.473 102.687H179.72C181.301 102.685 182.817 102.055 183.936 100.934C185.054 99.8124 185.683 98.2922 185.684 96.7066V92.9704C185.682 91.3849 185.053 89.8649 183.935 88.7438C182.817 87.6227 181.301 86.9919 179.72 86.9898H143.67C143.154 86.9898 142.659 86.7843 142.294 86.4184C141.93 86.0525 141.725 85.5563 141.725 85.0389C141.725 84.5214 141.93 84.0252 142.294 83.6593C142.659 83.2934 143.154 83.0879 143.67 83.0879H179.72C182.333 83.0912 184.838 84.1334 186.685 85.986C188.533 87.8386 189.572 90.3504 189.576 92.9704V96.7066C189.573 99.3267 188.533 101.839 186.686 103.691C184.838 105.544 182.333 106.586 179.72 106.589Z" fill="#1F1F1F"/>
<path d="M175.16 223.083C175.115 223.083 175.072 223.083 175.028 223.083C174.772 223.065 174.521 222.997 174.291 222.881C174.061 222.766 173.856 222.606 173.688 222.411L136.434 178.913C136.13 178.56 135.962 178.109 135.961 177.643C135.96 177.176 136.125 176.725 136.428 176.37C136.73 176.016 137.149 175.781 137.609 175.71C138.068 175.638 138.538 175.735 138.933 175.981C139.89 176.57 140.991 176.88 142.113 176.877H145.411C147.048 176.875 148.618 176.222 149.775 175.061C150.933 173.901 151.584 172.327 151.586 170.686V165.104C151.586 164.704 151.708 164.315 151.937 163.988C152.165 163.66 152.487 163.411 152.861 163.274C153.235 163.136 153.642 163.117 154.027 163.219C154.412 163.32 154.757 163.538 155.015 163.843L195.783 212.08C196.082 212.435 196.245 212.884 196.243 213.348C196.241 213.812 196.075 214.26 195.773 214.611C195.472 214.963 195.055 215.196 194.598 215.268C194.141 215.339 193.673 215.245 193.279 215.002C191.851 214.115 190.173 213.716 188.499 213.867C186.825 214.018 185.246 214.71 183.998 215.839L176.45 222.591C176.094 222.908 175.635 223.083 175.16 223.083ZM143.159 180.775L175.344 218.356L181.41 212.926C183.467 211.077 186.109 210.017 188.87 209.932L155.47 170.422V170.683C155.467 173.358 154.407 175.922 152.521 177.814C150.636 179.706 148.079 180.771 145.411 180.775H143.159Z" fill="#1F1F1F"/>
<path d="M153.527 167.053C153.244 167.053 152.965 166.992 152.708 166.873C152.451 166.754 152.224 166.58 152.041 166.364L149.94 163.879C149.771 163.684 149.641 163.457 149.56 163.212C149.478 162.967 149.446 162.708 149.465 162.45C149.485 162.192 149.555 161.94 149.672 161.71C149.789 161.48 149.951 161.275 150.147 161.107C150.344 160.94 150.572 160.814 150.818 160.736C151.064 160.658 151.322 160.629 151.579 160.652C151.836 160.675 152.086 160.749 152.314 160.87C152.542 160.991 152.744 161.156 152.908 161.356L155.009 163.84C155.248 164.124 155.402 164.47 155.452 164.839C155.502 165.208 155.445 165.583 155.29 165.92C155.134 166.258 154.885 166.544 154.573 166.745C154.26 166.945 153.897 167.052 153.527 167.053Z" fill="#1F1F1F"/>
<path d="M153.524 101.452V171.477C153.524 175.538 151.076 178.825 148.051 178.825H145.829C144.788 178.814 143.785 178.436 142.995 177.756C141.404 176.477 140.345 174.141 140.345 171.477V101.452C140.345 97.3901 142.802 94.0918 145.829 94.0918H148.05C151.076 94.0918 153.524 97.3912 153.524 101.452Z" fill="#00A0FF"/>
<path d="M145.411 180.776H142.117C140.273 180.78 138.464 180.27 136.893 179.302C135.415 178.404 134.192 177.139 133.342 175.63C132.492 174.121 132.043 172.417 132.04 170.684V93.1054C132.043 90.4264 133.106 87.8579 134.995 85.9635C136.884 84.069 139.445 83.0033 142.117 83H145.411C148.082 83.0047 150.641 84.0714 152.528 85.9659C154.414 87.8603 155.475 90.428 155.476 93.1054V170.684C155.473 173.36 154.412 175.925 152.525 177.817C150.638 179.709 148.08 180.773 145.411 180.776ZM142.117 86.9019C140.477 86.9037 138.904 87.5579 137.745 88.7209C136.585 89.8839 135.933 91.4608 135.931 93.1054V170.684C135.941 172.325 136.596 173.896 137.754 175.055C138.913 176.214 140.48 176.868 142.117 176.875H145.411C147.048 176.873 148.618 176.22 149.775 175.06C150.933 173.899 151.584 172.325 151.586 170.684V93.1054C151.586 91.4623 150.936 89.8863 149.778 88.7232C148.621 87.5602 147.05 86.9052 145.411 86.9019H142.117Z" fill="#1F1F1F"/>
<path d="M143.644 171.837C145.466 171.837 146.943 170.356 146.943 168.529C146.943 166.702 145.466 165.221 143.644 165.221C141.822 165.221 140.345 166.702 140.345 168.529C140.345 170.356 141.822 171.837 143.644 171.837Z" fill="white"/>
<path d="M143.644 173.789C142.606 173.789 141.591 173.481 140.728 172.902C139.864 172.324 139.191 171.502 138.794 170.54C138.397 169.578 138.293 168.52 138.495 167.499C138.698 166.478 139.198 165.54 139.932 164.803C140.666 164.067 141.602 163.566 142.62 163.363C143.638 163.16 144.694 163.264 145.653 163.662C146.612 164.061 147.432 164.735 148.009 165.601C148.585 166.467 148.893 167.484 148.893 168.526C148.893 169.922 148.34 171.26 147.356 172.248C146.371 173.235 145.036 173.789 143.644 173.789ZM143.644 167.174C143.376 167.174 143.114 167.253 142.892 167.403C142.669 167.552 142.496 167.764 142.393 168.012C142.291 168.26 142.264 168.533 142.316 168.796C142.369 169.06 142.498 169.302 142.687 169.491C142.877 169.681 143.118 169.81 143.381 169.863C143.643 169.915 143.915 169.888 144.163 169.785C144.41 169.682 144.621 169.508 144.77 169.284C144.919 169.061 144.998 168.799 144.998 168.53C144.997 168.17 144.854 167.826 144.6 167.571C144.347 167.317 144.003 167.174 143.644 167.174Z" fill="#1F1F1F"/>
<path d="M145.977 96.4312C147.266 95.1392 147.266 93.0444 145.977 91.7524C144.689 90.4604 142.6 90.4604 141.311 91.7524C140.023 93.0444 140.023 95.1392 141.311 96.4312C142.6 97.7232 144.689 97.7232 145.977 96.4312Z" fill="white"/>
<path d="M143.644 99.3518C142.606 99.3518 141.591 99.0431 140.728 98.4647C139.864 97.8863 139.191 97.0642 138.794 96.1024C138.397 95.1406 138.293 94.0822 138.495 93.0611C138.698 92.04 139.198 91.1021 139.932 90.366C140.666 89.6298 141.602 89.1285 142.62 88.9254C143.638 88.7223 144.694 88.8265 145.653 89.2249C146.612 89.6233 147.432 90.298 148.009 91.1636C148.585 92.0292 148.893 93.0469 148.893 94.088C148.893 95.4841 148.34 96.8229 147.356 97.8101C146.371 98.7973 145.036 99.3518 143.644 99.3518ZM143.644 92.7351C143.376 92.7351 143.114 92.8147 142.892 92.9639C142.669 93.113 142.496 93.325 142.393 93.5731C142.291 93.8211 142.264 94.094 142.316 94.3573C142.368 94.6206 142.497 94.8625 142.687 95.0523C142.876 95.2422 143.117 95.3714 143.38 95.4238C143.642 95.4762 143.915 95.4493 144.162 95.3466C144.409 95.2438 144.621 95.0699 144.769 94.8466C144.918 94.6234 144.998 94.361 144.998 94.0925C144.997 93.7327 144.854 93.3878 144.6 93.1333C144.347 92.8789 144.003 92.7357 143.644 92.7351Z" fill="#1F1F1F"/>
<path d="M180.993 94.6246C181.285 92.8211 180.064 91.1217 178.265 90.8289C176.466 90.5362 174.772 91.7609 174.48 93.5645C174.188 95.368 175.409 97.0674 177.208 97.3602C179.006 97.6529 180.701 96.4282 180.993 94.6246Z" fill="white"/>
<path d="M177.732 99.3518C176.694 99.3518 175.679 99.0431 174.815 98.4647C173.952 97.8863 173.279 97.0642 172.882 96.1024C172.485 95.1406 172.381 94.0822 172.583 93.0611C172.786 92.04 173.286 91.1021 174.02 90.366C174.754 89.6298 175.689 89.1285 176.708 88.9254C177.726 88.7223 178.781 88.8265 179.741 89.2249C180.7 89.6233 181.52 90.298 182.097 91.1636C182.673 92.0292 182.981 93.0469 182.981 94.088C182.981 95.4841 182.428 96.8229 181.444 97.8101C180.459 98.7973 179.124 99.3518 177.732 99.3518ZM177.732 92.7351C177.464 92.7349 177.202 92.8143 176.979 92.9633C176.757 93.1124 176.583 93.3243 176.48 93.5723C176.378 93.8203 176.351 94.0933 176.403 94.3566C176.455 94.62 176.584 94.862 176.773 95.0519C176.962 95.2419 177.204 95.3713 177.466 95.4237C177.729 95.4762 178.001 95.4494 178.248 95.3467C178.496 95.244 178.707 95.07 178.856 94.8467C179.005 94.6235 179.084 94.361 179.084 94.0925C179.084 93.7329 178.941 93.3881 178.688 93.1337C178.434 92.8793 178.09 92.736 177.732 92.7351Z" fill="#1F1F1F"/>
<path d="M191.171 224.126C192.459 222.834 192.459 220.74 191.171 219.448C189.882 218.156 187.793 218.156 186.505 219.448C185.216 220.74 185.216 222.834 186.505 224.126C187.793 225.418 189.882 225.418 191.171 224.126Z" fill="white"/>
<path d="M188.838 227.045C187.8 227.045 186.785 226.737 185.922 226.158C185.059 225.58 184.386 224.758 183.988 223.796C183.591 222.834 183.487 221.776 183.69 220.754C183.892 219.733 184.392 218.795 185.126 218.059C185.861 217.323 186.796 216.822 187.814 216.619C188.832 216.416 189.888 216.52 190.847 216.918C191.806 217.317 192.626 217.991 193.203 218.857C193.78 219.723 194.088 220.74 194.088 221.781C194.088 223.177 193.535 224.516 192.55 225.504C191.566 226.491 190.23 227.045 188.838 227.045ZM188.838 220.43C188.57 220.43 188.309 220.509 188.086 220.658C187.863 220.808 187.69 221.02 187.588 221.268C187.485 221.516 187.458 221.789 187.511 222.052C187.563 222.316 187.692 222.557 187.881 222.747C188.071 222.937 188.312 223.066 188.575 223.118C188.838 223.171 189.11 223.144 189.357 223.041C189.604 222.938 189.816 222.764 189.964 222.54C190.113 222.317 190.192 222.054 190.192 221.786C190.191 221.426 190.048 221.082 189.794 220.827C189.541 220.573 189.197 220.43 188.838 220.43Z" fill="#1F1F1F"/>
<path d="M138.119 270.248C139.941 270.248 141.418 268.766 141.418 266.939C141.418 265.112 139.941 263.631 138.119 263.631C136.296 263.631 134.819 265.112 134.819 266.939C134.819 268.766 136.296 270.248 138.119 270.248Z" fill="white"/>
<path d="M138.119 272.198C137.081 272.199 136.065 271.891 135.201 271.313C134.337 270.735 133.663 269.913 133.265 268.951C132.867 267.989 132.762 266.93 132.965 265.908C133.167 264.887 133.667 263.948 134.402 263.212C135.136 262.475 136.072 261.974 137.091 261.771C138.11 261.568 139.166 261.673 140.125 262.072C141.085 262.471 141.904 263.146 142.481 264.013C143.057 264.879 143.364 265.898 143.363 266.939C143.362 268.333 142.809 269.67 141.826 270.656C140.842 271.642 139.51 272.196 138.119 272.198ZM138.119 265.582C137.851 265.582 137.59 265.661 137.367 265.81C137.144 265.959 136.97 266.171 136.868 266.419C136.765 266.667 136.738 266.94 136.79 267.203C136.842 267.467 136.971 267.709 137.161 267.899C137.35 268.089 137.591 268.218 137.854 268.271C138.116 268.323 138.388 268.296 138.636 268.193C138.883 268.091 139.095 267.917 139.244 267.694C139.392 267.47 139.472 267.208 139.472 266.939C139.471 266.58 139.329 266.235 139.075 265.981C138.822 265.726 138.478 265.583 138.119 265.582Z" fill="#1F1F1F"/>
<path d="M219.215 172.525H209.074C208.558 172.525 208.063 172.319 207.698 171.954C207.333 171.588 207.128 171.091 207.128 170.574C207.128 170.057 207.333 169.56 207.698 169.194C208.063 168.829 208.558 168.623 209.074 168.623H219.219C219.735 168.623 220.23 168.829 220.595 169.194C220.96 169.56 221.165 170.057 221.165 170.574C221.165 171.091 220.96 171.588 220.595 171.954C220.23 172.319 219.735 172.525 219.219 172.525H219.215Z" fill="#1F1F1F"/>
<path d="M271.937 172.525H261.791C261.275 172.525 260.78 172.319 260.416 171.954C260.051 171.588 259.846 171.091 259.846 170.574C259.846 170.057 260.051 169.56 260.416 169.194C260.78 168.829 261.275 168.623 261.791 168.623H271.938C272.454 168.623 272.949 168.829 273.314 169.194C273.679 169.56 273.884 170.057 273.884 170.574C273.884 171.091 273.679 171.588 273.314 171.954C272.949 172.319 272.454 172.525 271.938 172.525H271.937Z" fill="#1F1F1F"/>
<path d="M120.951 307.366C120.435 307.366 119.941 307.16 119.576 306.794C119.211 306.428 119.006 305.932 119.006 305.415V263.712C119.008 261.774 119.777 259.916 121.143 258.546C122.509 257.176 124.362 256.405 126.295 256.403H132.679C132.938 256.397 133.196 256.443 133.438 256.538C133.679 256.633 133.899 256.776 134.085 256.957C134.27 257.139 134.418 257.356 134.519 257.596C134.619 257.836 134.671 258.093 134.671 258.353C134.671 258.613 134.619 258.871 134.519 259.111C134.418 259.35 134.27 259.568 134.085 259.749C133.899 259.931 133.679 260.074 133.438 260.169C133.196 260.264 132.938 260.31 132.679 260.304H126.29C125.389 260.305 124.526 260.664 123.889 261.303C123.252 261.942 122.894 262.808 122.893 263.712V305.415C122.893 305.931 122.688 306.427 122.324 306.793C121.96 307.158 121.467 307.364 120.951 307.366Z" fill="#1F1F1F"/>
<path d="M186.401 306.871C185.978 306.871 185.567 306.733 185.23 306.478C184.893 306.223 184.647 305.865 184.531 305.458L172.306 262.772C172.099 262.063 171.669 261.44 171.08 260.996C170.491 260.552 169.775 260.31 169.039 260.308H163.307C163.047 260.314 162.789 260.268 162.548 260.173C162.307 260.078 162.087 259.935 161.901 259.753C161.715 259.571 161.568 259.354 161.467 259.115C161.366 258.875 161.314 258.617 161.314 258.357C161.314 258.097 161.366 257.84 161.467 257.6C161.568 257.36 161.715 257.143 161.901 256.961C162.087 256.78 162.307 256.637 162.548 256.542C162.789 256.446 163.047 256.401 163.307 256.407H169.039C170.62 256.412 172.157 256.93 173.42 257.884C174.682 258.838 175.603 260.176 176.045 261.699L188.273 304.385C188.356 304.675 188.37 304.981 188.315 305.278C188.26 305.575 188.137 305.856 187.956 306.097C187.775 306.338 187.54 306.534 187.27 306.669C187 306.804 186.703 306.874 186.402 306.874L186.401 306.871Z" fill="#1F1F1F"/>
<path d="M41.2194 141.99C41.7834 140.134 43.3847 138.769 45.3144 138.516C47.2441 138.264 49.1481 139.121 50.207 140.74C57.2721 151.635 68.9308 169.555 74.0878 177.513C75.5477 179.782 74.9723 182.78 72.7819 184.324C63.814 190.747 41.4975 206.681 27.444 216.735C25.6719 217.979 23.3202 217.983 21.5979 216.732C19.8282 215.463 19.091 213.232 19.7293 211.188C25.7006 192.135 36.0265 158.779 41.2194 141.99Z" stroke="#C7C7C7" stroke-width="2" stroke-miterlimit="10" stroke-linecap="round" stroke-linejoin="round"/>
<path d="M424.475 111.877C425.519 110.681 427.173 110.199 428.699 110.658C430.224 111.118 431.357 112.397 431.605 113.961C433.222 124.466 435.91 141.759 437.089 149.431C437.417 151.615 435.981 153.661 433.827 154.078C424.976 155.863 402.966 160.267 389.1 163.055C387.359 163.388 385.602 162.602 384.736 161.09C383.841 159.548 384.039 157.636 385.202 156.323C396.056 144.104 414.962 122.668 424.475 111.877Z" stroke="#C7C7C7" stroke-width="2" stroke-miterlimit="10" stroke-linecap="round" stroke-linejoin="round"/>
<path d="M138.057 48.645C138.902 50.7477 138.449 53.1218 136.961 54.7687C135.472 56.4157 133.143 57.1076 130.969 56.5119C119.617 53.358 102.562 48.5654 92.1667 45.677C90.2106 45.1493 88.6863 43.6098 88.066 41.6597C87.4881 39.7062 87.9186 37.589 89.2902 36.0788C95.8906 28.5051 106.319 16.5505 113.001 8.92797C114.369 7.37545 116.438 6.61874 118.465 6.97082C120.493 7.32291 122.219 8.71905 122.963 10.617C127.04 20.887 133.705 37.5885 138.057 48.645Z" stroke="#C7C7C7" stroke-width="2" stroke-miterlimit="10" stroke-linecap="round" stroke-linejoin="round"/>
<defs>
<clipPath id="clip0_2054_20621">
<rect width="309" height="279" fill="white" transform="translate(0 102.715) rotate(-19.2185)"/>
</clipPath>
</defs>
</svg>
