<svg width="597" height="698" viewBox="0 0 597 698" fill="none" xmlns="http://www.w3.org/2000/svg">
<path d="M415.314 438.674C419.662 441.444 422.035 446.488 421.54 451.631C421.046 456.774 417.686 461.225 412.843 463.104C368.86 480.413 278.424 516.119 236.814 532.538C232.267 534.318 227.128 533.626 223.273 530.559C219.418 527.493 217.442 522.647 218.133 517.8C223.767 476.16 235.628 389.616 241.064 349.361C241.657 344.712 244.721 340.657 248.971 338.679C253.221 336.701 258.261 337.096 262.215 339.668C297.895 362.614 376.569 413.552 415.314 438.674Z" stroke="#F0F0F0" stroke-width="3" stroke-miterlimit="10" stroke-linecap="round" stroke-linejoin="round"/>
<path d="M247.488 204.164C249.761 207.23 250.651 211.087 249.959 214.846C249.267 218.604 247.093 221.868 243.831 223.945C222.186 237.891 176.523 267.465 143.61 288.73C138.471 291.994 131.849 291.598 127.203 287.741C122.558 283.883 120.977 277.355 123.349 271.817C139.953 232.748 164.267 175.58 177.511 144.325C179.488 139.775 183.639 136.61 188.581 136.017C193.523 135.423 198.366 137.599 201.331 141.555C215.267 160.348 235.924 188.438 247.488 204.164Z" stroke="#F0F0F0" stroke-width="3" stroke-miterlimit="10" stroke-linecap="round" stroke-linejoin="round"/>
<path d="M260.14 435.114C263.797 439.565 264.291 445.796 261.425 450.741C258.558 455.686 252.826 458.357 247.192 457.368C216.948 452.225 175.535 445.202 154.977 441.741C147.861 440.554 142.82 434.026 143.512 426.806C145.39 406.925 149.145 367.956 151.814 339.668C152.308 334.129 156.163 329.382 161.5 327.799C166.837 326.217 172.669 327.898 176.227 332.25C199.355 360.735 236.221 405.936 260.14 435.114Z" stroke="#F0F0F0" stroke-width="3" stroke-miterlimit="10" stroke-linecap="round" stroke-linejoin="round"/>
<path d="M235.332 239.772C237.506 244.421 237.012 249.96 233.849 254.015C230.785 258.169 225.646 260.147 220.506 259.257C177.018 251.839 90.8317 237.003 49.8143 229.98C45.0701 229.189 41.0178 225.925 39.2387 221.375C37.4596 216.826 38.2503 211.781 41.2154 207.924C65.4305 176.768 114.553 113.665 138.471 82.9049C141.436 79.1464 146.082 77.1682 150.826 77.6628C155.57 78.1573 159.721 81.1245 161.797 85.4765C179.39 122.369 216.553 200.308 235.332 239.772Z" stroke="#C7C7C7" stroke-width="3" stroke-miterlimit="10" stroke-linecap="round" stroke-linejoin="round"/>
<path d="M308.57 236.309C312.03 232.254 317.564 230.572 322.704 232.056C327.844 233.539 331.698 237.792 332.588 243.034C338.419 278.246 348.105 336.205 352.355 361.921C353.541 369.24 348.797 376.164 341.582 377.648C311.931 383.978 238.198 399.605 191.745 409.496C185.913 410.683 179.983 408.111 177.018 403.067C173.954 397.924 174.547 391.495 178.402 387.044C214.378 345.602 277.041 272.904 308.57 236.309Z" stroke="#C7C7C7" stroke-width="3" stroke-miterlimit="10" stroke-linecap="round" stroke-linejoin="round"/>
<path d="M363.819 155.205C368.86 153.623 374.296 155.106 377.854 158.865C381.412 162.623 382.598 168.162 380.819 173.107C371.43 198.922 357.197 237.694 348.598 261.333C347.017 265.784 343.162 269.048 338.517 270.136C333.872 271.125 329.029 269.74 325.767 266.278C309.36 249.563 283.465 223.155 266.959 206.241C263.598 202.78 262.215 197.834 263.401 193.186C264.587 188.537 268.145 184.778 272.691 183.394C297.302 175.778 337.331 163.315 363.819 155.205Z" stroke="#C7C7C7" stroke-width="3" stroke-miterlimit="10" stroke-linecap="round" stroke-linejoin="round"/>
<path d="M413.873 602.71C414.763 606.819 413.172 611.096 409.784 613.612C406.396 616.127 401.885 616.513 398.17 614.565C373.288 601.39 332.288 579.759 314.119 570.131C308.96 567.376 306.883 561.089 309.402 555.852C319.605 534.22 345.05 480.483 361.052 446.605C363.095 442.379 367.544 439.887 372.127 440.438C376.819 440.974 380.569 444.42 381.519 448.966C390.324 491.354 405.983 565.43 413.873 602.71Z" stroke="#C7C7C7" stroke-width="3" stroke-miterlimit="10" stroke-linecap="round" stroke-linejoin="round"/>
<path d="M120.89 550.351C121.931 545.038 125.926 540.868 131.051 539.503C136.176 538.137 141.744 539.778 145.327 543.8C163.981 564.883 191.933 596.665 209.014 615.972C212.249 619.573 213.302 624.641 212.01 629.356C210.628 634.023 207.012 637.707 202.299 638.951C179.221 645.549 142.773 655.95 119.469 662.541C114.707 663.873 109.577 662.7 105.971 659.358C102.365 656.016 100.721 650.974 101.698 646.202C106.878 620.315 115.236 578.172 120.89 550.351Z" stroke="#C7C7C7" stroke-width="3" stroke-miterlimit="10" stroke-linecap="round" stroke-linejoin="round"/>
<path d="M428.304 296.092C424.855 290.611 424.917 283.705 428.261 278.314C431.606 272.923 437.801 269.788 444.218 270.353C477.748 273.425 528.148 278.193 558.852 281.007C564.621 281.492 569.693 285.042 572.433 290.209C575.055 295.406 574.926 301.579 571.84 306.526C557.149 331.191 533.929 370.129 519.034 394.973C515.979 400.037 510.549 403.221 504.669 403.266C498.789 403.311 493.223 400.267 490.162 395.31C473.453 368.515 446.186 324.958 428.304 296.092Z" stroke="#C7C7C7" stroke-width="3" stroke-miterlimit="10" stroke-linecap="round" stroke-linejoin="round"/>
<path d="M311.776 111.972C308.241 112.753 304.555 111.397 302.378 108.489C300.202 105.581 299.855 101.699 301.519 98.4952C312.778 77.0339 331.262 41.6715 339.489 26.0012C341.843 21.5508 347.248 19.7429 351.764 21.8934C370.418 30.605 416.757 52.3291 445.97 65.9915C449.615 67.7362 451.774 71.5574 451.315 75.5039C450.869 79.5444 447.915 82.7842 444.005 83.6169C407.548 91.3354 343.839 105.058 311.776 111.972Z" stroke="#C7C7C7" stroke-width="2" stroke-miterlimit="10" stroke-linecap="round" stroke-linejoin="round"/>
</svg>
