<svg xmlns="http://www.w3.org/2000/svg" width="14" height="14" viewBox="0 0 14 14">
  <g id="Group_1410" data-name="Group 1410" transform="translate(-12270 -11691.403)">
    <path stroke="none" id="Path_1457" data-name="Path 1457" d="M6.888-62.178v3.011a9.179,9.179,0,0,1-.047.94q-.047.461-.121.977H5.835q-.074-.516-.121-.977a9.179,9.179,0,0,1-.047-.94v-3.011Zm-1.427,6.9a.81.81,0,0,1,.061-.311.742.742,0,0,1,.168-.253.829.829,0,0,1,.255-.168.793.793,0,0,1,.316-.063.78.78,0,0,1,.311.063.829.829,0,0,1,.255.168A.775.775,0,0,1,7-55.592a.78.78,0,0,1,.063.311A.775.775,0,0,1,7-54.969a.782.782,0,0,1-.171.25.792.792,0,0,1-.255.166.81.81,0,0,1-.311.061.823.823,0,0,1-.316-.061.792.792,0,0,1-.255-.166.748.748,0,0,1-.168-.25A.8.8,0,0,1,5.461-55.282Z" transform="translate(12270.905 11756.908)"/>
    <g id="Ellipse_32" data-name="Ellipse 32" transform="translate(12270 11691.403)" fill="none" stroke="#000" stroke-width="1">
      <circle cx="7" cy="7" r="7" stroke="none"/>
      <circle cx="7" cy="7" r="6.5" fill="none"/>
    </g>
  </g>
</svg>
